<svg width="21" height="24" viewBox="0 0 21 24" fill="none" xmlns="http://www.w3.org/2000/svg">
<mask id="path-1-inside-1_1667_22551" fill="white">
<path d="M16.4115 9.61151C16.4982 9.61047 16.569 9.68044 16.569 9.76711C16.569 9.79336 16.5404 9.8721 16.5404 9.8721C16.5404 9.8721 16.5404 10.5283 16.5404 10.5808C16.5404 10.6333 16.3756 10.7121 16.3756 10.7121V11.0795C16.3756 11.0795 16.3756 11.1845 16.3756 11.3945C16.3756 11.6045 16.8046 12.1295 16.919 12.2082C17.062 12.287 18.8352 13.2057 19.2928 13.4419C19.779 13.7044 19.8934 14.0456 19.8934 14.0456C19.8934 14.0456 20.0936 14.2556 20.0936 14.3344C20.0936 14.4131 20.0936 14.6493 20.0936 14.7281C20.0936 14.8068 20.0078 14.9906 20.0078 14.9906C20.0078 14.9906 20.0078 15.6993 20.0078 15.8043C20.0078 15.9093 20.0936 15.988 20.0936 15.988C20.0936 15.988 20.0936 16.3817 20.0936 16.4342C20.0936 16.4867 20.0364 16.5655 20.0364 16.5655C20.0364 16.5655 20.0364 16.6442 20.0364 16.7492C20.0364 16.8542 19.8076 17.0904 19.7504 17.1167C19.6932 17.1429 19.636 17.3792 19.636 17.3792C19.636 17.3792 19.636 20.109 19.636 20.3978C19.636 20.6865 20.0078 20.9752 20.0078 21.0015C20.0078 21.0277 20.0078 21.264 20.0078 21.264L20.0936 21.4739C20.0936 21.4739 20.0936 21.7889 20.0936 21.9202C20.0936 22.0514 20.0078 22.1564 20.0078 22.1564V22.8914L20.0936 23.1801C20.0936 23.633 19.7265 24.0001 19.2736 24.0001H11.6757C11.2228 24.0001 10.8557 23.633 10.8557 23.1801L10.9415 22.8914V22.1564C10.9415 22.1564 10.8557 22.0777 10.8557 21.9464C10.8557 21.8152 10.8557 21.5002 10.8557 21.5002L10.9415 21.2902C10.9415 21.2902 10.9415 21.0802 10.9415 21.0277C10.9415 21.0015 11.3133 20.7127 11.3133 20.424C11.3133 20.1353 11.3133 17.4054 11.3133 17.4054C11.3133 17.4054 11.2561 17.1692 11.1989 17.1429C11.1417 17.1167 10.9129 16.8805 10.9129 16.7755C10.9129 16.6705 10.9129 16.5917 10.9129 16.5917C10.9129 16.5917 10.8557 16.5392 10.8557 16.4605C10.8557 16.3817 10.8557 16.0143 10.8557 16.0143C10.8557 16.0143 10.9415 15.9355 10.9415 15.8305C10.9415 15.7255 10.9415 15.0168 10.9415 15.0168C10.9415 15.0168 10.8557 14.8593 10.8557 14.7806C10.8557 14.7018 10.8557 14.4656 10.8557 14.3869C10.8557 14.3081 11.0559 14.0981 11.0559 14.0981C11.0559 14.0981 11.1989 13.7306 11.6565 13.4944C12.1141 13.2582 13.916 12.3395 14.0304 12.2607C14.1448 12.182 14.5738 11.6308 14.5738 11.447C14.5738 11.2633 14.5738 11.132 14.5738 11.132V10.7383C14.5738 10.7383 14.409 10.6596 14.409 10.6071C14.409 10.5546 14.409 9.89835 14.409 9.89835C14.409 9.89835 14.3804 9.81961 14.3804 9.79336C14.3804 9.70607 14.4506 9.63503 14.5378 9.63398L16.4115 9.61151Z"/>
</mask>
<mask id="path-3-inside-2_1667_22551" fill="white">
<path fill-rule="evenodd" clip-rule="evenodd" d="M1 0C0.447715 0 0 0.447715 0 1V22.7016C0 23.2539 0.447715 23.7016 0.999999 23.7016H8.80755C9.35983 23.7016 9.80755 23.2539 9.80755 22.7016V1C9.80755 0.447715 9.35984 0 8.80755 0H1ZM3.45189 7.35566C2.8996 7.35566 2.45189 7.80338 2.45189 8.35566V12.0767C2.45189 12.629 2.8996 13.0767 3.45189 13.0767H6.35566C6.90795 13.0767 7.35566 12.629 7.35566 12.0767V8.35566C7.35566 7.80338 6.90795 7.35566 6.35566 7.35566H3.45189Z"/>
</mask>
<path d="M1.5 1C1.5 1.27614 1.27614 1.5 1 1.5V-1.5C-0.380711 -1.5 -1.5 -0.380713 -1.5 1H1.5ZM1.5 22.7016V1H-1.5V22.7016H1.5ZM0.999999 22.2016C1.27614 22.2016 1.5 22.4254 1.5 22.7016H-1.5C-1.5 24.0823 -0.380714 25.2016 0.999999 25.2016V22.2016ZM8.80755 22.2016H0.999999V25.2016H8.80755V22.2016ZM8.30755 22.7016C8.30755 22.4254 8.53141 22.2016 8.80755 22.2016V25.2016C10.1883 25.2016 11.3076 24.0823 11.3076 22.7016H8.30755ZM8.30755 1V22.7016H11.3076V1H8.30755ZM8.80755 1.5C8.53141 1.5 8.30755 1.27614 8.30755 1H11.3076C11.3076 -0.380711 10.1883 -1.5 8.80755 -1.5V1.5ZM1 1.5H8.80755V-1.5H1V1.5ZM3.95189 8.35566C3.95189 8.6318 3.72803 8.85566 3.45189 8.85566V5.85566C2.07117 5.85566 0.951888 6.97495 0.951888 8.35566H3.95189ZM3.95189 12.0767V8.35566H0.951888V12.0767H3.95189ZM3.45189 11.5767C3.72803 11.5767 3.95189 11.8006 3.95189 12.0767H0.951888C0.951888 13.4574 2.07117 14.5767 3.45189 14.5767V11.5767ZM6.35566 11.5767H3.45189V14.5767H6.35566V11.5767ZM5.85566 12.0767C5.85566 11.8006 6.07952 11.5767 6.35566 11.5767V14.5767C7.73638 14.5767 8.85566 13.4574 8.85566 12.0767H5.85566ZM5.85566 8.35566V12.0767H8.85566V8.35566H5.85566ZM6.35566 8.85566C6.07952 8.85566 5.85566 8.6318 5.85566 8.35566H8.85566C8.85566 6.97495 7.73638 5.85566 6.35566 5.85566V8.85566ZM3.45189 8.85566H6.35566V5.85566H3.45189V8.85566Z" fill="white" fill-opacity="0.8" mask="url(#path-3-inside-2_1667_22551)"/>
<mask id="path-5-inside-3_1667_22551" fill="white">
<path d="M3.26929 7.35571H4.08658V8.58166C4.08658 8.80735 3.90362 8.9903 3.67794 8.9903C3.45225 8.9903 3.26929 8.80735 3.26929 8.58166V7.35571Z"/>
</mask>
<path d="M3.26929 7.35571V5.85571H1.76929V7.35571H3.26929ZM4.08658 7.35571H5.58658V5.85571H4.08658V7.35571ZM3.26929 8.85571H4.08658V5.85571H3.26929V8.85571ZM2.58658 7.35571V8.58166H5.58658V7.35571H2.58658ZM4.76929 8.58166V7.35571H1.76929V8.58166H4.76929ZM3.67794 7.4903C4.28067 7.4903 4.76929 7.97892 4.76929 8.58166H1.76929C1.76929 9.63577 2.62382 10.4903 3.67794 10.4903V7.4903ZM2.58658 8.58166C2.58658 7.97892 3.0752 7.4903 3.67794 7.4903V10.4903C4.73205 10.4903 5.58658 9.63577 5.58658 8.58166H2.58658Z" fill="white" fill-opacity="0.8" mask="url(#path-5-inside-3_1667_22551)"/>
<mask id="path-7-inside-4_1667_22551" fill="white">
<path d="M5.72119 7.35571H6.53849V8.58166C6.53849 8.80735 6.35553 8.9903 6.12984 8.9903C5.90415 8.9903 5.72119 8.80735 5.72119 8.58166V7.35571Z"/>
</mask>
<path d="M5.72119 7.35571V5.85571H4.22119V7.35571H5.72119ZM6.53849 7.35571H8.03849V5.85571H6.53849V7.35571ZM5.72119 8.85571H6.53849V5.85571H5.72119V8.85571ZM5.03849 7.35571V8.58166H8.03849V7.35571H5.03849ZM7.22119 8.58166V7.35571H4.22119V8.58166H7.22119ZM6.12984 7.4903C6.73258 7.4903 7.22119 7.97892 7.22119 8.58166H4.22119C4.22119 9.63577 5.07572 10.4903 6.12984 10.4903V7.4903ZM5.03849 8.58166C5.03849 7.97892 5.5271 7.4903 6.12984 7.4903V10.4903C7.18396 10.4903 8.03849 9.63577 8.03849 8.58166H5.03849Z" fill="white" fill-opacity="0.8" mask="url(#path-7-inside-4_1667_22551)"/>
</svg>
