<svg width="79" height="94" viewBox="0 0 79 94" fill="none" xmlns="http://www.w3.org/2000/svg">
<path d="M7.7782 25.792L9.7353 48.3226C9.7353 48.3226 11.6924 53.2153 12.671 62.0223C13.6495 70.8292 14.6281 91.4027 14.6281 91.4027L19.5208 93.3598H29.3063H39.0919L43.9846 91.4027C43.9846 91.4027 45.7269 70.8054 46.8487 61.8791C47.6124 55.6975 48.8774 49.3011 48.8774 49.3011L51.813 25.792" stroke="#979797" stroke-linecap="round" stroke-linejoin="round"/>
<path d="M10.3081 50.1841C10.3081 50.1841 11.2389 48.8236 12.7187 48.7043C14.461 48.5611 16.0601 49.3726 16.2033 51.2581C16.4181 54.0505 19.5447 93.0733 19.5447 93.0733" stroke="#979797" stroke-linecap="round" stroke-linejoin="round"/>
<path d="M48.4 51.0193C48.4 51.0193 47.1589 48.8474 45.6792 48.7281C43.913 48.5849 42.29 49.3964 42.1468 51.2819C41.932 54.0743 38.7577 93.0971 38.7577 93.0971" stroke="#979797" stroke-linecap="round" stroke-linejoin="round"/>
<path d="M29.5927 51.0194L29.8553 93.1449" stroke="#979797" stroke-linecap="round" stroke-linejoin="round"/>
<path d="M7.7782 25.8397C7.89753 26.1022 10.9764 29.9925 10.8571 32.9282C10.7139 35.8639 12.1459 48.8237 12.1459 48.8237C12.1459 48.8237 14.3417 55.7929 15.535 69.5881C16.4181 79.851 16.4181 82.357 16.4181 82.357C16.4181 82.357 17.5399 87.1543 29.8553 87.1543C42.1707 87.1543 42.1707 82.1422 42.1707 82.1422C42.1707 82.1422 42.839 72.7863 43.5073 67.0343C44.1756 61.2823 47.1589 49.2533 47.1589 49.2533C47.1589 49.2533 48.1852 32.1167 48.591 30.3744C48.9967 28.6321 51.813 25.8158 51.813 25.8158" stroke="#979797" stroke-width="0.5" stroke-linecap="round" stroke-linejoin="round"/>
<path d="M29.7121 29.1811C41.9049 29.1811 51.7892 27.6851 51.7892 25.8397C51.7892 23.9943 41.9049 22.4983 29.7121 22.4983C17.5193 22.4983 7.63501 23.9943 7.63501 25.8397C7.63501 27.6851 17.5193 29.1811 29.7121 29.1811Z" stroke="#979797" stroke-linecap="round" stroke-linejoin="round"/>
<path d="M29.712 30.5176C41.9049 30.5176 51.7891 29.0216 51.7891 27.1762C51.7891 25.3308 41.9049 23.8348 29.712 23.8348C17.5192 23.8348 7.63495 25.3308 7.63495 27.1762C7.63495 29.0216 17.5192 30.5176 29.712 30.5176Z" stroke="#979797" stroke-width="0.5" stroke-linecap="round" stroke-linejoin="round"/>
<path d="M16.3226 50.184C16.3226 50.184 18.1842 48.5849 22.4803 48.7042C26.7525 48.8474 29.712 50.7091 29.712 50.7091" stroke="#979797" stroke-linecap="round" stroke-linejoin="round"/>
<path d="M29.5927 51.0194C29.5927 51.0194 31.1918 48.6088 35.464 48.7282C39.7362 48.8714 42.1229 50.3989 42.1229 50.3989" stroke="#979797" stroke-linecap="round" stroke-linejoin="round"/>
<path d="M76.42 73.908C76.42 73.908 77.5417 74.099 76.778 75.1491C75.9188 76.3425 75.4653 77.154 74.2242 77.1062C73.3172 77.0585 68.4961 76.4618 68.4961 76.4618C68.4961 76.4618 65.632 75.9368 65.5127 79.2304C65.3934 82.5241 66.5867 82.9776 68.6393 83.4788C70.668 83.98 73.9617 84.0993 74.3674 84.1232C74.7731 84.147 77.3508 81.3546 77.3508 81.3546L77.6372 73.9558C77.6611 73.9558 77.2553 73.5262 76.42 73.908Z" stroke="#979797" stroke-linecap="round" stroke-linejoin="round"/>
<path d="M68.7825 81.8319C69.692 81.8319 70.4293 81.0946 70.4293 80.185C70.4293 79.2755 69.692 78.5382 68.7825 78.5382C67.873 78.5382 67.1357 79.2755 67.1357 80.185C67.1357 81.0946 67.873 81.8319 68.7825 81.8319Z" stroke="#979797" stroke-linecap="round" stroke-linejoin="round"/>
<path d="M69.0212 81.8319C69.9307 81.8319 70.6681 81.0946 70.6681 80.185C70.6681 79.2755 69.9307 78.5382 69.0212 78.5382C68.1117 78.5382 67.3744 79.2755 67.3744 80.185C67.3744 81.0946 68.1117 81.8319 69.0212 81.8319Z" stroke="#979797" stroke-width="0.5" stroke-linecap="round" stroke-linejoin="round"/>
<path d="M76.42 73.908C76.42 73.908 75.0357 76.1037 74.2003 76.0799C73.5321 76.056 70.6203 75.8651 69.3792 75.7219C69.0928 75.6741 68.7825 75.7219 68.52 75.8651L66.3242 77.0346" stroke="#979797" stroke-width="0.5" stroke-linecap="round" stroke-linejoin="round"/>
<path d="M46.777 61.0436L68.5677 64.9578C68.5677 64.9578 72.6729 65.1249 72.8877 70.0654C73.1025 75.0058 73.0786 75.8412 73.0786 75.8412" stroke="#979797" stroke-linecap="round" stroke-linejoin="round"/>
<path d="M72.4104 84.0277C72.4104 84.0277 71.7421 88.5147 71.6466 90.5912C71.575 92.6437 67.8279 93.312 65.3934 92.8108C62.9351 92.3096 44.3904 88.0135 44.3904 88.0135" stroke="#979797" stroke-linecap="round" stroke-linejoin="round"/>
<path d="M63.9614 60.8049L67.5176 61.33C67.5176 61.33 74.4152 62.3086 75.9188 66.0796C77.4224 69.8506 76.4439 73.5022 76.4439 73.5022" stroke="#979797" stroke-linecap="round" stroke-linejoin="round"/>
<path d="M76.062 82.9536C76.062 82.9536 75.871 87.4645 75.4414 88.276C74.9879 89.0875 71.6704 90.0183 71.6704 90.0183" stroke="#979797" stroke-linecap="round" stroke-linejoin="round"/>
<path d="M65.8707 55.6733C65.8707 59.3011 63.1499 61.9981 59.7846 61.9981C56.4193 61.9981 53.6985 58.8238 53.6985 55.196C53.6985 51.5682 56.4193 48.8712 59.7846 48.8712C63.126 48.8712 65.8707 52.0455 65.8707 55.6733Z" stroke="#979797" stroke-linecap="round" stroke-linejoin="round"/>
<path d="M63.1738 61.1152C65.4412 60.2321 67.0403 57.9886 67.0403 55.1962C67.0403 51.5684 64.3194 48.394 60.9542 48.394L57.3025 49.3965" stroke="#979797" stroke-linecap="round" stroke-linejoin="round"/>
<path d="M54.7248 58.9432C54.6294 58.8955 47.4692 57.9408 47.4692 57.9408" stroke="#979797" stroke-linecap="round" stroke-linejoin="round"/>
<path d="M57.756 59.1341V52.4513L61.0258 52.7854C61.7418 52.857 62.2907 53.4776 62.2907 54.1936C62.2907 55.0289 61.5508 55.6972 60.7155 55.6018L56.0853 55.0767" stroke="#979797" stroke-linecap="round" stroke-linejoin="round"/>
<path d="M56.0853 56.5088L61.336 57.2248" stroke="#979797" stroke-linecap="round" stroke-linejoin="round"/>
<path d="M76.6725 36.7451C76.6725 40.3729 73.9516 43.0699 70.5864 43.0699C67.2211 43.0699 64.5002 39.8956 64.5002 36.2678C64.5002 32.64 67.2211 29.943 70.5864 29.943C73.9278 29.943 76.6725 33.1173 76.6725 36.7451Z" stroke="#979797" stroke-linecap="round" stroke-linejoin="round"/>
<path d="M73.9755 42.1868C76.2429 41.3037 77.842 39.0602 77.842 36.2677C77.842 32.6399 75.1211 29.4656 71.7559 29.4656L68.1042 30.468" stroke="#979797" stroke-linecap="round" stroke-linejoin="round"/>
<path d="M68.5576 40.206V33.5232L71.8274 33.8573C72.5434 33.9289 73.0924 34.5495 73.0924 35.2655C73.0924 36.1008 72.3525 36.7691 71.5172 36.6737L66.8869 36.1486" stroke="#979797" stroke-linecap="round" stroke-linejoin="round"/>
<path d="M66.8869 37.5804L72.1377 38.2965" stroke="#979797" stroke-linecap="round" stroke-linejoin="round"/>
<path d="M64.6293 8.27942C64.6293 11.9072 61.9085 14.6042 58.5432 14.6042C55.1779 14.6042 52.4571 11.4299 52.4571 7.80208C52.4571 4.17428 55.1779 1.47729 58.5432 1.47729C61.8846 1.47729 64.6293 4.65162 64.6293 8.27942Z" stroke="#979797" stroke-linecap="round" stroke-linejoin="round"/>
<path d="M61.9323 13.7212C64.1997 12.8381 65.7988 10.5946 65.7988 7.80213C65.7988 4.17433 63.0779 1 59.7126 1L56.061 2.00242" stroke="#979797" stroke-linecap="round" stroke-linejoin="round"/>
<path d="M56.5144 11.7402V5.05737L59.7842 5.39151C60.5003 5.46311 61.0492 6.08366 61.0492 6.79967C61.0492 7.63502 60.3093 8.3033 59.474 8.20783L54.8438 7.68276" stroke="#979797" stroke-linecap="round" stroke-linejoin="round"/>
<path d="M54.8438 9.11487L60.0945 9.83088" stroke="#979797" stroke-linecap="round" stroke-linejoin="round"/>
<path d="M39.3782 59.4923L38.6622 86.8202L44.1517 88.0135" stroke="#979797" stroke-width="0.5" stroke-linecap="round" stroke-linejoin="round"/>
<path d="M46.777 61.0437L39.3305 59.4685L41.9082 58.0603L42.9583 57.4636L47.0157 57.941" stroke="#979797" stroke-width="0.5" stroke-linecap="round" stroke-linejoin="round"/>
<path d="M1 37.0953C2.04264 36.4679 3.78037 34.4412 8.64601 34.4412C13.5117 34.4412 14.9018 37.0953 19.7675 37.0953C23.938 37.0953 24.2856 34.4413 30.1939 34.4413" stroke="#03ABE0" stroke-width="2"/>
<path d="M1 44.0571C2.04264 43.4297 3.78037 41.403 8.64601 41.403C13.5117 41.403 14.9018 44.0571 19.7675 44.0571C23.938 44.0571 24.2856 41.4031 30.1939 41.4031" stroke="#03ABE0" stroke-width="2"/>
</svg>
