<svg width="98" height="110" viewBox="0 0 98 110" fill="none" xmlns="http://www.w3.org/2000/svg">
<path d="M69.3472 103.184C75.857 99.8254 78.4059 91.8669 75.0404 85.4087C71.6748 78.9505 63.6693 76.4382 57.1595 79.7973C50.6497 83.1563 48.1008 91.1148 51.4664 97.573C54.8319 104.031 62.8374 106.544 69.3472 103.184Z" stroke="#979797" stroke-linecap="round" stroke-linejoin="round"/>
<path d="M68.4191 101.404C73.9374 98.5561 76.098 91.8098 73.2451 86.3353C70.3922 80.8608 63.606 78.7311 58.0878 81.5785C52.5696 84.426 50.4089 91.1722 53.2619 96.6468C56.1148 102.121 62.9009 104.251 68.4191 101.404Z" stroke="#979797" stroke-width="0.5" stroke-linecap="round" stroke-linejoin="round"/>
<path d="M66.9259 98.538C70.8491 96.5137 72.3852 91.7175 70.3569 87.8255C68.3287 83.9335 63.5041 82.4194 59.581 84.4437C55.6579 86.4681 54.1218 91.2642 56.1501 95.1563C58.1783 99.0483 63.0028 100.562 66.9259 98.538Z" stroke="#979797" stroke-width="0.5" stroke-linecap="round" stroke-linejoin="round"/>
<path d="M63.9395 92.807C64.6724 92.4288 64.9595 91.5328 64.5806 90.8059C64.2018 90.0789 63.3005 89.7961 62.5675 90.1743C61.8345 90.5525 61.5475 91.4485 61.9263 92.1755C62.3052 92.9025 63.2065 93.1852 63.9395 92.807Z" stroke="#979797" stroke-linecap="round" stroke-linejoin="round"/>
<path d="M76.8732 90.4885L85.3485 86.0939L86.4687 83.0695L82.7941 75.9828" stroke="#979797" stroke-linecap="round" stroke-linejoin="round"/>
<path d="M32.3216 29.5328L30.9091 30.2653L56.7113 80.0263L58.1238 79.2938L32.3216 29.5328Z" stroke="#979797" stroke-linecap="round" stroke-linejoin="round"/>
<path d="M72.1201 81.3219L42.5235 24.2431C42.5235 24.2431 38.4894 16.4631 29.2355 16.6677C21.2814 16.8825 21.2814 16.8825 21.2814 16.8825L21.2716 15.5192C21.2716 15.5192 25.7587 15.1474 30.5254 15.3147C36.1197 15.5416 40.6665 17.9733 43.6222 23.6734L73.8179 81.9077" stroke="#979797" stroke-linecap="round" stroke-linejoin="round"/>
<path d="M54.8976 48.1222L44.3112 53.6023L44.8381 54.6166L55.4245 49.1365L54.8976 48.1222Z" stroke="#979797" stroke-linecap="round" stroke-linejoin="round"/>
<path d="M63.2945 43.7683L55.9254 47.5809L56.4522 48.5944L63.8213 44.7818L63.2945 43.7683Z" stroke="#979797" stroke-linecap="round" stroke-linejoin="round"/>
<path d="M46.5499 32.023L35.9634 37.5032L36.4904 38.5175L47.0768 33.0374L46.5499 32.023Z" stroke="#979797" stroke-linecap="round" stroke-linejoin="round"/>
<path d="M54.9468 27.6691L47.5776 31.4818L48.1044 32.4953L55.4735 28.6826L54.9468 27.6691Z" stroke="#979797" stroke-linecap="round" stroke-linejoin="round"/>
<path d="M63.485 64.6836L52.8986 70.1637L53.4255 71.178L64.012 65.6979L63.485 64.6836Z" stroke="#979797" stroke-linecap="round" stroke-linejoin="round"/>
<path d="M71.8819 60.3296L64.5128 64.1422L65.0396 65.1557L72.4087 61.3431L71.8819 60.3296Z" stroke="#979797" stroke-linecap="round" stroke-linejoin="round"/>
<path d="M79.7665 76.6729L72.8607 80.2537L73.3799 81.255L80.2857 77.6742L79.7665 76.6729Z" stroke="#979797" stroke-linecap="round" stroke-linejoin="round"/>
<path d="M66.2291 67.3093L67.3218 66.7454C67.3218 66.7454 67.8305 66.5812 67.8709 66.6586C67.9893 66.6958 68.5813 66.8816 68.8155 66.7608C68.9716 66.6802 69.1277 66.5997 69.1277 66.5997C69.1277 66.5997 69.3242 66.5965 69.4022 66.5563C69.4803 66.516 70.2609 66.1132 70.2609 66.1132C70.2609 66.1132 70.3363 65.8778 70.4924 65.7972C70.7265 65.6764 71.9754 65.032 71.9754 65.032C71.9754 65.032 72.3684 65.0257 72.5245 64.9452C72.6806 64.8646 73.0709 64.6633 73.227 64.5827C73.3831 64.5021 73.6119 63.991 73.6119 63.991C73.6119 63.991 74.1557 63.5139 74.1801 62.4205C74.2449 61.4044 74.3102 57.5386 74.3453 57.2257C74.4207 56.9903 74.9538 55.7326 75.3441 55.5312C75.7344 55.3298 75.8905 55.2493 75.8905 55.2493L76.593 54.8868C76.593 54.8868 76.9105 55.116 76.9886 55.0757C77.0666 55.0354 78.3155 54.391 78.3155 54.391L78.512 54.3879C78.6681 54.3073 78.7435 54.0719 78.7031 53.9945L76.9705 50.8598C76.8898 50.705 76.6934 50.7081 76.5373 50.7886C76.4592 50.8289 76.4215 50.9466 76.4215 50.9466C76.4215 50.9466 75.1726 51.591 75.0945 51.6313C75.0165 51.6716 75.0218 52.0619 75.0218 52.0619L74.3193 52.4244C74.3193 52.4244 74.0851 52.5452 73.7729 52.7063C73.4607 52.8674 72.0828 52.6941 71.8056 52.5423C71.5688 52.468 68.2374 50.2566 67.4436 49.6837C66.5717 49.151 65.8262 49.2409 65.8262 49.2409C65.8262 49.2409 65.2745 49.1325 65.1184 49.2131C64.9623 49.2936 64.572 49.495 64.4159 49.5755C64.2598 49.6561 64.0282 49.9721 64.0282 49.9721C64.0282 49.9721 62.7013 50.6568 62.5452 50.7373C62.3891 50.8179 62.1523 50.7436 62.1523 50.7436C62.1523 50.7436 61.4498 51.1061 61.2936 51.1866C61.1375 51.2672 61.0998 51.3849 61.0998 51.3849C61.0998 51.3849 60.9437 51.4654 60.7876 51.546C60.6315 51.6266 60.3649 52.2554 60.3272 52.3731C60.2895 52.4908 59.9396 52.7696 59.9396 52.7696L59.081 53.2127" stroke="#979797" stroke-linecap="round" stroke-linejoin="round"/>
<path d="M65.1268 67.9L61.6198 69.71C61.0742 69.9916 60.851 70.8918 60.851 70.8918L60.3834 71.1331L60.0743 71.4889C60.0743 71.4889 59.5288 71.7705 59.217 71.9314C58.9832 72.052 58.6688 72.018 58.6688 72.018L57.344 72.7018L56.879 73.138C56.0217 73.5805 54.998 73.3238 54.5951 72.5505L47.9066 59.7133C47.5037 58.94 47.8827 57.9593 48.74 57.5168L49.3661 57.3899L50.691 56.7062C50.691 56.7062 50.7663 56.471 51.0001 56.3504C51.2339 56.2297 51.8574 55.9079 51.8574 55.9079L52.3277 55.8615C52.3277 55.8615 52.7173 55.6604 52.7953 55.6201C52.8732 55.5799 53.6631 55.9572 54.2087 55.6757L57.7157 53.8657" stroke="#979797" stroke-linecap="round" stroke-linejoin="round"/>
<path d="M75.0992 52.1174L76.5767 54.9668" stroke="#979797" stroke-width="0.5" stroke-linecap="round" stroke-linejoin="round"/>
<path d="M76.1194 51.5883L77.5969 54.4376" stroke="#979797" stroke-width="0.5" stroke-linecap="round" stroke-linejoin="round"/>
<path d="M65.5173 50.537L70.5898 60.3194" stroke="#979797" stroke-width="0.5" stroke-linecap="round" stroke-linejoin="round"/>
<path d="M62.3783 52.1647L67.4507 61.9471" stroke="#979797" stroke-width="0.5" stroke-linecap="round" stroke-linejoin="round"/>
<path d="M51.7842 57.6578L56.8566 67.4403" stroke="#979797" stroke-width="0.5" stroke-linecap="round" stroke-linejoin="round"/>
<path d="M73.8271 83.1131L75.3883 82.3075C75.3883 82.3075 75.8971 82.1432 75.9374 82.2207C76.0559 82.2578 76.648 82.4436 76.8822 82.3228C77.0383 82.2422 77.1944 82.1617 77.1944 82.1617C77.1944 82.1617 77.3909 82.1586 77.469 82.1183C77.547 82.078 78.3277 81.6752 78.3277 81.6752C78.3277 81.6752 78.4031 81.4397 78.5592 81.3592C78.7934 81.2383 80.0424 80.5938 80.0424 80.5938C80.0424 80.5938 80.4354 80.5876 80.5915 80.507C80.7476 80.4265 81.138 80.2251 81.2941 80.1445C81.4502 80.0639 81.6791 79.5527 81.6791 79.5527C81.6791 79.5527 82.2229 79.0756 82.2473 77.982C82.3121 76.9659 82.3775 73.0996 82.4125 72.7867C82.4879 72.5512 83.0211 71.2934 83.4114 71.092C83.8017 70.8906 83.9579 70.81 83.9579 70.81L84.6604 70.4475C84.6604 70.4475 84.978 70.6767 85.0561 70.6364C85.1341 70.5962 86.3831 69.9517 86.3831 69.9517L86.5796 69.9485C86.7358 69.868 86.8112 69.6325 86.7708 69.5551L85.038 66.4201C84.9573 66.2652 84.7608 66.2683 84.6047 66.3489C84.5266 66.3892 84.4889 66.5069 84.4889 66.5069C84.4889 66.5069 83.2399 67.1514 83.1618 67.1917C83.0838 67.232 83.0891 67.6223 83.0891 67.6223L82.3865 67.9848C82.3865 67.9848 82.1523 68.1057 81.8401 68.2668C81.5278 68.4279 80.1498 68.2546 79.8726 68.1028C79.6357 68.0285 76.3039 65.8168 75.51 65.2438C74.6381 64.711 73.8925 64.8009 73.8925 64.8009C73.8925 64.8009 73.3407 64.6926 73.1846 64.7731C73.0285 64.8537 72.6382 65.0551 72.482 65.1357C72.3259 65.2162 72.0944 65.5322 72.0944 65.5322C72.0944 65.5322 70.7673 66.217 70.6112 66.2976C70.455 66.3781 70.2182 66.3038 70.2182 66.3038C70.2182 66.3038 69.5156 66.6663 69.3595 66.7469C69.2034 66.8275 69.1657 66.9452 69.1657 66.9452C69.1657 66.9452 69.0095 67.0258 68.8534 67.1063C68.6973 67.1869 68.4307 67.8158 68.393 67.9335C68.3553 68.0512 68.0053 68.3301 68.0053 68.3301L66.9905 68.8538" stroke="#979797" stroke-linecap="round" stroke-linejoin="round"/>
<path d="M57.5552 78.3325L55.9777 75.3034C55.5732 74.5267 55.9539 73.5417 56.8147 73.0973L57.4434 72.9698L58.7737 72.2828C58.7737 72.2828 58.8493 72.0467 59.0841 71.9255C59.3188 71.8043 59.9449 71.481 59.9449 71.481L60.417 71.4343C60.417 71.4343 60.8083 71.2323 60.8866 71.1919C60.9648 71.1515 61.7579 71.5304 62.3057 71.2475L65.8272 69.4292" stroke="#979797" stroke-linecap="round" stroke-linejoin="round"/>
<path d="M83.1673 67.6769L84.6448 70.5263" stroke="#979797" stroke-width="0.5" stroke-linecap="round" stroke-linejoin="round"/>
<path d="M84.1875 67.1478L85.665 69.9972" stroke="#979797" stroke-width="0.5" stroke-linecap="round" stroke-linejoin="round"/>
<path d="M73.5855 66.0968L78.6579 75.8793" stroke="#979797" stroke-width="0.5" stroke-linecap="round" stroke-linejoin="round"/>
<path d="M70.4465 67.7244L75.5189 77.5068" stroke="#979797" stroke-width="0.5" stroke-linecap="round" stroke-linejoin="round"/>
<path d="M59.8524 73.2178L62.5279 78.3774" stroke="#979797" stroke-width="0.5" stroke-linecap="round" stroke-linejoin="round"/>
<path d="M58.3178 51.6683L59.2545 51.185C59.2545 51.185 59.7632 51.0208 59.8035 51.0982C59.9219 51.1354 60.514 51.3212 60.7482 51.2003C60.9043 51.1198 61.0604 51.0392 61.0604 51.0392C61.0604 51.0392 61.2568 51.0361 61.3349 50.9958C61.413 50.9555 62.1935 50.5528 62.1935 50.5528C62.1935 50.5528 62.2689 50.3173 62.425 50.2368C62.6592 50.116 63.9081 49.4715 63.9081 49.4715C63.9081 49.4715 64.301 49.4653 64.4571 49.3847C64.6132 49.3042 65.0035 49.1028 65.1596 49.0222C65.3157 48.9417 65.5446 48.4306 65.5446 48.4306C65.5446 48.4306 66.0883 47.9535 66.1128 46.86C66.1775 45.844 66.2429 41.9781 66.2779 41.6652C66.3533 41.4298 66.8864 40.1721 67.2767 39.9707C67.667 39.7693 67.8231 39.6888 67.8231 39.6888L68.5256 39.3263C68.5256 39.3263 68.8431 39.5555 68.9212 39.5152C68.9993 39.4749 70.2481 38.8305 70.2481 38.8305L70.4446 38.8274C70.6007 38.7468 70.6761 38.5114 70.6358 38.434L69.1373 35.1785C69.0566 35.0236 68.8602 35.0267 68.7041 35.1073C68.626 35.1476 68.5883 35.2653 68.5883 35.2653C68.5883 35.2653 67.3394 35.9097 67.2614 35.95C67.1833 35.9903 67.1886 36.3806 67.1886 36.3806L66.4861 36.7431C66.4861 36.7431 66.2519 36.8639 65.9397 37.025C65.6275 37.1861 64.2496 37.0128 63.9724 36.861C63.7356 36.7867 60.4042 34.5753 59.6104 34.0023C58.7385 33.4696 57.993 33.5595 57.993 33.5595C57.993 33.5595 57.2448 33.4543 57.0887 33.5348C56.9326 33.6154 56.5423 33.8168 56.3862 33.8973C56.2301 33.9779 55.9986 34.2939 55.9986 34.2939C55.9986 34.2939 54.6716 34.9786 54.5155 35.0591C54.3594 35.1397 54.1226 35.0653 54.1226 35.0653C54.1226 35.0653 53.4201 35.4278 53.264 35.5084C53.1079 35.5889 53.0702 35.7067 53.0702 35.7067C53.0702 35.7067 52.9141 35.7872 52.758 35.8678C52.6018 35.9483 52.3353 36.5772 52.2976 36.6949C52.2599 36.8126 51.8723 37.2091 51.8723 37.2091L50.9356 37.6925" stroke="#979797" stroke-linecap="round" stroke-linejoin="round"/>
<path d="M57.0586 52.34L53.5516 54.15C53.006 54.4316 52.7828 55.3318 52.7828 55.3318L52.3152 55.5731L52.0061 55.9289C52.0061 55.9289 51.4606 56.2105 51.1489 56.3714C50.9151 56.492 50.6007 56.4581 50.6007 56.4581L49.2758 57.1418L48.8108 57.5781C47.9535 58.0205 46.9298 57.7639 46.5269 56.9905L39.8384 44.1532C39.4355 43.3799 39.8146 42.3992 40.6718 41.9568L41.298 41.8299L42.6229 41.1461C42.6229 41.1461 42.6981 40.911 42.9319 40.7903C43.1658 40.6696 43.7892 40.3479 43.7892 40.3479L44.2595 40.3014C44.2595 40.3014 44.6492 40.1003 44.7271 40.0601C44.805 40.0198 45.595 40.3972 46.1405 40.1156L49.6476 38.3056" stroke="#979797" stroke-linecap="round" stroke-linejoin="round"/>
<path d="M67.0309 36.5569L68.5084 39.4063" stroke="#979797" stroke-width="0.5" stroke-linecap="round" stroke-linejoin="round"/>
<path d="M68.0511 36.0278L69.5286 38.8772" stroke="#979797" stroke-width="0.5" stroke-linecap="round" stroke-linejoin="round"/>
<path d="M57.4489 34.9764L62.2018 44.1427" stroke="#979797" stroke-width="0.5" stroke-linecap="round" stroke-linejoin="round"/>
<path d="M54.3099 36.6041L59.0628 45.7704" stroke="#979797" stroke-width="0.5" stroke-linecap="round" stroke-linejoin="round"/>
<path d="M43.7158 42.0974L48.4687 51.2637" stroke="#979797" stroke-width="0.5" stroke-linecap="round" stroke-linejoin="round"/>
<path d="M42.7884 22.173L43.8031 21.6494C43.8031 21.6494 44.2311 21.3303 44.1908 21.2529C44.2285 21.1352 44.417 20.5466 44.6511 20.4257C44.8073 20.3452 44.9634 20.2646 44.9634 20.2646C44.9634 20.2646 45.0011 20.1469 45.1572 20.0664C45.3133 19.9858 46.0158 19.6233 46.0158 19.6233C46.0158 19.6233 46.2526 19.6976 46.4087 19.6171C46.5648 19.5365 47.8918 18.8518 47.8918 18.8518C47.8918 18.8518 48.1233 18.5358 48.2794 18.4553C48.4355 18.3747 48.8258 18.1733 48.9819 18.0928C49.138 18.0122 49.6897 18.1206 49.6897 18.1206C49.6897 18.1206 50.5133 17.9904 51.3071 18.5634C52.179 19.0961 55.392 21.2703 55.6691 21.4221C55.906 21.4964 57.3242 21.7472 57.6365 21.586C57.9487 21.4249 58.1828 21.3041 58.1828 21.3041L58.8853 20.9416C58.8853 20.9416 58.88 20.5513 58.9581 20.511C59.0361 20.4708 60.285 19.8263 60.285 19.8263L60.4008 19.6683C60.5569 19.5878 60.7937 19.6621 60.8341 19.7395L62.5667 22.8742C62.6474 23.029 62.5316 23.187 62.3755 23.2676C62.2974 23.3079 62.179 23.2707 62.179 23.2707C62.179 23.2707 60.9301 23.9151 60.8521 23.9554C60.774 23.9957 60.4565 23.7665 60.4565 23.7665L59.754 24.129C59.754 24.129 59.5198 24.2498 59.2076 24.4109C58.8173 24.6123 58.2439 25.7926 58.2088 26.1055C58.1738 26.4183 58.0304 30.3245 58.0436 31.3002C58.0192 32.3937 57.4754 32.8708 57.4754 32.8708C57.4754 32.8708 57.2466 33.3819 57.0905 33.4625C56.9344 33.543 56.5441 33.7444 56.388 33.825C56.2319 33.9055 55.8389 33.9118 55.8389 33.9118C55.8389 33.9118 54.512 34.5965 54.3559 34.677C54.1998 34.7576 54.1244 34.993 54.1244 34.993C54.1244 34.993 53.4219 35.3555 53.2657 35.4361C53.1877 35.4763 52.9912 35.4795 52.9912 35.4795C52.9912 35.4795 52.8351 35.56 52.679 35.6406C52.5229 35.7211 51.8528 35.5756 51.7344 35.5384C51.616 35.5013 51.1853 35.6252 51.1853 35.6252L50.0926 36.1891" stroke="#979797" stroke-linecap="round" stroke-linejoin="round"/>
<path d="M48.9904 36.78L45.4834 38.59C44.9378 38.8716 44.7146 39.7718 44.7146 39.7718L44.247 40.0132L43.9379 40.3689C43.9379 40.3689 43.3924 40.6505 43.0807 40.8114C42.8468 40.9321 42.5325 40.8981 42.5325 40.8981L41.2076 41.5819L40.7426 42.0181C39.8853 42.4606 38.8616 42.2039 38.4587 41.4306L31.7702 28.5933C31.3673 27.82 31.7464 26.8393 32.6037 26.3968L33.2298 26.2699L34.5547 25.5861C34.5547 25.5861 34.63 25.351 34.8638 25.2304C35.0976 25.1097 35.7211 24.7879 35.7211 24.7879L36.1913 24.7415C36.1913 24.7415 36.581 24.5403 36.6589 24.5001C36.7369 24.4599 37.5268 24.8372 38.0723 24.5557L41.5015 22.7858" stroke="#979797" stroke-linecap="round" stroke-linejoin="round"/>
<path d="M58.9628 20.9972L60.4402 23.8466" stroke="#979797" stroke-width="0.5" stroke-linecap="round" stroke-linejoin="round"/>
<path d="M59.983 20.4681L61.4604 23.3175" stroke="#979797" stroke-width="0.5" stroke-linecap="round" stroke-linejoin="round"/>
<path d="M49.3809 19.4169L53.7744 27.8901" stroke="#979797" stroke-width="0.5" stroke-linecap="round" stroke-linejoin="round"/>
<path d="M46.2419 21.0446L50.6354 29.5178" stroke="#979797" stroke-width="0.5" stroke-linecap="round" stroke-linejoin="round"/>
<path d="M35.6478 26.5378L40.0413 35.0109" stroke="#979797" stroke-width="0.5" stroke-linecap="round" stroke-linejoin="round"/>
<path d="M8.58167 90.7147V95.0017H36.8333V64.5076" stroke="#979797" stroke-linecap="round" stroke-linejoin="round"/>
<path d="M9.3797 94.7588V95.8104H37.6314V64.8309H36.8333" stroke="#979797" stroke-width="0.5" stroke-linecap="round" stroke-linejoin="round"/>
<path d="M8.58166 64.5076H36.8333L36.7535 66.3679C36.4343 73.2433 34.5189 79.8759 31.167 85.8615L29.3315 89.097H1L1.95768 87.4792C5.94803 80.523 8.18262 72.5962 8.58166 64.5076Z" stroke="#979797" stroke-linecap="round" stroke-linejoin="round"/>
<path d="M36.8333 64.5076V66.6106C36.5141 73.7286 34.918 80.7657 31.5661 86.913L29.7305 90.3103H1.71826L1.95768 89.9058" stroke="#979797" stroke-width="0.5" stroke-linecap="round" stroke-linejoin="round"/>
<path d="M25.5008 70.6549H23.1864H17.0412L15.7643 73.1624H21.67L19.196 78.3391L16.6422 78.2582L15.4451 80.7657H17.8393L15.3653 85.2144H18.2383L20.4729 80.8466H22.947L24.2239 78.2582H21.67L25.5008 70.6549Z" fill="#03ABE0"/>
<path d="M13.9288 66.449C14.1682 66.2063 14.4874 66.0446 14.8865 66.0446C15.6845 66.0446 16.323 66.6916 16.323 67.5005C16.323 68.3094 15.6845 68.9565 14.8865 68.9565C14.0884 68.9565 13.45 68.3094 13.45 67.5005C13.45 67.3387 13.45 67.0961 13.5298 66.9343" stroke="#979797" stroke-width="0.5" stroke-linecap="round" stroke-linejoin="round"/>
<path d="M14.0884 66.7725C14.3278 66.5299 14.5672 66.449 14.8865 66.449C15.5249 66.449 16.0038 66.9343 16.0038 67.5814C16.0038 68.2285 15.5249 68.7138 14.8865 68.7138C14.248 68.7138 13.7692 68.2285 13.7692 67.5814C13.7692 67.5005 13.7692 67.4196 13.7692 67.3387" stroke="#979797" stroke-width="0.5" stroke-linecap="round" stroke-linejoin="round"/>
<path d="M15.046 67.9856C13.9288 67.9856 12.9711 66.6105 12.9711 64.9928C12.9711 63.3751 13.9288 62 15.046 62C16.0835 62 16.9614 63.0515 17.121 64.5075" stroke="#979797" stroke-width="0.5" stroke-linecap="round" stroke-linejoin="round"/>
<path d="M15.1259 67.3385C14.7269 67.3385 14.3278 67.0959 14.0884 66.6914C13.7692 66.2061 13.6096 65.559 13.6096 64.9119C13.6096 63.5369 14.3278 62.4854 15.2057 62.4854C16.0038 62.4854 16.6422 63.3751 16.722 64.5075" stroke="#979797" stroke-width="0.5" stroke-linecap="round" stroke-linejoin="round"/>
<path d="M15.1259 67.9856C15.2855 67.9856 15.4451 67.8238 15.4451 67.662C15.4451 67.5003 15.2855 67.3385 15.1259 67.3385" stroke="#979797" stroke-width="0.5" stroke-linecap="round" stroke-linejoin="round"/>
<path d="M28.8526 66.449C29.092 66.2063 29.4113 66.0446 29.8103 66.0446C30.6084 66.0446 31.2468 66.6916 31.2468 67.5005C31.2468 68.3094 30.6084 68.9565 29.8103 68.9565C29.0122 68.9565 28.3738 68.3094 28.3738 67.5005C28.3738 67.3387 28.3738 67.0961 28.4536 66.9343" stroke="#979797" stroke-width="0.5" stroke-linecap="round" stroke-linejoin="round"/>
<path d="M28.9325 66.7725C29.1719 66.5299 29.4114 66.449 29.7306 66.449C30.369 66.449 30.8479 66.9343 30.8479 67.5814C30.8479 68.2285 30.369 68.7138 29.7306 68.7138C29.0921 68.7138 28.6133 68.2285 28.6133 67.5814C28.6133 67.5005 28.6133 67.4196 28.6133 67.3387" stroke="#979797" stroke-width="0.5" stroke-linecap="round" stroke-linejoin="round"/>
<path d="M29.97 67.9856C28.8527 67.9856 27.895 66.6105 27.895 64.9928C27.895 63.3751 28.8527 62 29.97 62C31.0075 62 31.8854 63.0515 32.045 64.5075" stroke="#979797" stroke-width="0.5" stroke-linecap="round" stroke-linejoin="round"/>
<path d="M30.0498 67.3385C29.6507 67.3385 29.2517 67.0959 29.0123 66.6914C28.6931 66.2061 28.5334 65.559 28.5334 64.9119C28.5334 63.5369 29.2517 62.4854 30.1296 62.4854C30.9277 62.4854 31.5661 63.3751 31.6459 64.5075" stroke="#979797" stroke-width="0.5" stroke-linecap="round" stroke-linejoin="round"/>
<path d="M30.0498 67.9856C30.2094 67.9856 30.369 67.8238 30.369 67.662C30.369 67.5003 30.2094 67.3385 30.0498 67.3385" stroke="#979797" stroke-width="0.5" stroke-linecap="round" stroke-linejoin="round"/>
</svg>
