<svg width="75" height="75" viewBox="0 0 75 75" fill="none" xmlns="http://www.w3.org/2000/svg">
<path d="M26.2672 0.53125C26.6704 0.53125 26.9392 1.53925 26.9392 1.94245C26.9392 2.07685 26.8048 2.48005 26.8048 2.48005C26.8048 2.48005 26.8048 8.32645 26.8048 8.59525C26.8048 8.86405 26.0656 9.20005 26.0656 9.20005V11.0144C26.0656 11.0144 26.0656 11.552 26.0656 12.56C26.0656 13.0304 27.3424 12.896 27.8128 13.6352C28.4176 14.5088 28.216 16.3232 28.4848 16.5248C29.1568 16.928 37.2208 21.3632 39.304 22.5056C41.5216 23.7824 42.0592 25.4624 42.0592 25.4624C42.0592 25.4624 43 26.4704 43 26.8736C43 27.2768 43 28.4192 43 28.7552C43 29.0912 42.5968 30.032 42.5968 30.032C42.5968 30.032 42.5968 33.4592 42.5968 33.9968C42.5968 34.5344 43 34.8704 43 34.8704C43 34.8704 43 36.752 43 37.0208C43 37.2896 42.7312 37.6256 42.7312 37.6256C42.7312 37.6256 42.7312 38.0288 42.7312 38.4992C42.7312 39.0368 41.7232 40.1792 41.4544 40.3136C41.1856 40.448 40.9168 41.5904 40.9168 41.5904C40.9168 41.5904 40.9168 54.8288 40.9168 56.24C40.9168 57.6512 42.5968 59.0624 42.5968 59.1968C42.5968 59.3312 42.5968 60.4736 42.5968 60.4736L43 61.4816C43 61.4816 43 63.0272 43 63.632C43 64.2368 42.5968 64.7744 42.5968 64.7744V68.336L43 69.7472C43 71.9648 41.3872 73.712 39.304 73.712H4.696C2.68 73.712 1 71.8976 1 69.7472L1.4032 68.336V64.7744C1.4032 64.7744 1 64.3712 1 63.7664C1 63.1616 1 61.616 1 61.616L1.4032 60.608C1.4032 60.608 1.4032 59.6 1.4032 59.3312C1.4032 59.1968 3.0832 57.7856 3.0832 56.3744C3.0832 54.9632 3.0832 41.7248 3.0832 41.7248C3.0832 41.7248 2.8144 40.5824 2.5456 40.5152C2.2768 40.3808 1.2688 39.2384 1.2688 38.7008C1.2688 38.1632 1.2688 37.8272 1.2688 37.8272C1.2688 37.8272 1 37.5584 1 37.1552C1 36.752 1 35.0048 1 35.0048C1 35.0048 1.4032 34.6016 1.4032 34.1312C1.4032 33.5936 1.4032 30.1664 1.4032 30.1664C1.4032 30.1664 1 29.4272 1 29.024C1 28.6208 1 27.4784 1 27.1424C1 26.7392 1.9408 25.7312 1.9408 25.7312C1.9408 25.7312 2.6128 23.9168 4.696 22.7744C6.712 21.632 14.9104 17.1296 15.448 16.7936C15.7168 16.592 15.9184 14.5088 16.456 13.6352C16.9936 12.8288 17.9344 13.232 17.9344 12.8288C17.9344 11.9552 17.9344 11.2832 17.9344 11.2832V9.40165C17.9344 9.40165 17.1952 8.99845 17.1952 8.79685C17.1952 8.52805 17.1952 2.68165 17.1952 2.68165C17.1952 2.68165 16.9936 2.21125 16.9936 2.07685C16.9936 1.67365 17.3296 0.66565 17.6656 0.59845L26.2672 0.53125Z" stroke="#979797" stroke-linecap="round" stroke-linejoin="round"/>
<path d="M11.0185 45.3672L16.4097 42.4021" stroke="#979797" stroke-linecap="round" stroke-linejoin="round"/>
<path d="M12.7256 48.5123L18.1168 45.4573" stroke="#979797" stroke-linecap="round" stroke-linejoin="round"/>
<path d="M8.86196 52.4659C10.9958 52.4659 12.7256 50.736 12.7256 48.6022C12.7256 46.4683 10.9958 44.7385 8.86196 44.7385C6.72812 44.7385 4.99829 46.4683 4.99829 48.6022C4.99829 50.736 6.72812 52.4659 8.86196 52.4659Z" fill="#03ABE0"/>
<path d="M20.453 45.9964C22.5869 45.9964 24.3167 44.2666 24.3167 42.1327C24.3167 39.9989 22.5869 38.269 20.453 38.269C18.3192 38.269 16.5894 39.9989 16.5894 42.1327C16.5894 44.2666 18.3192 45.9964 20.453 45.9964Z" fill="#03ABE0"/>
<path d="M31.7744 39.572L35.0989 42.0879" stroke="#979797" stroke-linecap="round" stroke-linejoin="round"/>
<path d="M30.337 41.5488L33.6616 44.0647" stroke="#979797" stroke-linecap="round" stroke-linejoin="round"/>
<path d="M29.1687 41.7283C30.6078 41.7283 31.7744 40.5617 31.7744 39.1226C31.7744 37.6835 30.6078 36.5168 29.1687 36.5168C27.7296 36.5168 26.5629 37.6835 26.5629 39.1226C26.5629 40.5617 27.7296 41.7283 29.1687 41.7283Z" fill="#03ABE0"/>
<path d="M36.3571 47.1194C37.7962 47.1194 38.9628 45.9528 38.9628 44.5137C38.9628 43.0746 37.7962 41.908 36.3571 41.908C34.918 41.908 33.7513 43.0746 33.7513 44.5137C33.7513 45.9528 34.918 47.1194 36.3571 47.1194Z" fill="#03ABE0"/>
<path d="M1.67175 25.7312H41.9917" stroke="#979797" stroke-width="0.5" stroke-linecap="round" stroke-linejoin="round"/>
<path d="M17.4641 8.93115H26.2001" stroke="#979797" stroke-width="0.5" stroke-linecap="round" stroke-linejoin="round"/>
<path d="M17.128 2.88354H26.536" stroke="#979797" stroke-width="0.5" stroke-linecap="round" stroke-linejoin="round"/>
<path d="M17.128 7.58765H26.536" stroke="#979797" stroke-width="0.5" stroke-linecap="round" stroke-linejoin="round"/>
<path d="M17.128 5.57153H26.536" stroke="#979797" stroke-width="0.5" stroke-linecap="round" stroke-linejoin="round"/>
<path d="M17.8 10.2754H25.864" stroke="#979797" stroke-width="0.5" stroke-linecap="round" stroke-linejoin="round"/>
<path d="M17.8 12.9631H25.864" stroke="#979797" stroke-width="0.5" stroke-linecap="round" stroke-linejoin="round"/>
<path d="M15.784 16.3235H28.552" stroke="#979797" stroke-width="0.5" stroke-linecap="round" stroke-linejoin="round"/>
<path d="M1.67175 33.7952H42.6637" stroke="#979797" stroke-width="0.5" stroke-linecap="round" stroke-linejoin="round"/>
<path d="M1.67175 59.3311H42.6637" stroke="#979797" stroke-width="0.5" stroke-linecap="round" stroke-linejoin="round"/>
<path d="M3.35193 56.6433H40.6479" stroke="#979797" stroke-width="0.5" stroke-linecap="round" stroke-linejoin="round"/>
<path d="M1.67175 65.3794H42.6637" stroke="#979797" stroke-width="0.5" stroke-linecap="round" stroke-linejoin="round"/>
<path d="M1.67175 69.8372H42.6637" stroke="#979797" stroke-width="0.5" stroke-linecap="round" stroke-linejoin="round"/>
<path d="M73.9555 72.4139V73.8277H67.8604V72.6178L70.7843 69.1446C71.0893 68.764 71.3304 68.4332 71.5076 68.1522C71.6848 67.8713 71.8105 67.6175 71.8847 67.391C71.963 67.1599 72.0021 66.9401 72.0021 66.7317C72.0021 66.4281 71.9527 66.163 71.8538 65.9364C71.7549 65.7053 71.6106 65.5263 71.421 65.3995C71.2356 65.2726 71.0069 65.2091 70.7349 65.2091C70.434 65.2091 70.1765 65.2862 69.9622 65.4402C69.752 65.5898 69.5912 65.7982 69.48 66.0656C69.3728 66.3329 69.3193 66.6388 69.3193 66.9832H67.6811C67.6811 66.3986 67.8047 65.8662 68.052 65.3859C68.2993 64.901 68.6537 64.5136 69.1153 64.2236C69.5768 63.9336 70.1249 63.7886 70.7596 63.7886C71.3778 63.7886 71.9012 63.9019 72.3298 64.1284C72.7584 64.3505 73.0839 64.6676 73.3065 65.08C73.529 65.4923 73.6403 65.984 73.6403 66.5549C73.6403 66.8721 73.5929 67.1848 73.4981 67.4929C73.4033 67.8011 73.2694 68.1069 73.0963 68.4105C72.9273 68.7096 72.7254 69.0132 72.4905 69.3213C72.2556 69.6294 71.9939 69.9444 71.7054 70.2661L69.9498 72.4139H73.9555Z" stroke="#979797" stroke-width="0.5" stroke-linecap="round" stroke-linejoin="round"/>
<path d="M66.533 58.007C66.533 68.4949 62.6065 74.2813 55.8385 74.2813C49.8454 74.2813 45.7122 68.6499 45.6089 58.4719C45.6089 48.0873 50.1037 42.4559 56.3551 42.4559C62.8132 42.4042 66.533 48.1907 66.533 58.007ZM49.8454 58.4719C49.8454 66.4799 52.3253 71.0264 56.0968 71.0264C60.3333 71.0264 62.3482 66.0666 62.3482 58.2136C62.3482 50.6189 60.4366 45.6591 56.0968 45.6591C52.4803 45.6591 49.8454 50.1023 49.8454 58.4719Z" stroke="#979797" stroke-linecap="round" stroke-linejoin="round"/>
<path d="M57.9566 42.5591C64.4147 42.5591 68.1345 48.3455 68.1345 58.1618C68.1345 68.6497 63.6397 74.1262 56.8716 74.1262M57.6466 45.7623C54.0301 45.7623 51.3952 50.2054 51.3952 58.5751C51.3952 66.5831 53.5651 70.9746 57.3366 70.9746" stroke="#979797" stroke-width="0.5" stroke-linecap="round" stroke-linejoin="round"/>
</svg>
