<svg width="77" height="93" viewBox="0 0 77 93" fill="none" xmlns="http://www.w3.org/2000/svg">
<path d="M47.5668 44.2065C47.5668 44.2065 47.5668 44.3079 47.5668 44.4093C47.5668 44.5613 47.9722 44.7641 47.9722 44.7641V45.7777C47.9722 45.7777 47.9722 46.1325 47.9722 46.5886C47.9722 46.8421 47.4654 46.5886 47.212 47.0448C46.9079 47.5009 46.8065 48.616 46.6545 48.7173C46.4011 48.9201 41.9917 51.3022 40.9273 51.9104C39.8123 52.5185 39.4575 53.4815 39.4575 53.4815C39.4575 53.4815 38.9507 54.039 38.9507 54.2418C38.9507 54.4445 38.9507 55.0527 38.9507 55.2554C38.9507 55.4582 39.1534 55.8636 39.1534 55.8636C39.1534 55.8636 39.1534 57.6882 39.1534 57.9923C39.1534 58.2457 38.9507 58.4484 38.9507 58.4484C38.9507 58.4484 38.9507 59.4114 38.9507 59.6142C38.9507 59.8169 39.1027 59.9689 39.1027 59.9689C39.1027 59.9689 39.1027 60.1717 39.1027 60.4251C39.1027 60.6785 39.6602 61.2867 39.8123 61.3881C39.9643 61.4387 40.0657 62.0469 40.0657 62.0469V64.6824" stroke="#9E9E9E" stroke-linecap="round" stroke-linejoin="round"/>
<path d="M40.0657 68.1794V69.852C40.0657 70.6122 39.1534 71.3218 39.1534 71.4231C39.1534 71.5752 39.1534 72.082 39.1534 72.082L38.9507 72.6395C38.9507 72.6395 38.9507 73.4505 38.9507 73.8053C38.9507 74.16 39.1534 74.3628 39.1534 74.3628V76.2887L38.9507 77.049C38.9507 78.2147 39.8123 79.1776 40.9273 79.1776H59.3759C60.4402 79.1776 61.3525 78.2147 61.3525 77.049L61.1498 76.2887V74.3628C61.1498 74.3628 61.3525 74.1093 61.3525 73.7546C61.3525 73.3998 61.3525 72.5889 61.3525 72.5889L61.1498 72.0313C61.1498 72.0313 61.1498 71.4232 61.1498 71.3725C61.1498 71.3218 60.2375 70.5615 60.2375 69.8013V68.2301" stroke="#9E9E9E" stroke-linecap="round" stroke-linejoin="round"/>
<path d="M52.7366 44.1049C52.7366 44.1049 52.7366 44.2062 52.7366 44.3076C52.7366 44.4596 52.3312 44.6624 52.3312 44.6624V45.6253C52.3312 45.6253 52.3312 45.8788 52.3312 46.4363C52.3312 46.6897 53.0407 46.5883 53.2942 46.9938C53.5983 47.4499 53.4969 48.4129 53.6489 48.5143C54.0037 48.717 58.3118 51.0991 59.3761 51.7073C60.5418 52.3662 60.8459 53.2785 60.8459 53.2785C60.8459 53.2785 61.3527 53.836 61.3527 54.0387C61.3527 54.2414 61.3527 54.8496 61.3527 55.0524C61.3527 55.2551 61.15 55.7112 61.15 55.7112C61.15 55.7112 61.15 57.5358 61.15 57.8399C61.15 58.0933 61.3527 58.2961 61.3527 58.2961C61.3527 58.2961 61.3527 59.3097 61.3527 59.4618C61.3527 59.6138 61.2007 59.8166 61.2007 59.8166C61.2007 59.8166 61.2007 60.0193 61.2007 60.2727C61.2007 60.5261 60.6432 61.1343 60.4911 61.2357C60.3391 61.2864 60.2377 61.8946 60.2377 61.8946V64.5808" stroke="#9E9E9E" stroke-linecap="round" stroke-linejoin="round"/>
<path d="M39.3055 53.4811H60.7951" stroke="#9E9E9E" stroke-width="0.5" stroke-linecap="round" stroke-linejoin="round"/>
<path d="M47.9216 46.6901H52.2297" stroke="#9E9E9E" stroke-width="0.5" stroke-linecap="round" stroke-linejoin="round"/>
<path d="M46.8572 48.4635H53.6488" stroke="#9E9E9E" stroke-width="0.5" stroke-linecap="round" stroke-linejoin="round"/>
<path d="M39.3055 59.9181H61.1499" stroke="#9E9E9E" stroke-width="0.5" stroke-linecap="round" stroke-linejoin="round"/>
<path d="M39.3055 55.9645H61.1499" stroke="#9E9E9E" stroke-width="0.5" stroke-linecap="round" stroke-linejoin="round"/>
<path d="M39.3055 57.7894H61.1499" stroke="#9E9E9E" stroke-width="0.5" stroke-linecap="round" stroke-linejoin="round"/>
<path d="M39.1534 72.2848H61.1498" stroke="#9E9E9E" stroke-width="0.5" stroke-linecap="round" stroke-linejoin="round"/>
<path d="M39.3055 74.6163H61.1499" stroke="#9E9E9E" stroke-width="0.5" stroke-linecap="round" stroke-linejoin="round"/>
<path d="M39.3055 76.0354H61.1499" stroke="#9E9E9E" stroke-width="0.5" stroke-linecap="round" stroke-linejoin="round"/>
<path d="M72.4521 79.3295H27.8512V86.9319H72.4521V79.3295Z" stroke="#9E9E9E" stroke-linecap="round" stroke-linejoin="round"/>
<path d="M72.4521 64.6315H27.8512V68.1793H72.4521V64.6315Z" stroke="#9E9E9E" stroke-linecap="round" stroke-linejoin="round"/>
<path d="M72.4521 14.962H27.8512V19.0167H72.4521V14.962Z" stroke="#9E9E9E" stroke-linecap="round" stroke-linejoin="round"/>
<path d="M27.8512 42.0569V92H24.3034V47.7036M27.8512 27.1375V14.7085H24.3034V28.1921" stroke="#9E9E9E" stroke-linecap="round" stroke-linejoin="round"/>
<path d="M76 14.7085H72.4521V92H76V14.7085Z" stroke="#9E9E9E" stroke-linecap="round" stroke-linejoin="round"/>
<path d="M28.5101 82.2185H71.7933" stroke="#9E9E9E" stroke-width="0.5" stroke-linecap="round" stroke-linejoin="round"/>
<path d="M29.8785 66.507H70.4248" stroke="#9E9E9E" stroke-width="0.5" stroke-linecap="round" stroke-linejoin="round"/>
<path d="M53.6995 30.1667H46.6039V41.8238H53.6995V30.1667Z" stroke="#9E9E9E" stroke-linecap="round" stroke-linejoin="round"/>
<path d="M55.7268 28.1395H44.5766V30.1668H55.7268V28.1395Z" stroke="#9E9E9E" stroke-linecap="round" stroke-linejoin="round"/>
<path d="M53.1927 41.8245H47.1107V43.8518H53.1927V41.8245Z" stroke="#9E9E9E" stroke-linecap="round" stroke-linejoin="round"/>
<path d="M51.6722 19.0168H48.6312V28.1398H51.6722V19.0168Z" stroke="#9E9E9E" stroke-width="0.5" stroke-linecap="round" stroke-linejoin="round"/>
<path d="M53.953 0.770996H46.0971V14.9622H53.953V0.770996Z" stroke="#9E9E9E" stroke-linecap="round" stroke-linejoin="round"/>
<path d="M46.0971 11.4255H53.953" stroke="#9E9E9E" stroke-width="0.5" stroke-linecap="round" stroke-linejoin="round"/>
<path d="M36.0159 49.9797C38.2582 49.9797 40.052 48.1859 40.052 45.9437C40.052 43.7014 38.2582 41.9076 36.0159 41.9076L26.1499 41.9076" stroke="#03ABE0" stroke-width="2" stroke-linecap="round" stroke-linejoin="round"/>
<path d="M14.1913 28.7396C15.2377 28.7396 16.1346 29.487 16.1346 30.5334C16.1346 31.5798 15.2377 32.3273 14.1913 32.3273L2.43638 32.3273" stroke="#03ABE0" stroke-width="2" stroke-linecap="round" stroke-linejoin="round"/>
<path d="M28.2428 38.1705L6.26854 38.1705" stroke="#03ABE0" stroke-width="2" stroke-linecap="round" stroke-linejoin="round"/>
<path d="M22.5624 32.7891C22.5624 29.7994 24.9542 27.4076 27.9439 27.4076C30.9336 27.4076 33.3253 29.7994 33.3253 32.7891C33.3253 35.7788 30.9336 38.1705 27.9439 38.1705" stroke="#03ABE0" stroke-width="2" stroke-linecap="round" stroke-linejoin="round"/>
<path d="M13.4302 50.1024C13.4302 53.0921 15.822 55.4839 18.8117 55.4839C21.8014 55.4839 24.1931 53.0921 24.1931 50.1024C24.1931 47.1127 21.8014 44.721 18.8117 44.721L1.7704 44.721" stroke="#03ABE0" stroke-width="2" stroke-linecap="round" stroke-linejoin="round"/>
<path d="M37.0049 38.0724L41.5757 38.0724" stroke="#03ABE0" stroke-width="2" stroke-linecap="round" stroke-linejoin="round"/>
</svg>
