<svg width="70" height="93" viewBox="0 0 70 93" fill="none" xmlns="http://www.w3.org/2000/svg">
<path d="M20.0847 10C20.7323 11.0114 21.3078 12.0228 22.0273 13.0342C23.8979 15.8517 26.0562 18.3802 28.2866 20.9087C30.8047 23.7984 33.3228 26.6882 35.4092 29.8669C37.4957 33.0456 39.0785 36.5132 39.654 40.2699C40.9491 48.3611 38.6468 55.0797 32.0997 60.1368C28.2866 63.0987 23.8259 64.3991 19.0775 63.8934C11.4512 63.171 5.98334 59.2698 2.67382 52.3345C1.16296 49.1558 0.803231 45.7604 1.09101 42.2205C1.52269 36.9467 3.53718 32.2509 6.63085 28.0608C9.00507 24.8099 11.5232 21.7756 14.0413 18.6692C16.1997 15.9239 18.358 13.1787 20.0847 10.0722C20.0128 10.0722 20.0847 10.0722 20.0847 10Z" stroke="#9E9E9E" stroke-linecap="round" stroke-linejoin="round"/>
<path d="M20.2548 14C20.8739 14.8937 21.4156 15.8619 22.0347 16.7556C23.8145 19.2878 25.9039 21.5965 27.9159 23.9052C30.2375 26.5119 32.6364 29.1185 34.6484 32.023C36.6604 34.9276 38.1307 38.0555 38.6724 41.4814C39.9105 48.78 37.6664 54.9615 31.4756 59.5045C27.8385 62.1856 23.6598 63.3027 19.0941 62.9303C11.8973 62.26 6.71251 58.6852 3.61713 52.4293C2.14682 49.5248 1.83728 46.3968 2.06943 43.2688C2.45636 38.5024 4.39097 34.2573 7.33159 30.4591C9.57575 27.5545 11.9747 24.7245 14.2962 21.8944C16.3856 19.4367 18.3976 16.9045 20.0227 14.0745C20.1774 14.0745 20.1775 14 20.2548 14Z" stroke="#9E9E9E" stroke-width="0.5" stroke-linecap="round" stroke-linejoin="round"/>
<path d="M39.8637 0C40.0766 0.351366 40.2895 0.702733 40.5734 1.0541C41.212 2.03792 41.9927 2.95148 42.7733 3.79476C43.6958 4.84886 44.5474 5.83268 45.328 6.95705C46.1086 8.08143 46.6763 9.27607 46.8892 10.6113C47.315 13.4925 46.5343 15.8818 44.1925 17.6386C42.8442 18.6927 41.212 19.1143 39.5089 18.9738C36.7413 18.6927 34.8253 17.3575 33.6189 14.8979C33.0512 13.7736 32.9093 12.5789 33.0512 11.314C33.1931 9.41662 33.9028 7.80033 35.0382 6.32459C35.8898 5.20022 36.8123 4.07585 37.6639 3.02175C38.4445 2.1082 39.2251 1.12437 39.8637 0Z" fill="#03ABE0"/>
<path d="M31.5 37C32.3284 37 33 36.5523 33 36C33 35.4477 32.3284 35 31.5 35C30.6716 35 30 35.4477 30 36C30 36.5523 30.6716 37 31.5 37Z" stroke="#9E9E9E" stroke-width="0.5" stroke-linecap="round" stroke-linejoin="round"/>
<path d="M28.3536 31.6099C28.9359 31.2565 28.6161 29.6649 27.6393 28.055C26.6624 26.445 25.3984 25.4262 24.8161 25.7796C24.2338 26.1329 24.5536 27.7245 25.5304 29.3345C26.5073 30.9445 27.7712 31.9632 28.3536 31.6099Z" stroke="#9E9E9E" stroke-width="0.5" stroke-linecap="round" stroke-linejoin="round"/>
<path d="M13.8176 58.1145C14.2821 57.6163 13.8203 56.4306 12.786 55.466C11.7517 54.5015 10.5367 54.1233 10.0721 54.6215C9.60754 55.1196 10.0694 56.3054 11.1037 57.2699C12.1379 58.2345 13.353 58.6126 13.8176 58.1145Z" stroke="#9E9E9E" stroke-width="0.5" stroke-linecap="round" stroke-linejoin="round"/>
<path d="M17.7827 85.8953C17.7827 85.8953 15.6111 82.2758 20.437 76.1629C21.5631 73.1065 25.4238 75.5195 25.9064 75.1173C26.7108 74.4738 28.1585 71.4174 30.7324 69.0044C38.2931 62.0068 48.7493 63.6959 50.6797 59.5134C51.484 59.5134 53.0122 65.4654 54.0578 64.5002C55.9882 63.6154 57.1143 62.5698 59.7685 61.6046C63.951 60.1568 64.5945 60.3177 67.8922 59.1112C67.8922 59.1112 68.9379 61.6046 68.2944 64.9023C68.214 65.3045 68.0531 65.6262 67.8922 65.948C66.9271 67.3958 65.5597 68.4414 65.3988 69.3261C65.3184 70.05 67.8118 71.2565 67.7314 72.0608C66.6858 77.3694 62.5033 80.9084 44.0842 89.1126C31.4563 94.7428 22.6891 89.9169 19.311 87.343" stroke="#9E9E9E" stroke-linecap="round" stroke-linejoin="round"/>
<path d="M18.185 85.6541C13.8416 86.6192 10.4634 87.0214 6.9244 87.1018L5.31575 88.8714C5.31575 88.8714 14.3242 88.5496 19.0697 87.1018" stroke="#9E9E9E" stroke-linecap="round" stroke-linejoin="round"/>
<path d="M23.8153 84.2061C30.1695 88.0669 42.6365 84.4474 45.6929 83.4822C48.1863 82.7583 44.2452 81.1497 41.9126 80.4258C45.7734 80.104 53.7707 78.4181 56.6663 76.3268C59.9992 73.6604 61.6186 71.3216 61.6186 68.6826" stroke="#9E9E9E" stroke-width="0.5" stroke-linecap="round" stroke-linejoin="round"/>
<path d="M65.6402 63.9373C63.3077 65.385 55.5862 71.4979 49.0711 74.2326C45.7734 75.6 25.2631 83.1606 18.185 85.6541" stroke="#9E9E9E" stroke-linecap="round" stroke-linejoin="round"/>
<path d="M20.8392 84.6084C20.7587 83.4824 21.0805 82.3563 21.5631 81.3107C21.9652 80.2651 22.4478 79.2194 22.6891 78.0934" stroke="#9E9E9E" stroke-width="0.5" stroke-linecap="round" stroke-linejoin="round"/>
<path d="M28.963 81.6324C29.6065 77.6108 31.4564 73.8305 34.1911 70.774" stroke="#9E9E9E" stroke-width="0.5" stroke-linecap="round" stroke-linejoin="round"/>
<path d="M32.7432 80.2651C33.2258 77.7717 34.2714 75.3587 35.7192 73.2675" stroke="#9E9E9E" stroke-width="0.5" stroke-linecap="round" stroke-linejoin="round"/>
<path d="M46.3364 75.1978C46.6582 74.0717 46.9799 73.0261 47.4625 71.9805" stroke="#9E9E9E" stroke-width="0.5" stroke-linecap="round" stroke-linejoin="round"/>
<path d="M56.9535 69.7284C57.1948 69.2458 57.7581 66.8105 57.9994 66.3279" stroke="#9E9E9E" stroke-width="0.5" stroke-linecap="round" stroke-linejoin="round"/>
</svg>
