<svg width="169" height="75" viewBox="0 0 169 75" fill="none" xmlns="http://www.w3.org/2000/svg">
<path d="M-1.18384e-05 65.3551C-1.20562e-05 70.3376 1.11064 74.3768 2.48071 74.3768C3.85077 74.3768 4.96143 70.3376 4.96143 65.3551C4.96143 60.3725 3.85077 56.3333 2.48071 56.3333C1.11064 56.3333 -1.16206e-05 60.3725 -1.18384e-05 65.3551Z" fill="url(#paint0_linear_0_3045)"/>
<path d="M158.758 74.3768L158.758 56.3333L2.48071 56.3333L2.48071 74.3768L158.758 74.3768Z" fill="url(#paint1_linear_0_3045)"/>
<path d="M156.197 65.3551C156.197 70.3376 157.308 74.3768 158.678 74.3768C160.048 74.3768 161.158 70.3376 161.158 65.3551C161.158 60.3725 160.048 56.3333 158.678 56.3333C157.308 56.3333 156.197 60.3725 156.197 65.3551Z" fill="url(#paint2_linear_0_3045)"/>
<path d="M156.197 65.3551C156.197 70.3376 157.308 74.3768 158.678 74.3768C160.048 74.3768 161.158 70.3376 161.158 65.3551C161.158 60.3725 160.048 56.3333 158.678 56.3333C157.308 56.3333 156.197 60.3725 156.197 65.3551Z" fill="black" fill-opacity="0.2"/>
<path d="M7.6577 57.8046C9.05856 57.8046 10.1942 57.312 10.1942 56.7043C10.1942 56.0966 9.05856 55.6039 7.6577 55.6039C6.25684 55.6039 5.12122 56.0966 5.12122 56.7043C5.12122 57.312 6.25684 57.8046 7.6577 57.8046Z" fill="url(#paint3_linear_0_3045)"/>
<path d="M7.6577 57.8046C9.05856 57.8046 10.1942 57.312 10.1942 56.7043C10.1942 56.0966 9.05856 55.6039 7.6577 55.6039C6.25684 55.6039 5.12122 56.0966 5.12122 56.7043C5.12122 57.312 6.25684 57.8046 7.6577 57.8046Z" fill="#87A1A9" fill-opacity="0.5"/>
<path d="M10.2424 43.4846H5.12122V56.8158H10.2424V43.4846Z" fill="url(#paint4_linear_0_3045)"/>
<path d="M10.2424 43.4846H5.12122V56.8158H10.2424V43.4846Z" fill="#87A1A9" fill-opacity="0.5"/>
<path d="M7.6577 44.8775C9.05856 44.8775 10.1942 44.3848 10.1942 43.7771C10.1942 43.1694 9.05856 42.6768 7.6577 42.6768C6.25684 42.6768 5.12122 43.1694 5.12122 43.7771C5.12122 44.3848 6.25684 44.8775 7.6577 44.8775Z" fill="url(#paint5_linear_0_3045)"/>
<path d="M7.65769 44.8045C8.99842 44.8045 10.0853 44.3282 10.0853 43.7406C10.0853 43.1531 8.99842 42.6768 7.65769 42.6768C6.31697 42.6768 5.2301 43.1531 5.2301 43.7406C5.2301 44.3282 6.31697 44.8045 7.65769 44.8045Z" fill="url(#paint6_linear_0_3045)"/>
<path d="M7.65769 44.8045C8.99842 44.8045 10.0853 44.3282 10.0853 43.7406C10.0853 43.1531 8.99842 42.6768 7.65769 42.6768C6.31697 42.6768 5.2301 43.1531 5.2301 43.7406C5.2301 44.3282 6.31697 44.8045 7.65769 44.8045Z" fill="url(#paint7_linear_0_3045)"/>
<path d="M-1.18384e-05 37.1882C-1.20562e-05 42.1707 1.11064 46.2099 2.48071 46.2099C3.85077 46.2099 4.96143 42.1707 4.96143 37.1882C4.96143 32.2056 3.85077 28.1664 2.48071 28.1664C1.11064 28.1664 -1.16206e-05 32.2056 -1.18384e-05 37.1882Z" fill="url(#paint8_linear_0_3045)"/>
<path d="M158.758 46.2099L158.758 28.1664L2.48071 28.1664L2.48071 46.2099L158.758 46.2099Z" fill="url(#paint9_linear_0_3045)"/>
<path d="M156.197 37.1882C156.197 42.1707 157.308 46.2099 158.678 46.2099C160.048 46.2099 161.158 42.1707 161.158 37.1882C161.158 32.2056 160.048 28.1664 158.678 28.1664C157.308 28.1664 156.197 32.2056 156.197 37.1882Z" fill="url(#paint10_linear_0_3045)"/>
<path d="M156.197 37.1882C156.197 42.1707 157.308 46.2099 158.678 46.2099C160.048 46.2099 161.158 42.1707 161.158 37.1882C161.158 32.2056 160.048 28.1664 158.678 28.1664C157.308 28.1664 156.197 32.2056 156.197 37.1882Z" fill="black" fill-opacity="0.2"/>
<path d="M7.6577 30.4915C9.05856 30.4915 10.1942 29.9989 10.1942 29.3912C10.1942 28.7835 9.05856 28.2908 7.6577 28.2908C6.25684 28.2908 5.12122 28.7835 5.12122 29.3912C5.12122 29.9989 6.25684 30.4915 7.6577 30.4915Z" fill="url(#paint11_linear_0_3045)"/>
<path d="M7.6577 30.4915C9.05856 30.4915 10.1942 29.9989 10.1942 29.3912C10.1942 28.7835 9.05856 28.2908 7.6577 28.2908C6.25684 28.2908 5.12122 28.7835 5.12122 29.3912C5.12122 29.9989 6.25684 30.4915 7.6577 30.4915Z" fill="#87A1A9" fill-opacity="0.5"/>
<path d="M10.2424 16.1716H5.12122V29.5028H10.2424V16.1716Z" fill="url(#paint12_linear_0_3045)"/>
<path d="M10.2424 16.1716H5.12122V29.5028H10.2424V16.1716Z" fill="#87A1A9" fill-opacity="0.5"/>
<path d="M7.6577 17.5642C9.05856 17.5642 10.1942 17.0716 10.1942 16.4639C10.1942 15.8562 9.05856 15.3635 7.6577 15.3635C6.25684 15.3635 5.12122 15.8562 5.12122 16.4639C5.12122 17.0716 6.25684 17.5642 7.6577 17.5642Z" fill="url(#paint13_linear_0_3045)"/>
<path d="M7.65769 17.4912C8.99842 17.4912 10.0853 17.0149 10.0853 16.4274C10.0853 15.8398 8.99842 15.3635 7.65769 15.3635C6.31697 15.3635 5.2301 15.8398 5.2301 16.4274C5.2301 17.0149 6.31697 17.4912 7.65769 17.4912Z" fill="url(#paint14_linear_0_3045)"/>
<path d="M7.65769 17.4912C8.99842 17.4912 10.0853 17.0149 10.0853 16.4274C10.0853 15.8398 8.99842 15.3635 7.65769 15.3635C6.31697 15.3635 5.2301 15.8398 5.2301 16.4274C5.2301 17.0149 6.31697 17.4912 7.65769 17.4912Z" fill="url(#paint15_linear_0_3045)"/>
<path d="M1.86791e-05 9.02173C1.84613e-05 14.0043 1.11067 18.0435 2.48074 18.0435C3.8508 18.0435 4.96146 14.0043 4.96146 9.02173C4.96146 4.03917 3.8508 -4.85483e-08 2.48074 -1.08436e-07C1.11067 -1.68323e-07 1.88969e-05 4.03916 1.86791e-05 9.02173Z" fill="url(#paint16_linear_0_3045)"/>
<path d="M158.758 18.0435L158.758 0L2.48082 4.59474e-07L2.48082 18.0434L158.758 18.0435Z" fill="url(#paint17_linear_0_3045)"/>
<path d="M156.197 9.02173C156.197 14.0043 157.308 18.0435 158.678 18.0435C160.048 18.0435 161.158 14.0043 161.158 9.02173C161.158 4.03917 160.048 -4.85483e-08 158.678 -1.08436e-07C157.308 -1.68323e-07 156.197 4.03916 156.197 9.02173Z" fill="url(#paint18_linear_0_3045)"/>
<path d="M156.197 9.02173C156.197 14.0043 157.308 18.0435 158.678 18.0435C160.048 18.0435 161.158 14.0043 161.158 9.02173C161.158 4.03917 160.048 -4.85483e-08 158.678 -1.08436e-07C157.308 -1.68323e-07 156.197 4.03916 156.197 9.02173Z" fill="black" fill-opacity="0.2"/>
<path d="M23.8989 37.1731C23.8989 40.7321 24.6923 43.6172 25.6709 43.6172C26.6495 43.6172 27.4428 40.7321 27.4428 37.1731C27.4428 33.6141 26.6495 30.7289 25.6709 30.7289C24.6923 30.7289 23.8989 33.6141 23.8989 37.1731Z" fill="url(#paint19_linear_0_3045)"/>
<path d="M23.8989 37.1731C23.8989 40.7321 24.6923 43.6172 25.6709 43.6172C26.6495 43.6172 27.4428 40.7321 27.4428 37.1731C27.4428 33.6141 26.6495 30.7289 25.6709 30.7289C24.6923 30.7289 23.8989 33.6141 23.8989 37.1731Z" fill="black" fill-opacity="0.2"/>
<path d="M26.4309 43.6172L26.4309 30.7273L25.5102 30.7273L25.5102 43.6172L26.4309 43.6172Z" fill="url(#paint20_linear_0_3045)"/>
<path d="M26.4309 43.6172L26.4309 30.7273L25.5102 30.7273L25.5102 43.6172L26.4309 43.6172Z" fill="black" fill-opacity="0.2"/>
<path d="M24.7003 37.1731C24.7003 40.7321 25.4937 43.6173 26.4723 43.6173C27.4509 43.6173 28.2442 40.7321 28.2442 37.1731C28.2442 33.6141 27.4509 30.729 26.4723 30.729C25.4937 30.729 24.7003 33.6141 24.7003 37.1731Z" fill="url(#paint21_linear_0_3045)"/>
<path d="M51.9881 37.1731C51.9881 40.7321 52.7814 43.6172 53.76 43.6172C54.7387 43.6172 55.532 40.7321 55.532 37.1731C55.532 33.6141 54.7387 30.7289 53.76 30.7289C52.7814 30.7289 51.9881 33.6141 51.9881 37.1731Z" fill="url(#paint22_linear_0_3045)"/>
<path d="M51.9881 37.1731C51.9881 40.7321 52.7814 43.6172 53.76 43.6172C54.7387 43.6172 55.532 40.7321 55.532 37.1731C55.532 33.6141 54.7387 30.7289 53.76 30.7289C52.7814 30.7289 51.9881 33.6141 51.9881 37.1731Z" fill="black" fill-opacity="0.2"/>
<path d="M54.52 43.6172L54.52 30.7273L53.5993 30.7273L53.5993 43.6172L54.52 43.6172Z" fill="url(#paint23_linear_0_3045)"/>
<path d="M54.52 43.6172L54.52 30.7273L53.5993 30.7273L53.5993 43.6172L54.52 43.6172Z" fill="black" fill-opacity="0.2"/>
<path d="M52.7894 37.1731C52.7894 40.7321 53.5827 43.6173 54.5613 43.6173C55.54 43.6173 56.3333 40.7321 56.3333 37.1731C56.3333 33.6141 55.54 30.729 54.5613 30.729C53.5827 30.729 52.7894 33.6141 52.7894 37.1731Z" fill="url(#paint24_linear_0_3045)"/>
<path d="M80.1547 37.1731C80.1547 40.7321 80.9481 43.6172 81.9267 43.6172C82.9053 43.6172 83.6986 40.7321 83.6986 37.1731C83.6986 33.6141 82.9053 30.7289 81.9267 30.7289C80.9481 30.7289 80.1547 33.6141 80.1547 37.1731Z" fill="url(#paint25_linear_0_3045)"/>
<path d="M80.1547 37.1731C80.1547 40.7321 80.9481 43.6172 81.9267 43.6172C82.9053 43.6172 83.6986 40.7321 83.6986 37.1731C83.6986 33.6141 82.9053 30.7289 81.9267 30.7289C80.9481 30.7289 80.1547 33.6141 80.1547 37.1731Z" fill="black" fill-opacity="0.2"/>
<path d="M82.6867 43.6172L82.6867 30.7273L81.766 30.7273L81.766 43.6172L82.6867 43.6172Z" fill="url(#paint26_linear_0_3045)"/>
<path d="M82.6867 43.6172L82.6867 30.7273L81.766 30.7273L81.766 43.6172L82.6867 43.6172Z" fill="black" fill-opacity="0.2"/>
<path d="M80.9561 37.1731C80.9561 40.7321 81.7494 43.6173 82.728 43.6173C83.7067 43.6173 84.5 40.7321 84.5 37.1731C84.5 33.6141 83.7067 30.729 82.728 30.729C81.7494 30.729 80.9561 33.6141 80.9561 37.1731Z" fill="url(#paint27_linear_0_3045)"/>
<path d="M108.321 37.1731C108.321 40.7321 109.115 43.6172 110.093 43.6172C111.072 43.6172 111.865 40.7321 111.865 37.1731C111.865 33.6141 111.072 30.7289 110.093 30.7289C109.115 30.7289 108.321 33.6141 108.321 37.1731Z" fill="url(#paint28_linear_0_3045)"/>
<path d="M108.321 37.1731C108.321 40.7321 109.115 43.6172 110.093 43.6172C111.072 43.6172 111.865 40.7321 111.865 37.1731C111.865 33.6141 111.072 30.7289 110.093 30.7289C109.115 30.7289 108.321 33.6141 108.321 37.1731Z" fill="black" fill-opacity="0.2"/>
<path d="M110.853 43.6172L110.853 30.7273L109.933 30.7273L109.933 43.6172L110.853 43.6172Z" fill="url(#paint29_linear_0_3045)"/>
<path d="M110.853 43.6172L110.853 30.7273L109.933 30.7273L109.933 43.6172L110.853 43.6172Z" fill="black" fill-opacity="0.2"/>
<path d="M109.123 37.1731C109.123 40.7321 109.916 43.6173 110.895 43.6173C111.873 43.6173 112.667 40.7321 112.667 37.1731C112.667 33.6141 111.873 30.729 110.895 30.729C109.916 30.729 109.123 33.6141 109.123 37.1731Z" fill="url(#paint30_linear_0_3045)"/>
<path d="M136.488 37.1731C136.488 40.7321 137.281 43.6172 138.26 43.6172C139.239 43.6172 140.032 40.7321 140.032 37.1731C140.032 33.6141 139.239 30.7289 138.26 30.7289C137.281 30.7289 136.488 33.6141 136.488 37.1731Z" fill="url(#paint31_linear_0_3045)"/>
<path d="M136.488 37.1731C136.488 40.7321 137.281 43.6172 138.26 43.6172C139.239 43.6172 140.032 40.7321 140.032 37.1731C140.032 33.6141 139.239 30.7289 138.26 30.7289C137.281 30.7289 136.488 33.6141 136.488 37.1731Z" fill="black" fill-opacity="0.2"/>
<path d="M139.02 43.6172L139.02 30.7273L138.099 30.7273L138.099 43.6172L139.02 43.6172Z" fill="url(#paint32_linear_0_3045)"/>
<path d="M139.02 43.6172L139.02 30.7273L138.099 30.7273L138.099 43.6172L139.02 43.6172Z" fill="black" fill-opacity="0.2"/>
<path d="M137.289 37.1731C137.289 40.7321 138.083 43.6173 139.061 43.6173C140.04 43.6173 140.833 40.7321 140.833 37.1731C140.833 33.6141 140.04 30.729 139.061 30.729C138.083 30.729 137.289 33.6141 137.289 37.1731Z" fill="url(#paint33_linear_0_3045)"/>
<circle cx="59.6181" cy="37.4264" r="0.724212" fill="url(#paint34_radial_0_3045)"/>
<circle cx="77.5424" cy="36.5728" r="0.724212" fill="url(#paint35_radial_0_3045)"/>
<circle cx="67.2999" cy="39.9868" r="0.724212" fill="url(#paint36_radial_0_3045)"/>
<circle cx="62.1356" cy="34.3727" r="0.724212" fill="url(#paint37_radial_0_3045)"/>
<circle cx="55.2556" cy="39.4421" r="0.724212" fill="url(#paint38_radial_0_3045)"/>
<circle cx="99.7343" cy="34.0121" r="0.724212" fill="url(#paint39_radial_0_3045)"/>
<circle cx="93.7595" cy="36.5727" r="0.724212" fill="url(#paint40_radial_0_3045)"/>
<circle cx="90.3454" cy="38.2799" r="0.724212" fill="url(#paint41_radial_0_3045)"/>
<circle cx="84.1724" cy="34.3727" r="0.724212" fill="url(#paint42_radial_0_3045)"/>
<circle cx="97.1737" cy="39.9868" r="0.724212" fill="url(#paint43_radial_0_3045)"/>
<circle cx="107.606" cy="39.8042" r="0.724212" fill="url(#paint44_radial_0_3045)"/>
<circle cx="122.021" cy="38.2798" r="0.724212" fill="url(#paint45_radial_0_3045)"/>
<circle cx="116.805" cy="39.1333" r="0.724212" fill="url(#paint46_radial_0_3045)"/>
<circle cx="118.228" cy="33.7276" r="0.724212" fill="url(#paint47_radial_0_3045)"/>
<circle cx="104.002" cy="34.8656" r="0.724212" fill="url(#paint48_radial_0_3045)"/>
<circle cx="133.022" cy="34.8656" r="0.724212" fill="url(#paint49_radial_0_3045)"/>
<circle cx="135.401" cy="37.2444" r="0.542547" fill="url(#paint50_radial_0_3045)"/>
<circle cx="127.719" cy="38.9517" r="0.542547" fill="url(#paint51_radial_0_3045)"/>
<circle cx="124.305" cy="35.5374" r="0.542547" fill="url(#paint52_radial_0_3045)"/>
<circle cx="101.26" cy="38.9517" r="0.542547" fill="url(#paint53_radial_0_3045)"/>
<circle cx="36.6503" cy="34.8483" r="1.08632" fill="url(#paint54_radial_0_3045)"/>
<circle cx="19.6313" cy="38.4091" r="1.70707" fill="url(#paint55_radial_0_3045)"/>
<circle cx="12.803" cy="33.2879" r="1.70707" fill="url(#paint56_radial_0_3045)"/>
<circle cx="48.0307" cy="38.6419" r="1.08632" fill="url(#paint57_radial_0_3045)"/>
<circle cx="35.1329" cy="41.6767" r="1.08632" fill="url(#paint58_radial_0_3045)"/>
<circle cx="30.5807" cy="39.4006" r="1.08632" fill="url(#paint59_radial_0_3045)"/>
<circle cx="42.056" cy="33.5206" r="1.08632" fill="url(#paint60_radial_0_3045)"/>
<path d="M166.415 67.9227C167.816 67.9227 168.952 67.4089 168.952 66.7751C168.952 66.1413 167.816 65.6275 166.415 65.6275C165.014 65.6275 163.879 66.1413 163.879 66.7751C163.879 67.4089 165.014 67.9227 166.415 67.9227Z" fill="url(#paint61_linear_0_3045)"/>
<path d="M166.415 67.9227C167.816 67.9227 168.952 67.4089 168.952 66.7751C168.952 66.1413 167.816 65.6275 166.415 65.6275C165.014 65.6275 163.879 66.1413 163.879 66.7751C163.879 67.4089 165.014 67.9227 166.415 67.9227Z" fill="#87A1A9" fill-opacity="0.4"/>
<path d="M169 6.82831H163.879V66.5177H169V6.82831Z" fill="url(#paint62_linear_0_3045)"/>
<path d="M169 6.82831H163.879V66.5177H169V6.82831Z" fill="#87A1A9" fill-opacity="0.5"/>
<path d="M157.904 9.36479C157.904 10.7657 158.265 11.9013 158.711 11.9013C159.157 11.9013 159.518 10.7657 159.518 9.36479C159.518 7.96393 159.157 6.82831 158.711 6.82831C158.265 6.82831 157.904 7.96393 157.904 9.36479Z" fill="url(#paint63_linear_0_3045)"/>
<path d="M157.904 9.36479C157.904 10.7657 158.265 11.9013 158.711 11.9013C159.157 11.9013 159.518 10.7657 159.518 9.36479C159.518 7.96393 159.157 6.82831 158.711 6.82831C158.265 6.82831 157.904 7.96393 157.904 9.36479Z" fill="#87A1A9" fill-opacity="0.5"/>
<path d="M169 11.9495L169 6.82831L158.758 6.82831L158.758 11.9495L169 11.9495Z" fill="url(#paint64_linear_0_3045)"/>
<path d="M169 11.9495L169 6.82831L158.758 6.82831L158.758 11.9495L169 11.9495Z" fill="#87A1A9" fill-opacity="0.5"/>
<path d="M157.904 37.5314C157.904 38.9322 158.265 40.0678 158.711 40.0678C159.157 40.0678 159.518 38.9322 159.518 37.5314C159.518 36.1305 159.157 34.9949 158.711 34.9949C158.265 34.9949 157.904 36.1305 157.904 37.5314Z" fill="url(#paint65_linear_0_3045)"/>
<path d="M157.904 37.5314C157.904 38.9322 158.265 40.0678 158.711 40.0678C159.157 40.0678 159.518 38.9322 159.518 37.5314C159.518 36.1305 159.157 34.9949 158.711 34.9949C158.265 34.9949 157.904 36.1305 157.904 37.5314Z" fill="#87A1A9" fill-opacity="0.5"/>
<path d="M169 40.1161L169 34.9949L158.758 34.9949L158.758 40.1161L169 40.1161Z" fill="url(#paint66_linear_0_3045)"/>
<path d="M169 40.1161L169 34.9949L158.758 34.9949L158.758 40.1161L169 40.1161Z" fill="#87A1A9" fill-opacity="0.5"/>
<path d="M157.904 65.6981C157.904 67.099 158.265 68.2346 158.711 68.2346C159.157 68.2346 159.518 67.099 159.518 65.6981C159.518 64.2972 159.157 63.1616 158.711 63.1616C158.265 63.1616 157.904 64.2972 157.904 65.6981Z" fill="url(#paint67_linear_0_3045)"/>
<path d="M157.904 65.6981C157.904 67.099 158.265 68.2346 158.711 68.2346C159.157 68.2346 159.518 67.099 159.518 65.6981C159.518 64.2972 159.157 63.1616 158.711 63.1616C158.265 63.1616 157.904 64.2972 157.904 65.6981Z" fill="#87A1A9" fill-opacity="0.5"/>
<path d="M169 68.2828L169 63.1616L158.758 63.1616L158.758 68.2828L169 68.2828Z" fill="url(#paint68_linear_0_3045)"/>
<path d="M169 68.2828L169 63.1616L158.758 63.1616L158.758 68.2828L169 68.2828Z" fill="#87A1A9" fill-opacity="0.5"/>
<defs>
<linearGradient id="paint0_linear_0_3045" x1="2.47743" y1="56.3333" x2="2.47743" y2="74.3768" gradientUnits="userSpaceOnUse">
<stop stop-color="#BAE0FF"/>
<stop offset="0.3191" stop-color="white"/>
<stop offset="1" stop-color="#C1CCCF"/>
</linearGradient>
<linearGradient id="paint1_linear_0_3045" x1="7.7332" y1="56.3333" x2="7.7332" y2="74.3768" gradientUnits="userSpaceOnUse">
<stop stop-color="#BAE0FF"/>
<stop offset="0.3191" stop-color="white"/>
<stop offset="1" stop-color="#C1CCCF"/>
</linearGradient>
<linearGradient id="paint2_linear_0_3045" x1="163.255" y1="60.0563" x2="155" y2="69.6441" gradientUnits="userSpaceOnUse">
<stop stop-color="#BAE0FF"/>
<stop offset="0.3191" stop-color="#EBEBEB"/>
<stop offset="1" stop-color="#E1DFDB"/>
</linearGradient>
<linearGradient id="paint3_linear_0_3045" x1="5.12122" y1="56.7057" x2="10.1942" y2="56.7057" gradientUnits="userSpaceOnUse">
<stop stop-color="#BAE0FF"/>
<stop offset="0.3191" stop-color="white"/>
<stop offset="1" stop-color="#C1CCCF"/>
</linearGradient>
<linearGradient id="paint4_linear_0_3045" x1="5.12122" y1="48.2157" x2="10.2424" y2="48.2157" gradientUnits="userSpaceOnUse">
<stop stop-color="#BAE0FF"/>
<stop offset="0.3191" stop-color="white"/>
<stop offset="1" stop-color="#C1CCCF"/>
</linearGradient>
<linearGradient id="paint5_linear_0_3045" x1="6.16793" y1="41.7467" x2="9.78472" y2="43.7206" gradientUnits="userSpaceOnUse">
<stop stop-color="#BAE0FF"/>
<stop offset="0.3191" stop-color="#EBEBEB"/>
<stop offset="1" stop-color="#E1DFDB"/>
</linearGradient>
<linearGradient id="paint6_linear_0_3045" x1="6.23188" y1="41.7776" x2="9.70944" y2="43.6563" gradientUnits="userSpaceOnUse">
<stop stop-color="#BAE0FF"/>
<stop offset="0.3191" stop-color="#EBEBEB"/>
<stop offset="1" stop-color="#E1DFDB"/>
</linearGradient>
<linearGradient id="paint7_linear_0_3045" x1="7.65769" y1="41.4425" x2="7.6577" y2="46.7911" gradientUnits="userSpaceOnUse">
<stop stop-color="#5F97BC" stop-opacity="0.33"/>
<stop offset="0.708333" stop-color="#103F5F"/>
</linearGradient>
<linearGradient id="paint8_linear_0_3045" x1="2.47743" y1="28.1664" x2="2.47743" y2="46.2099" gradientUnits="userSpaceOnUse">
<stop stop-color="#BAE0FF"/>
<stop offset="0.3191" stop-color="white"/>
<stop offset="1" stop-color="#C1CCCF"/>
</linearGradient>
<linearGradient id="paint9_linear_0_3045" x1="7.7332" y1="28.1664" x2="7.7332" y2="46.2099" gradientUnits="userSpaceOnUse">
<stop stop-color="#BAE0FF"/>
<stop offset="0.3191" stop-color="white"/>
<stop offset="1" stop-color="#C1CCCF"/>
</linearGradient>
<linearGradient id="paint10_linear_0_3045" x1="163.255" y1="31.8894" x2="155" y2="41.4772" gradientUnits="userSpaceOnUse">
<stop stop-color="#BAE0FF"/>
<stop offset="0.3191" stop-color="#EBEBEB"/>
<stop offset="1" stop-color="#E1DFDB"/>
</linearGradient>
<linearGradient id="paint11_linear_0_3045" x1="5.12122" y1="29.3926" x2="10.1942" y2="29.3926" gradientUnits="userSpaceOnUse">
<stop stop-color="#BAE0FF"/>
<stop offset="0.3191" stop-color="white"/>
<stop offset="1" stop-color="#C1CCCF"/>
</linearGradient>
<linearGradient id="paint12_linear_0_3045" x1="5.12122" y1="20.9027" x2="10.2424" y2="20.9027" gradientUnits="userSpaceOnUse">
<stop stop-color="#BAE0FF"/>
<stop offset="0.3191" stop-color="white"/>
<stop offset="1" stop-color="#C1CCCF"/>
</linearGradient>
<linearGradient id="paint13_linear_0_3045" x1="6.16793" y1="14.4335" x2="9.78472" y2="16.4074" gradientUnits="userSpaceOnUse">
<stop stop-color="#BAE0FF"/>
<stop offset="0.3191" stop-color="#EBEBEB"/>
<stop offset="1" stop-color="#E1DFDB"/>
</linearGradient>
<linearGradient id="paint14_linear_0_3045" x1="6.23188" y1="14.4643" x2="9.70944" y2="16.3431" gradientUnits="userSpaceOnUse">
<stop stop-color="#BAE0FF"/>
<stop offset="0.3191" stop-color="#EBEBEB"/>
<stop offset="1" stop-color="#E1DFDB"/>
</linearGradient>
<linearGradient id="paint15_linear_0_3045" x1="7.65769" y1="14.1292" x2="7.6577" y2="19.4778" gradientUnits="userSpaceOnUse">
<stop stop-color="#5F97BC" stop-opacity="0.33"/>
<stop offset="0.708333" stop-color="#103F5F"/>
</linearGradient>
<linearGradient id="paint16_linear_0_3045" x1="2.47746" y1="-1.08579e-07" x2="2.47746" y2="18.0435" gradientUnits="userSpaceOnUse">
<stop stop-color="#BAE0FF"/>
<stop offset="0.3191" stop-color="white"/>
<stop offset="1" stop-color="#C1CCCF"/>
</linearGradient>
<linearGradient id="paint17_linear_0_3045" x1="7.73331" y1="-2.29879e-07" x2="7.73331" y2="18.0435" gradientUnits="userSpaceOnUse">
<stop stop-color="#BAE0FF"/>
<stop offset="0.3191" stop-color="white"/>
<stop offset="1" stop-color="#C1CCCF"/>
</linearGradient>
<linearGradient id="paint18_linear_0_3045" x1="163.255" y1="3.72295" x2="155" y2="13.3108" gradientUnits="userSpaceOnUse">
<stop stop-color="#BAE0FF"/>
<stop offset="0.3191" stop-color="#EBEBEB"/>
<stop offset="1" stop-color="#E1DFDB"/>
</linearGradient>
<linearGradient id="paint19_linear_0_3045" x1="25.6685" y1="30.7289" x2="25.6685" y2="43.6172" gradientUnits="userSpaceOnUse">
<stop stop-color="#BAE0FF"/>
<stop offset="0.3191" stop-color="white"/>
<stop offset="1" stop-color="#C1CCCF"/>
</linearGradient>
<linearGradient id="paint20_linear_0_3045" x1="25.5411" y1="30.7273" x2="25.5411" y2="43.6172" gradientUnits="userSpaceOnUse">
<stop stop-color="#BAE0FF"/>
<stop offset="0.3191" stop-color="white"/>
<stop offset="1" stop-color="#C1CCCF"/>
</linearGradient>
<linearGradient id="paint21_linear_0_3045" x1="29.7419" y1="33.3883" x2="23.8453" y2="40.2368" gradientUnits="userSpaceOnUse">
<stop stop-color="#E6E6E6"/>
<stop offset="0.458333" stop-color="#F5F5F5"/>
<stop offset="1" stop-color="#EFEFEF"/>
</linearGradient>
<linearGradient id="paint22_linear_0_3045" x1="53.7577" y1="30.7289" x2="53.7577" y2="43.6172" gradientUnits="userSpaceOnUse">
<stop stop-color="#BAE0FF"/>
<stop offset="0.3191" stop-color="white"/>
<stop offset="1" stop-color="#C1CCCF"/>
</linearGradient>
<linearGradient id="paint23_linear_0_3045" x1="53.6303" y1="30.7273" x2="53.6303" y2="43.6172" gradientUnits="userSpaceOnUse">
<stop stop-color="#BAE0FF"/>
<stop offset="0.3191" stop-color="white"/>
<stop offset="1" stop-color="#C1CCCF"/>
</linearGradient>
<linearGradient id="paint24_linear_0_3045" x1="57.831" y1="33.3883" x2="51.9343" y2="40.2368" gradientUnits="userSpaceOnUse">
<stop stop-color="#E6E6E6"/>
<stop offset="0.458333" stop-color="#F5F5F5"/>
<stop offset="1" stop-color="#EFEFEF"/>
</linearGradient>
<linearGradient id="paint25_linear_0_3045" x1="81.9243" y1="30.7289" x2="81.9243" y2="43.6172" gradientUnits="userSpaceOnUse">
<stop stop-color="#BAE0FF"/>
<stop offset="0.3191" stop-color="white"/>
<stop offset="1" stop-color="#C1CCCF"/>
</linearGradient>
<linearGradient id="paint26_linear_0_3045" x1="81.7969" y1="30.7273" x2="81.7969" y2="43.6172" gradientUnits="userSpaceOnUse">
<stop stop-color="#BAE0FF"/>
<stop offset="0.3191" stop-color="white"/>
<stop offset="1" stop-color="#C1CCCF"/>
</linearGradient>
<linearGradient id="paint27_linear_0_3045" x1="85.9977" y1="33.3883" x2="80.101" y2="40.2368" gradientUnits="userSpaceOnUse">
<stop stop-color="#E6E6E6"/>
<stop offset="0.458333" stop-color="#F5F5F5"/>
<stop offset="1" stop-color="#EFEFEF"/>
</linearGradient>
<linearGradient id="paint28_linear_0_3045" x1="110.091" y1="30.7289" x2="110.091" y2="43.6172" gradientUnits="userSpaceOnUse">
<stop stop-color="#BAE0FF"/>
<stop offset="0.3191" stop-color="white"/>
<stop offset="1" stop-color="#C1CCCF"/>
</linearGradient>
<linearGradient id="paint29_linear_0_3045" x1="109.964" y1="30.7273" x2="109.964" y2="43.6172" gradientUnits="userSpaceOnUse">
<stop stop-color="#BAE0FF"/>
<stop offset="0.3191" stop-color="white"/>
<stop offset="1" stop-color="#C1CCCF"/>
</linearGradient>
<linearGradient id="paint30_linear_0_3045" x1="114.164" y1="33.3883" x2="108.268" y2="40.2368" gradientUnits="userSpaceOnUse">
<stop stop-color="#E6E6E6"/>
<stop offset="0.458333" stop-color="#F5F5F5"/>
<stop offset="1" stop-color="#EFEFEF"/>
</linearGradient>
<linearGradient id="paint31_linear_0_3045" x1="138.258" y1="30.7289" x2="138.258" y2="43.6172" gradientUnits="userSpaceOnUse">
<stop stop-color="#BAE0FF"/>
<stop offset="0.3191" stop-color="white"/>
<stop offset="1" stop-color="#C1CCCF"/>
</linearGradient>
<linearGradient id="paint32_linear_0_3045" x1="138.13" y1="30.7273" x2="138.13" y2="43.6172" gradientUnits="userSpaceOnUse">
<stop stop-color="#BAE0FF"/>
<stop offset="0.3191" stop-color="white"/>
<stop offset="1" stop-color="#C1CCCF"/>
</linearGradient>
<linearGradient id="paint33_linear_0_3045" x1="142.331" y1="33.3883" x2="136.434" y2="40.2368" gradientUnits="userSpaceOnUse">
<stop stop-color="#E6E6E6"/>
<stop offset="0.458333" stop-color="#F5F5F5"/>
<stop offset="1" stop-color="#EFEFEF"/>
</linearGradient>
<radialGradient id="paint34_radial_0_3045" cx="0" cy="0" r="1" gradientUnits="userSpaceOnUse" gradientTransform="translate(59.3767 37.3057) rotate(45) scale(1.02419)">
<stop stop-color="#C4C4C4"/>
<stop offset="1" stop-color="#414040"/>
</radialGradient>
<radialGradient id="paint35_radial_0_3045" cx="0" cy="0" r="1" gradientUnits="userSpaceOnUse" gradientTransform="translate(77.301 36.4521) rotate(45) scale(1.02419)">
<stop stop-color="#C4C4C4"/>
<stop offset="1" stop-color="#414040"/>
</radialGradient>
<radialGradient id="paint36_radial_0_3045" cx="0" cy="0" r="1" gradientUnits="userSpaceOnUse" gradientTransform="translate(67.0585 39.8661) rotate(45) scale(1.02419)">
<stop stop-color="#C4C4C4"/>
<stop offset="1" stop-color="#414040"/>
</radialGradient>
<radialGradient id="paint37_radial_0_3045" cx="0" cy="0" r="1" gradientUnits="userSpaceOnUse" gradientTransform="translate(61.8942 34.2519) rotate(45) scale(1.02419)">
<stop stop-color="#C4C4C4"/>
<stop offset="1" stop-color="#414040"/>
</radialGradient>
<radialGradient id="paint38_radial_0_3045" cx="0" cy="0" r="1" gradientUnits="userSpaceOnUse" gradientTransform="translate(55.0142 39.3214) rotate(45) scale(1.02419)">
<stop stop-color="#C4C4C4"/>
<stop offset="1" stop-color="#414040"/>
</radialGradient>
<radialGradient id="paint39_radial_0_3045" cx="0" cy="0" r="1" gradientUnits="userSpaceOnUse" gradientTransform="translate(99.4929 33.8914) rotate(45) scale(1.02419)">
<stop stop-color="#B5BEDE"/>
<stop offset="1" stop-color="#6A78A8"/>
</radialGradient>
<radialGradient id="paint40_radial_0_3045" cx="0" cy="0" r="1" gradientUnits="userSpaceOnUse" gradientTransform="translate(93.5181 36.452) rotate(45) scale(1.02419)">
<stop stop-color="#B5BEDE"/>
<stop offset="1" stop-color="#6A78A8"/>
</radialGradient>
<radialGradient id="paint41_radial_0_3045" cx="0" cy="0" r="1" gradientUnits="userSpaceOnUse" gradientTransform="translate(90.104 38.1592) rotate(45) scale(1.02419)">
<stop stop-color="#B5BEDE"/>
<stop offset="1" stop-color="#6A78A8"/>
</radialGradient>
<radialGradient id="paint42_radial_0_3045" cx="0" cy="0" r="1" gradientUnits="userSpaceOnUse" gradientTransform="translate(83.931 34.2519) rotate(45) scale(1.02419)">
<stop stop-color="#B5BEDE"/>
<stop offset="1" stop-color="#6A78A8"/>
</radialGradient>
<radialGradient id="paint43_radial_0_3045" cx="0" cy="0" r="1" gradientUnits="userSpaceOnUse" gradientTransform="translate(96.9323 39.8661) rotate(45) scale(1.02419)">
<stop stop-color="#B5BEDE"/>
<stop offset="1" stop-color="#6A78A8"/>
</radialGradient>
<radialGradient id="paint44_radial_0_3045" cx="0" cy="0" r="1" gradientUnits="userSpaceOnUse" gradientTransform="translate(107.364 39.6835) rotate(45) scale(1.02419)">
<stop stop-color="white"/>
<stop offset="1" stop-color="#CBCBCB"/>
</radialGradient>
<radialGradient id="paint45_radial_0_3045" cx="0" cy="0" r="1" gradientUnits="userSpaceOnUse" gradientTransform="translate(121.78 38.1591) rotate(45) scale(1.02419)">
<stop stop-color="white"/>
<stop offset="1" stop-color="#CBCBCB"/>
</radialGradient>
<radialGradient id="paint46_radial_0_3045" cx="0" cy="0" r="1" gradientUnits="userSpaceOnUse" gradientTransform="translate(116.564 39.0126) rotate(45) scale(1.02419)">
<stop stop-color="white"/>
<stop offset="1" stop-color="#CBCBCB"/>
</radialGradient>
<radialGradient id="paint47_radial_0_3045" cx="0" cy="0" r="1" gradientUnits="userSpaceOnUse" gradientTransform="translate(117.986 33.6069) rotate(45) scale(1.02419)">
<stop stop-color="white"/>
<stop offset="1" stop-color="#CBCBCB"/>
</radialGradient>
<radialGradient id="paint48_radial_0_3045" cx="0" cy="0" r="1" gradientUnits="userSpaceOnUse" gradientTransform="translate(103.761 34.7449) rotate(45) scale(1.02419)">
<stop stop-color="white"/>
<stop offset="1" stop-color="#CBCBCB"/>
</radialGradient>
<radialGradient id="paint49_radial_0_3045" cx="0" cy="0" r="1" gradientUnits="userSpaceOnUse" gradientTransform="translate(132.781 34.7449) rotate(45) scale(1.02419)">
<stop stop-color="white"/>
<stop offset="1" stop-color="#CBCBCB"/>
</radialGradient>
<radialGradient id="paint50_radial_0_3045" cx="0" cy="0" r="1" gradientUnits="userSpaceOnUse" gradientTransform="translate(135.22 37.154) rotate(45) scale(0.767278)">
<stop stop-color="#DDDDDD"/>
<stop offset="1" stop-color="#8E8E8E"/>
</radialGradient>
<radialGradient id="paint51_radial_0_3045" cx="0" cy="0" r="1" gradientUnits="userSpaceOnUse" gradientTransform="translate(127.538 38.8613) rotate(45) scale(0.767278)">
<stop stop-color="#DDDDDD"/>
<stop offset="1" stop-color="#8E8E8E"/>
</radialGradient>
<radialGradient id="paint52_radial_0_3045" cx="0" cy="0" r="1" gradientUnits="userSpaceOnUse" gradientTransform="translate(124.124 35.447) rotate(45) scale(0.767278)">
<stop stop-color="#DDDDDD"/>
<stop offset="1" stop-color="#8E8E8E"/>
</radialGradient>
<radialGradient id="paint53_radial_0_3045" cx="0" cy="0" r="1" gradientUnits="userSpaceOnUse" gradientTransform="translate(101.079 38.8613) rotate(45) scale(0.767278)">
<stop stop-color="#DDDDDD"/>
<stop offset="1" stop-color="#8E8E8E"/>
</radialGradient>
<radialGradient id="paint54_radial_0_3045" cx="0" cy="0" r="1" gradientUnits="userSpaceOnUse" gradientTransform="translate(36.2882 34.6672) rotate(45) scale(1.53629)">
<stop stop-color="#C4C4C4"/>
<stop offset="1" stop-color="#414040"/>
</radialGradient>
<radialGradient id="paint55_radial_0_3045" cx="0" cy="0" r="1" gradientUnits="userSpaceOnUse" gradientTransform="translate(19.0623 38.1246) rotate(45) scale(2.41416)">
<stop stop-color="#C4C4C4"/>
<stop offset="1" stop-color="#414040"/>
</radialGradient>
<radialGradient id="paint56_radial_0_3045" cx="0" cy="0" r="1" gradientUnits="userSpaceOnUse" gradientTransform="translate(12.234 33.0034) rotate(45) scale(2.41416)">
<stop stop-color="#C4C4C4"/>
<stop offset="1" stop-color="#414040"/>
</radialGradient>
<radialGradient id="paint57_radial_0_3045" cx="0" cy="0" r="1" gradientUnits="userSpaceOnUse" gradientTransform="translate(47.6686 38.4608) rotate(45) scale(1.53629)">
<stop stop-color="#C4C4C4"/>
<stop offset="1" stop-color="#414040"/>
</radialGradient>
<radialGradient id="paint58_radial_0_3045" cx="0" cy="0" r="1" gradientUnits="userSpaceOnUse" gradientTransform="translate(34.7708 41.4956) rotate(45) scale(1.53629)">
<stop stop-color="#C4C4C4"/>
<stop offset="1" stop-color="#414040"/>
</radialGradient>
<radialGradient id="paint59_radial_0_3045" cx="0" cy="0" r="1" gradientUnits="userSpaceOnUse" gradientTransform="translate(30.2186 39.2195) rotate(45) scale(1.53629)">
<stop stop-color="#C4C4C4"/>
<stop offset="1" stop-color="#414040"/>
</radialGradient>
<radialGradient id="paint60_radial_0_3045" cx="0" cy="0" r="1" gradientUnits="userSpaceOnUse" gradientTransform="translate(41.6939 33.3396) rotate(45) scale(1.53629)">
<stop stop-color="#C4C4C4"/>
<stop offset="1" stop-color="#414040"/>
</radialGradient>
<linearGradient id="paint61_linear_0_3045" x1="163.879" y1="66.7766" x2="168.952" y2="66.7766" gradientUnits="userSpaceOnUse">
<stop stop-color="#BAE0FF"/>
<stop offset="0.3191" stop-color="white"/>
<stop offset="1" stop-color="#C1CCCF"/>
</linearGradient>
<linearGradient id="paint62_linear_0_3045" x1="163.879" y1="11.7625" x2="169" y2="11.7625" gradientUnits="userSpaceOnUse">
<stop stop-color="#BAE0FF"/>
<stop offset="0.3191" stop-color="white"/>
<stop offset="1" stop-color="#C1CCCF"/>
</linearGradient>
<linearGradient id="paint63_linear_0_3045" x1="158.71" y1="6.82831" x2="158.71" y2="11.9013" gradientUnits="userSpaceOnUse">
<stop stop-color="#BAE0FF"/>
<stop offset="0.3191" stop-color="white"/>
<stop offset="1" stop-color="#C1CCCF"/>
</linearGradient>
<linearGradient id="paint64_linear_0_3045" x1="165.365" y1="6.82831" x2="165.365" y2="11.9495" gradientUnits="userSpaceOnUse">
<stop stop-color="#BAE0FF"/>
<stop offset="0.3191" stop-color="white"/>
<stop offset="1" stop-color="#C1CCCF"/>
</linearGradient>
<linearGradient id="paint65_linear_0_3045" x1="158.71" y1="34.9949" x2="158.71" y2="40.0678" gradientUnits="userSpaceOnUse">
<stop stop-color="#BAE0FF"/>
<stop offset="0.3191" stop-color="white"/>
<stop offset="1" stop-color="#C1CCCF"/>
</linearGradient>
<linearGradient id="paint66_linear_0_3045" x1="165.365" y1="34.9949" x2="165.365" y2="40.1161" gradientUnits="userSpaceOnUse">
<stop stop-color="#BAE0FF"/>
<stop offset="0.3191" stop-color="white"/>
<stop offset="1" stop-color="#C1CCCF"/>
</linearGradient>
<linearGradient id="paint67_linear_0_3045" x1="158.71" y1="63.1616" x2="158.71" y2="68.2346" gradientUnits="userSpaceOnUse">
<stop stop-color="#BAE0FF"/>
<stop offset="0.3191" stop-color="white"/>
<stop offset="1" stop-color="#C1CCCF"/>
</linearGradient>
<linearGradient id="paint68_linear_0_3045" x1="165.365" y1="63.1616" x2="165.365" y2="68.2828" gradientUnits="userSpaceOnUse">
<stop stop-color="#BAE0FF"/>
<stop offset="0.3191" stop-color="white"/>
<stop offset="1" stop-color="#C1CCCF"/>
</linearGradient>
</defs>
</svg>
