<svg width="92" height="104" viewBox="0 0 92 104" fill="none" xmlns="http://www.w3.org/2000/svg">
<path d="M0.806865 33.917C0.806864 36.6631 1.41901 38.8894 2.17413 38.8894C2.92925 38.8894 3.5414 36.6631 3.5414 33.917C3.5414 31.1708 2.92925 28.9446 2.17413 28.9446C1.41901 28.9446 0.806865 31.1708 0.806865 33.917Z" fill="url(#paint0_linear_0_3133)"/>
<path d="M0.897554 33.9169C0.897554 36.5452 1.4894 38.6759 2.21948 38.6759C2.94956 38.6759 3.5414 36.5452 3.5414 33.9169C3.5414 31.2887 2.94956 29.158 2.21948 29.158C1.4894 29.158 0.897554 31.2887 0.897554 33.9169Z" fill="url(#paint1_linear_0_3133)"/>
<path d="M0.897554 33.9169C0.897554 36.5452 1.4894 38.6759 2.21948 38.6759C2.94956 38.6759 3.5414 36.5452 3.5414 33.9169C3.5414 31.2887 2.94956 29.158 2.21948 29.158C1.4894 29.158 0.897554 31.2887 0.897554 33.9169Z" fill="url(#paint2_linear_0_3133)"/>
<path d="M0.522951 33.9679C0.522951 38.6229 1.37782 42.3965 2.43235 42.3965C3.48689 42.3965 4.34176 38.6229 4.34176 33.9679C4.34176 29.313 3.48689 25.5394 2.43235 25.5394C1.37782 25.5394 0.522951 29.313 0.522951 33.9679Z" fill="url(#paint3_linear_0_3133)"/>
<path d="M0.522951 33.9679C0.522951 38.6229 1.37782 42.3965 2.43235 42.3965C3.48689 42.3965 4.34176 38.6229 4.34176 33.9679C4.34176 29.313 3.48689 25.5394 2.43235 25.5394C1.37782 25.5394 0.522951 29.313 0.522951 33.9679Z" fill="#87A1A9" fill-opacity="0.4"/>
<path d="M5.24359 42.3965L5.24359 25.5394L2.43238 25.5394L2.43238 42.3965L5.24359 42.3965Z" fill="url(#paint4_linear_0_3133)"/>
<path d="M5.24359 42.3965L5.24359 25.5394L2.43238 25.5394L2.43238 42.3965L5.24359 42.3965Z" fill="#87A1A9" fill-opacity="0.4"/>
<path d="M2.91916 33.8825C2.91916 38.4903 3.80335 42.2256 4.89405 42.2256C5.98476 42.2256 6.86895 38.4903 6.86895 33.8825C6.86895 29.2747 5.98476 25.5394 4.89406 25.5394C3.80335 25.5394 2.91916 29.2747 2.91916 33.8825Z" fill="url(#paint5_linear_0_3133)"/>
<path d="M3.05015 33.8825C3.05015 38.2924 3.90502 41.8674 4.95956 41.8674C6.01409 41.8674 6.86896 38.2924 6.86896 33.8825C6.86896 29.4725 6.01409 25.8975 4.95956 25.8975C3.90502 25.8975 3.05015 29.4725 3.05015 33.8825Z" fill="url(#paint6_linear_0_3133)"/>
<path d="M45.065 103.86C61.6567 103.86 75.1068 100.996 75.1068 97.463C75.1068 93.9301 61.6567 91.0662 45.065 91.0662C28.4734 91.0662 15.0233 93.9301 15.0233 97.463C15.0233 100.996 28.4734 103.86 45.065 103.86Z" fill="url(#paint7_linear_0_3133)"/>
<path d="M45.065 103.86C61.6567 103.86 75.1068 100.996 75.1068 97.463C75.1068 93.9301 61.6567 91.0662 45.065 91.0662C28.4734 91.0662 15.0233 93.9301 15.0233 97.463C15.0233 100.996 28.4734 103.86 45.065 103.86Z" fill="url(#paint8_linear_0_3133)" fill-opacity="0.2"/>
<path d="M3.92817 33.9679C3.92817 36.7422 4.52002 38.9912 5.25009 38.9912C5.98017 38.9912 6.57202 36.7422 6.57202 33.9679C6.57202 31.1936 5.98017 28.9446 5.25009 28.9446C4.52002 28.9446 3.92817 31.1936 3.92817 33.9679Z" fill="url(#paint9_linear_0_3133)"/>
<path d="M3.92817 33.9679C3.92817 36.7422 4.52002 38.9912 5.25009 38.9912C5.98017 38.9912 6.57202 36.7422 6.57202 33.9679C6.57202 31.1936 5.98017 28.9446 5.25009 28.9446C4.52002 28.9446 3.92817 31.1936 3.92817 33.9679Z" fill="#87A1A9" fill-opacity="0.4"/>
<path d="M24.5502 38.9912L24.5502 28.9446L5.2501 28.9446L5.2501 38.9912L24.5502 38.9912Z" fill="url(#paint10_linear_0_3133)"/>
<path d="M24.5502 38.9912L24.5502 28.9446L5.2501 28.9446L5.2501 38.9912L24.5502 38.9912Z" fill="#87A1A9" fill-opacity="0.4"/>
<path d="M22.9409 33.917C22.9409 36.6631 23.5531 38.8894 24.3082 38.8894C25.0633 38.8894 25.6755 36.6631 25.6755 33.917C25.6755 31.1708 25.0633 28.9446 24.3082 28.9446C23.5531 28.9446 22.9409 31.1708 22.9409 33.917Z" fill="url(#paint11_linear_0_3133)"/>
<path d="M23.0316 33.9169C23.0316 36.5452 23.6235 38.6759 24.3535 38.6759C25.0836 38.6759 25.6755 36.5452 25.6755 33.9169C25.6755 31.2887 25.0836 29.158 24.3535 29.158C23.6235 29.158 23.0316 31.2887 23.0316 33.9169Z" fill="url(#paint12_linear_0_3133)"/>
<path d="M23.0316 33.9169C23.0316 36.5452 23.6235 38.6759 24.3535 38.6759C25.0836 38.6759 25.6755 36.5452 25.6755 33.9169C25.6755 31.2887 25.0836 29.158 24.3535 29.158C23.6235 29.158 23.0316 31.2887 23.0316 33.9169Z" fill="url(#paint13_linear_0_3133)"/>
<path d="M73.4546 97.2751H16.6756C13.7841 97.2751 11.4558 94.9422 11.4558 92.0449V23.1105C11.4558 19.3854 14.46 16.3751 18.1777 16.3751H71.9149C75.6326 16.3751 78.6368 19.3854 78.6368 23.1105V92.0449C78.6743 94.9422 76.3461 97.2751 73.4546 97.2751Z" fill="url(#paint14_linear_0_3133)"/>
<path d="M45.0651 22.2073C60.4123 22.2073 72.8537 19.6803 72.8537 16.5631C72.8537 13.4459 60.4123 7.66187 45.0651 7.66187C29.7178 7.66187 17.2764 13.4459 17.2764 16.5631C17.2764 19.6803 29.7178 22.2073 45.0651 22.2073Z" fill="url(#paint15_linear_0_3133)"/>
<path d="M45.065 10.7452C46.903 10.7452 48.3929 10.3355 48.3929 9.83017C48.3929 9.32479 46.903 8.9151 45.065 8.9151C43.2271 8.9151 41.7372 9.32479 41.7372 9.83017C41.7372 10.3355 43.2271 10.7452 45.065 10.7452Z" fill="url(#paint16_linear_0_3133)"/>
<path d="M48.3929 5.95276H41.7372V9.83016H48.3929V5.95276Z" fill="url(#paint17_linear_0_3133)"/>
<path d="M45.065 6.86779C46.903 6.86779 48.3929 6.4581 48.3929 5.95273C48.3929 5.44735 46.903 5.03766 45.065 5.03766C43.2271 5.03766 41.7372 5.44735 41.7372 5.95273C41.7372 6.4581 43.2271 6.86779 45.065 6.86779Z" fill="url(#paint18_linear_0_3133)"/>
<path d="M45.0651 6.65209C46.7003 6.65209 48.0258 6.2876 48.0258 5.83798C48.0258 5.38836 46.7003 5.02386 45.0651 5.02386C43.4299 5.02386 42.1044 5.38836 42.1044 5.83798C42.1044 6.2876 43.4299 6.65209 45.0651 6.65209Z" fill="url(#paint19_linear_0_3133)"/>
<path d="M45.0651 6.65209C46.7003 6.65209 48.0258 6.2876 48.0258 5.83798C48.0258 5.38836 46.7003 5.02386 45.0651 5.02386C43.4299 5.02386 42.1044 5.38836 42.1044 5.83798C42.1044 6.2876 43.4299 6.65209 45.0651 6.65209Z" fill="#87A1A9" fill-opacity="0.4"/>
<path d="M48.0258 0.814148H42.1044V5.82467H48.0258V0.814148Z" fill="url(#paint20_linear_0_3133)"/>
<path d="M48.0258 0.814148H42.1044V5.82467H48.0258V0.814148Z" fill="#87A1A9" fill-opacity="0.4"/>
<path d="M45.0651 1.62829C46.7003 1.62829 48.0258 1.26379 48.0258 0.814173C48.0258 0.364551 46.7003 6.10352e-05 45.0651 6.10352e-05C43.4299 6.10352e-05 42.1044 0.364551 42.1044 0.814173C42.1044 1.26379 43.4299 1.62829 45.0651 1.62829Z" fill="url(#paint21_linear_0_3133)"/>
<path d="M45.0651 1.57429C46.63 1.57429 47.8987 1.22189 47.8987 0.787174C47.8987 0.352464 46.63 6.10352e-05 45.0651 6.10352e-05C43.5001 6.10352e-05 42.2315 0.352464 42.2315 0.787174C42.2315 1.22189 43.5001 1.57429 45.0651 1.57429Z" fill="url(#paint22_linear_0_3133)"/>
<path d="M45.0651 1.57429C46.63 1.57429 47.8987 1.22189 47.8987 0.787174C47.8987 0.352464 46.63 6.10352e-05 45.0651 6.10352e-05C43.5001 6.10352e-05 42.2315 0.352464 42.2315 0.787174C42.2315 1.22189 43.5001 1.57429 45.0651 1.57429Z" fill="url(#paint23_linear_0_3133)"/>
<path d="M44.2795 83.8292C48.3598 83.8292 51.6677 82.9197 51.6677 81.7977C51.6677 80.6757 48.3598 79.7661 44.2795 79.7661C40.1991 79.7661 36.8912 80.6757 36.8912 81.7977C36.8912 82.9197 40.1991 83.8292 44.2795 83.8292Z" fill="url(#paint24_linear_0_3133)"/>
<path d="M44.2795 83.8292C48.3598 83.8292 51.6677 82.9197 51.6677 81.7977C51.6677 80.6757 48.3598 79.7661 44.2795 79.7661C40.1991 79.7661 36.8912 80.6757 36.8912 81.7977C36.8912 82.9197 40.1991 83.8292 44.2795 83.8292Z" fill="#87A1A9" fill-opacity="0.4"/>
<path d="M72.5636 41.2683H17.5667L17.5667 90.7656H72.5636L72.5636 41.2683Z" fill="url(#paint25_linear_0_3133)"/>
<path d="M45.0651 44.8394C60.2521 44.8394 72.5636 43.1606 72.5636 41.0896C72.5636 39.0187 60.2521 37.3398 45.0651 37.3398C29.8781 37.3398 17.5667 39.0187 17.5667 41.0896C17.5667 43.1606 29.8781 44.8394 45.0651 44.8394Z" fill="url(#paint26_linear_0_3133)"/>
<path d="M45.0651 44.8394C60.2521 44.8394 72.5636 43.1606 72.5636 41.0896C72.5636 39.0187 60.2521 37.3398 45.0651 37.3398C29.8781 37.3398 17.5667 39.0187 17.5667 41.0896C17.5667 43.1606 29.8781 44.8394 45.0651 44.8394Z" fill="white" fill-opacity="0.32"/>
<path d="M45.0652 96.2215C60.2521 96.2215 72.5636 93.8276 72.5636 90.8746C72.5636 87.9215 60.2521 85.5276 45.0652 85.5276C29.8782 85.5276 17.5667 87.9215 17.5667 90.8746C17.5667 93.8276 29.8782 96.2215 45.0652 96.2215Z" fill="url(#paint27_linear_0_3133)"/>
<path d="M75.4382 78.236C75.4382 81.0103 76.0301 83.2594 76.7601 83.2594C77.4902 83.2594 78.0821 81.0103 78.0821 78.236C78.0821 75.4618 77.4902 73.2127 76.7602 73.2127C76.0301 73.2127 75.4382 75.4618 75.4382 78.236Z" fill="url(#paint28_linear_0_3133)"/>
<path d="M75.4382 78.236C75.4382 81.0103 76.0301 83.2594 76.7601 83.2594C77.4902 83.2594 78.0821 81.0103 78.0821 78.236C78.0821 75.4618 77.4902 73.2127 76.7602 73.2127C76.0301 73.2127 75.4382 75.4618 75.4382 78.236Z" fill="#87A1A9" fill-opacity="0.4"/>
<path d="M87.5471 83.2594L87.5471 73.2127L76.7602 73.2127L76.7602 83.2594L87.5471 83.2594Z" fill="url(#paint29_linear_0_3133)"/>
<path d="M87.5471 83.2594L87.5471 73.2127L76.7602 73.2127L76.7602 83.2594L87.5471 83.2594Z" fill="#87A1A9" fill-opacity="0.4"/>
<path d="M85.9379 78.1851C85.9379 80.9313 86.55 83.1575 87.3051 83.1575C88.0603 83.1575 88.6724 80.9313 88.6724 78.1851C88.6724 75.439 88.0603 73.2127 87.3051 73.2127C86.55 73.2127 85.9379 75.439 85.9379 78.1851Z" fill="url(#paint30_linear_0_3133)"/>
<path d="M86.0286 78.185C86.0286 80.8133 86.6204 82.9439 87.3505 82.9439C88.0806 82.9439 88.6724 80.8133 88.6724 78.185C88.6724 75.5567 88.0806 73.4261 87.3505 73.4261C86.6204 73.4261 86.0286 75.5567 86.0286 78.185Z" fill="url(#paint31_linear_0_3133)"/>
<path d="M86.0286 78.185C86.0286 80.8133 86.6204 82.9439 87.3505 82.9439C88.0806 82.9439 88.6724 80.8133 88.6724 78.185C88.6724 75.5567 88.0806 73.4261 87.3505 73.4261C86.6204 73.4261 86.0286 75.5567 86.0286 78.185Z" fill="url(#paint32_linear_0_3133)"/>
<path d="M85.654 78.236C85.654 82.891 86.5088 86.6646 87.5634 86.6646C88.6179 86.6646 89.4728 82.891 89.4728 78.236C89.4728 73.5811 88.6179 69.8075 87.5634 69.8075C86.5088 69.8075 85.654 73.5811 85.654 78.236Z" fill="url(#paint33_linear_0_3133)"/>
<path d="M85.654 78.236C85.654 82.891 86.5088 86.6646 87.5634 86.6646C88.6179 86.6646 89.4728 82.891 89.4728 78.236C89.4728 73.5811 88.6179 69.8075 87.5634 69.8075C86.5088 69.8075 85.654 73.5811 85.654 78.236Z" fill="#87A1A9" fill-opacity="0.4"/>
<path d="M90.3746 86.6646L90.3746 69.8075L87.5634 69.8075L87.5634 86.6646L90.3746 86.6646Z" fill="url(#paint34_linear_0_3133)"/>
<path d="M90.3746 86.6646L90.3746 69.8075L87.5634 69.8075L87.5634 86.6646L90.3746 86.6646Z" fill="#87A1A9" fill-opacity="0.4"/>
<path d="M88.0502 78.1506C88.0502 82.7584 88.9344 86.4937 90.0251 86.4937C91.1158 86.4937 92 82.7584 92 78.1506C92 73.5428 91.1158 69.8075 90.0251 69.8075C88.9344 69.8075 88.0502 73.5428 88.0502 78.1506Z" fill="url(#paint35_linear_0_3133)"/>
<path d="M88.1812 78.1506C88.1812 82.5605 89.036 86.1355 90.0906 86.1355C91.1451 86.1355 92 82.5605 92 78.1506C92 73.7406 91.1451 70.1656 90.0906 70.1656C89.036 70.1656 88.1812 73.7406 88.1812 78.1506Z" fill="url(#paint36_linear_0_3133)"/>
<path d="M89.0592 78.3206C89.0592 80.6714 89.4403 82.5772 89.9105 82.5772C90.3807 82.5772 90.7618 80.6714 90.7618 78.3206C90.7618 75.9698 90.3807 74.0641 89.9105 74.0641C89.4403 74.0641 89.0592 75.9698 89.0592 78.3206Z" fill="url(#paint37_linear_0_3133)"/>
<path d="M89.0592 78.3206C89.0592 80.6714 89.4403 82.5772 89.9105 82.5772C90.3807 82.5772 90.7618 80.6714 90.7618 78.3206C90.7618 75.9698 90.3807 74.0641 89.9105 74.0641C89.4403 74.0641 89.0592 75.9698 89.0592 78.3206Z" fill="url(#paint38_linear_0_3133)"/>
<path d="M23.5083 25.0926C23.5083 25.7861 23.6563 26.3484 23.8388 26.3484C24.0213 26.3484 24.1693 25.7861 24.1693 25.0926C24.1693 24.399 24.0213 23.8367 23.8388 23.8367C23.6563 23.8367 23.5083 24.399 23.5083 25.0926Z" fill="url(#paint39_linear_0_3133)"/>
<path d="M23.5083 25.0926C23.5083 25.7861 23.6563 26.3484 23.8388 26.3484C24.0213 26.3484 24.1693 25.7861 24.1693 25.0926C24.1693 24.399 24.0213 23.8367 23.8388 23.8367C23.6563 23.8367 23.5083 24.399 23.5083 25.0926Z" fill="#87A1A9" fill-opacity="0.4"/>
<path d="M67.3508 26.3907L67.3508 23.8367L23.934 23.8367L23.934 26.3907L67.3508 26.3907Z" fill="url(#paint40_linear_0_3133)"/>
<path d="M67.3508 26.3907L67.3508 23.8367L23.934 23.8367L23.934 26.3907L67.3508 26.3907Z" fill="#87A1A9" fill-opacity="0.4"/>
<path d="M66.9251 25.0798C66.9251 25.7664 67.0782 26.3229 67.2669 26.3229C67.4557 26.3229 67.6088 25.7664 67.6088 25.0798C67.6088 24.3933 67.4557 23.8367 67.2669 23.8367C67.0782 23.8367 66.9251 24.3933 66.9251 25.0798Z" fill="url(#paint41_linear_0_3133)"/>
<path d="M36.7775 10.2267C38.0627 10.2267 39.1046 9.95247 39.1046 9.61424C39.1046 9.27602 38.0627 9.00183 36.7775 9.00183C35.4922 9.00183 34.4503 9.27602 34.4503 9.61424C34.4503 9.95247 35.4922 10.2267 36.7775 10.2267Z" fill="url(#paint42_linear_0_3133)"/>
<path d="M36.7775 10.2267C38.0627 10.2267 39.1046 9.95247 39.1046 9.61424C39.1046 9.27602 38.0627 9.00183 36.7775 9.00183C35.4922 9.00183 34.4503 9.27602 34.4503 9.61424C34.4503 9.95247 35.4922 10.2267 36.7775 10.2267Z" fill="#87A1A9" fill-opacity="0.4"/>
<path d="M39.1046 4.61688H34.4503V9.61421H39.1046V4.61688Z" fill="url(#paint43_linear_0_3133)"/>
<path d="M39.1046 4.61688H34.4503V9.61421H39.1046V4.61688Z" fill="#87A1A9" fill-opacity="0.4"/>
<path d="M36.7539 5.36242C38.0261 5.36242 39.0575 5.07883 39.0575 4.729C39.0575 4.37917 38.0261 4.09558 36.7539 4.09558C35.4816 4.09558 34.4503 4.37917 34.4503 4.729C34.4503 5.07883 35.4816 5.36242 36.7539 5.36242Z" fill="url(#paint44_linear_0_3133)"/>
<path d="M36.7539 5.32041C37.9715 5.32041 38.9586 5.04622 38.9586 4.70799C38.9586 4.36977 37.9715 4.09558 36.7539 4.09558C35.5363 4.09558 34.5492 4.36977 34.5492 4.70799C34.5492 5.04622 35.5363 5.32041 36.7539 5.32041Z" fill="url(#paint45_linear_0_3133)"/>
<path d="M36.7539 5.32041C37.9715 5.32041 38.9586 5.04622 38.9586 4.70799C38.9586 4.36977 37.9715 4.09558 36.7539 4.09558C35.5363 4.09558 34.5492 4.36977 34.5492 4.70799C34.5492 5.04622 35.5363 5.32041 36.7539 5.32041Z" fill="url(#paint46_linear_0_3133)"/>
<path d="M36.7775 5.49376C38.934 5.49376 40.6822 5.09773 40.6822 4.60919C40.6822 4.12065 38.934 3.72461 36.7775 3.72461C34.6209 3.72461 32.8727 4.12065 32.8727 4.60919C32.8727 5.09773 34.6209 5.49376 36.7775 5.49376Z" fill="url(#paint47_linear_0_3133)"/>
<path d="M36.7775 5.49376C38.934 5.49376 40.6822 5.09773 40.6822 4.60919C40.6822 4.12065 38.934 3.72461 36.7775 3.72461C34.6209 3.72461 32.8727 4.12065 32.8727 4.60919C32.8727 5.09773 34.6209 5.49376 36.7775 5.49376Z" fill="#87A1A9" fill-opacity="0.4"/>
<path d="M40.6822 3.30695H32.8727V4.60931H40.6822V3.30695Z" fill="url(#paint48_linear_0_3133)"/>
<path d="M40.6822 3.30695H32.8727V4.60931H40.6822V3.30695Z" fill="#87A1A9" fill-opacity="0.4"/>
<path d="M36.7379 4.38379C38.8725 4.38379 40.603 3.97417 40.603 3.46887C40.603 2.96358 38.8725 2.55396 36.7379 2.55396C34.6032 2.55396 32.8727 2.96358 32.8727 3.46887C32.8727 3.97417 34.6032 4.38379 36.7379 4.38379Z" fill="url(#paint49_linear_0_3133)"/>
<path d="M36.7379 4.32311C38.7809 4.32311 40.4371 3.92707 40.4371 3.43853C40.4371 2.94999 38.7809 2.55396 36.7379 2.55396C34.6948 2.55396 33.0386 2.94999 33.0386 3.43853C33.0386 3.92707 34.6948 4.32311 36.7379 4.32311Z" fill="url(#paint50_linear_0_3133)"/>
<path d="M53.3042 4.25653H52.4529V10.2157H53.3042V4.25653Z" fill="url(#paint51_linear_0_3133)"/>
<path d="M53.3042 4.25653H52.4529V10.2157H53.3042V4.25653Z" fill="#87A1A9" fill-opacity="0.4"/>
<path d="M52.8657 4.93585C53.5591 4.93585 54.1212 4.78128 54.1212 4.59061C54.1212 4.39993 53.5591 4.24536 52.8657 4.24536C52.1722 4.24536 51.6101 4.39993 51.6101 4.59061C51.6101 4.78128 52.1722 4.93585 52.8657 4.93585Z" fill="url(#paint52_linear_0_3133)"/>
<path d="M52.8657 4.91295C53.5293 4.91295 54.0673 4.76351 54.0673 4.57916C54.0673 4.39481 53.5293 4.24536 52.8657 4.24536C52.202 4.24536 51.664 4.39481 51.664 4.57916C51.664 4.76351 52.202 4.91295 52.8657 4.91295Z" fill="url(#paint53_linear_0_3133)"/>
<path d="M52.8657 4.91295C53.5293 4.91295 54.0673 4.76351 54.0673 4.57916C54.0673 4.39481 53.5293 4.24536 52.8657 4.24536C52.202 4.24536 51.664 4.39481 51.664 4.57916C51.664 4.76351 52.202 4.91295 52.8657 4.91295Z" fill="url(#paint54_linear_0_3133)"/>
<path d="M52.8785 5.00767C54.0539 5.00767 55.0068 4.79181 55.0068 4.52554C55.0068 4.25926 54.0539 4.0434 52.8785 4.0434C51.7031 4.0434 50.7502 4.25926 50.7502 4.52554C50.7502 4.79181 51.7031 5.00767 52.8785 5.00767Z" fill="url(#paint55_linear_0_3133)"/>
<path d="M52.8785 5.00767C54.0539 5.00767 55.0068 4.79181 55.0068 4.52554C55.0068 4.25926 54.0539 4.0434 52.8785 4.0434C51.7031 4.0434 50.7502 4.25926 50.7502 4.52554C50.7502 4.79181 51.7031 5.00767 52.8785 5.00767Z" fill="#87A1A9" fill-opacity="0.4"/>
<path d="M55.0068 3.81567H50.7502V4.52553H55.0068V3.81567Z" fill="url(#paint56_linear_0_3133)"/>
<path d="M55.0068 3.81567H50.7502V4.52553H55.0068V3.81567Z" fill="#87A1A9" fill-opacity="0.4"/>
<path d="M52.8569 4.40263C54.0204 4.40263 54.9637 4.17936 54.9637 3.90395C54.9637 3.62854 54.0204 3.40527 52.8569 3.40527C51.6934 3.40527 50.7502 3.62854 50.7502 3.90395C50.7502 4.17936 51.6934 4.40263 52.8569 4.40263Z" fill="url(#paint57_linear_0_3133)"/>
<path d="M52.8569 4.36949C53.9705 4.36949 54.8732 4.15363 54.8732 3.88735C54.8732 3.62107 53.9705 3.40521 52.8569 3.40521C51.7434 3.40521 50.8407 3.62107 50.8407 3.88735C50.8407 4.15363 51.7434 4.36949 52.8569 4.36949Z" fill="url(#paint58_linear_0_3133)"/>
<rect x="27.7649" y="26.3907" width="0.811714" height="13.621" fill="url(#paint59_linear_0_3133)"/>
<rect x="33.4469" y="26.3907" width="0.811714" height="13.621" fill="url(#paint60_linear_0_3133)"/>
<rect x="39.1289" y="26.3907" width="0.811714" height="13.621" fill="url(#paint61_linear_0_3133)"/>
<rect x="44.8109" y="26.3907" width="0.811714" height="13.621" fill="url(#paint62_linear_0_3133)"/>
<rect x="50.4929" y="26.3907" width="0.811714" height="13.621" fill="url(#paint63_linear_0_3133)"/>
<rect x="56.1749" y="26.3907" width="0.811714" height="13.621" fill="url(#paint64_linear_0_3133)"/>
<rect x="61.8569" y="26.3907" width="0.811714" height="13.621" fill="url(#paint65_linear_0_3133)"/>
<defs>
<linearGradient id="paint0_linear_0_3133" x1="4.69701" y1="30.9965" x2="0.147078" y2="36.2809" gradientUnits="userSpaceOnUse">
<stop stop-color="#BAE0FF"/>
<stop offset="0.3191" stop-color="#EBEBEB"/>
<stop offset="1" stop-color="#E1DFDB"/>
</linearGradient>
<linearGradient id="paint1_linear_0_3133" x1="4.65869" y1="31.1219" x2="0.310872" y2="36.2231" gradientUnits="userSpaceOnUse">
<stop stop-color="#BAE0FF"/>
<stop offset="0.3191" stop-color="#EBEBEB"/>
<stop offset="1" stop-color="#E1DFDB"/>
</linearGradient>
<linearGradient id="paint2_linear_0_3133" x1="5.0751" y1="33.9169" x2="-1.57093" y2="33.9169" gradientUnits="userSpaceOnUse">
<stop stop-color="#5F97BC" stop-opacity="0.33"/>
<stop offset="0.708333" stop-color="#103F5F"/>
</linearGradient>
<linearGradient id="paint3_linear_0_3133" x1="-9.86661" y1="25.5394" x2="-9.86661" y2="42.3965" gradientUnits="userSpaceOnUse">
<stop stop-color="#BAE0FF"/>
<stop offset="0.442708" stop-color="white"/>
<stop offset="1" stop-color="#C1CCCF"/>
</linearGradient>
<linearGradient id="paint4_linear_0_3133" x1="-4.49036" y1="25.5394" x2="-4.49036" y2="42.3965" gradientUnits="userSpaceOnUse">
<stop stop-color="#BAE0FF"/>
<stop offset="0.447917" stop-color="white"/>
<stop offset="1" stop-color="#C1CCCF"/>
</linearGradient>
<linearGradient id="paint5_linear_0_3133" x1="8.53814" y1="28.9823" x2="0.81822" y2="36.7008" gradientUnits="userSpaceOnUse">
<stop stop-color="#BAE0FF"/>
<stop offset="0.3191" stop-color="#EBEBEB"/>
<stop offset="1" stop-color="#E1DFDB"/>
</linearGradient>
<linearGradient id="paint6_linear_0_3133" x1="8.4828" y1="29.1926" x2="1.09466" y2="36.6548" gradientUnits="userSpaceOnUse">
<stop stop-color="#BAE0FF"/>
<stop offset="0.3191" stop-color="#EBEBEB"/>
<stop offset="1" stop-color="#E1DFDB"/>
</linearGradient>
<linearGradient id="paint7_linear_0_3133" x1="11.8377" y1="97.4659" x2="78.2924" y2="97.4659" gradientUnits="userSpaceOnUse">
<stop stop-color="#BAE0FF"/>
<stop offset="0.3191" stop-color="white"/>
<stop offset="1" stop-color="#C1CCCF"/>
</linearGradient>
<linearGradient id="paint8_linear_0_3133" x1="45.065" y1="109.589" x2="45.065" y2="99.6586" gradientUnits="userSpaceOnUse">
<stop/>
<stop offset="1" stop-opacity="0"/>
</linearGradient>
<linearGradient id="paint9_linear_0_3133" x1="5.24835" y1="28.9446" x2="5.24835" y2="38.9912" gradientUnits="userSpaceOnUse">
<stop stop-color="#BAE0FF"/>
<stop offset="0.442708" stop-color="white"/>
<stop offset="1" stop-color="#C1CCCF"/>
</linearGradient>
<linearGradient id="paint10_linear_0_3133" x1="17.8111" y1="28.9446" x2="17.8111" y2="38.9912" gradientUnits="userSpaceOnUse">
<stop stop-color="#BAE0FF"/>
<stop offset="0.447917" stop-color="white"/>
<stop offset="1" stop-color="#C1CCCF"/>
</linearGradient>
<linearGradient id="paint11_linear_0_3133" x1="26.8311" y1="30.9965" x2="22.2811" y2="36.2809" gradientUnits="userSpaceOnUse">
<stop stop-color="#BAE0FF"/>
<stop offset="0.3191" stop-color="#EBEBEB"/>
<stop offset="1" stop-color="#E1DFDB"/>
</linearGradient>
<linearGradient id="paint12_linear_0_3133" x1="26.7928" y1="31.1219" x2="22.4449" y2="36.2231" gradientUnits="userSpaceOnUse">
<stop stop-color="#BAE0FF"/>
<stop offset="0.3191" stop-color="#EBEBEB"/>
<stop offset="1" stop-color="#E1DFDB"/>
</linearGradient>
<linearGradient id="paint13_linear_0_3133" x1="27.2092" y1="33.9169" x2="20.5631" y2="33.9169" gradientUnits="userSpaceOnUse">
<stop stop-color="#5F97BC" stop-opacity="0.33"/>
<stop offset="0.708333" stop-color="#103F5F"/>
</linearGradient>
<linearGradient id="paint14_linear_0_3133" x1="11.4558" y1="56.8281" x2="78.6743" y2="56.8281" gradientUnits="userSpaceOnUse">
<stop stop-color="#BAE0FF"/>
<stop offset="0.3191" stop-color="white"/>
<stop offset="1" stop-color="#C1CCCF"/>
</linearGradient>
<linearGradient id="paint15_linear_0_3133" x1="17.2764" y1="16.566" x2="72.8537" y2="16.566" gradientUnits="userSpaceOnUse">
<stop stop-color="#BAE0FF"/>
<stop offset="0.3191" stop-color="#EBEBEB"/>
<stop offset="1" stop-color="#E1DFDB"/>
</linearGradient>
<linearGradient id="paint16_linear_0_3133" x1="41.7372" y1="9.83138" x2="48.3929" y2="9.83138" gradientUnits="userSpaceOnUse">
<stop stop-color="#BAE0FF"/>
<stop offset="0.3191" stop-color="white"/>
<stop offset="1" stop-color="#C1CCCF"/>
</linearGradient>
<linearGradient id="paint17_linear_0_3133" x1="41.7372" y1="7.89267" x2="48.3929" y2="7.89267" gradientUnits="userSpaceOnUse">
<stop stop-color="#BAE0FF"/>
<stop offset="0.3191" stop-color="white"/>
<stop offset="1" stop-color="#C1CCCF"/>
</linearGradient>
<linearGradient id="paint18_linear_0_3133" x1="43.1105" y1="4.26424" x2="46.6472" y2="7.30937" gradientUnits="userSpaceOnUse">
<stop stop-color="#BAE0FF"/>
<stop offset="0.3191" stop-color="#EBEBEB"/>
<stop offset="1" stop-color="#E1DFDB"/>
</linearGradient>
<linearGradient id="paint19_linear_0_3133" x1="42.1044" y1="5.83905" x2="48.0258" y2="5.83905" gradientUnits="userSpaceOnUse">
<stop stop-color="#BAE0FF"/>
<stop offset="0.3191" stop-color="white"/>
<stop offset="1" stop-color="#C1CCCF"/>
</linearGradient>
<linearGradient id="paint20_linear_0_3133" x1="42.1044" y1="2.54004" x2="48.0258" y2="2.54004" gradientUnits="userSpaceOnUse">
<stop stop-color="#BAE0FF"/>
<stop offset="0.3191" stop-color="white"/>
<stop offset="1" stop-color="#C1CCCF"/>
</linearGradient>
<linearGradient id="paint21_linear_0_3133" x1="43.3262" y1="-0.688029" x2="46.4727" y2="2.02114" gradientUnits="userSpaceOnUse">
<stop stop-color="#BAE0FF"/>
<stop offset="0.3191" stop-color="#EBEBEB"/>
<stop offset="1" stop-color="#E1DFDB"/>
</linearGradient>
<linearGradient id="paint22_linear_0_3133" x1="43.4008" y1="-0.66521" x2="46.4382" y2="1.92362" gradientUnits="userSpaceOnUse">
<stop stop-color="#BAE0FF"/>
<stop offset="0.3191" stop-color="#EBEBEB"/>
<stop offset="1" stop-color="#E1DFDB"/>
</linearGradient>
<linearGradient id="paint23_linear_0_3133" x1="45.0651" y1="-0.913151" x2="45.0651" y2="3.0441" gradientUnits="userSpaceOnUse">
<stop stop-color="#5F97BC" stop-opacity="0.33"/>
<stop offset="0.708333" stop-color="#103F5F"/>
</linearGradient>
<linearGradient id="paint24_linear_0_3133" x1="36.8912" y1="81.8004" x2="51.6677" y2="81.8004" gradientUnits="userSpaceOnUse">
<stop stop-color="#BAE0FF"/>
<stop offset="0.3191" stop-color="white"/>
<stop offset="1" stop-color="#C1CCCF"/>
</linearGradient>
<linearGradient id="paint25_linear_0_3133" x1="17.5667" y1="-32.7148" x2="72.5636" y2="-32.7148" gradientUnits="userSpaceOnUse">
<stop stop-color="#2E5DA4"/>
<stop offset="0.3191" stop-color="#69B2DB"/>
<stop offset="1" stop-color="#285A95"/>
</linearGradient>
<linearGradient id="paint26_linear_0_3133" x1="17.5667" y1="26.1303" x2="72.5636" y2="26.1303" gradientUnits="userSpaceOnUse">
<stop stop-color="#3C72B1"/>
<stop offset="0.3191" stop-color="#69B2DB"/>
<stop offset="1" stop-color="#2E629B"/>
</linearGradient>
<linearGradient id="paint27_linear_0_3133" x1="17.5667" y1="69.5436" x2="72.5636" y2="69.5436" gradientUnits="userSpaceOnUse">
<stop stop-color="#2E5DA4"/>
<stop offset="0.3191" stop-color="#69B2DB"/>
<stop offset="1" stop-color="#285A95"/>
</linearGradient>
<linearGradient id="paint28_linear_0_3133" x1="68.2453" y1="73.2127" x2="68.2453" y2="83.2594" gradientUnits="userSpaceOnUse">
<stop stop-color="#BAE0FF"/>
<stop offset="0.442708" stop-color="white"/>
<stop offset="1" stop-color="#C1CCCF"/>
</linearGradient>
<linearGradient id="paint29_linear_0_3133" x1="80.8081" y1="73.2127" x2="80.8081" y2="83.2594" gradientUnits="userSpaceOnUse">
<stop stop-color="#BAE0FF"/>
<stop offset="0.447917" stop-color="white"/>
<stop offset="1" stop-color="#C1CCCF"/>
</linearGradient>
<linearGradient id="paint30_linear_0_3133" x1="89.828" y1="75.2647" x2="85.2781" y2="80.5491" gradientUnits="userSpaceOnUse">
<stop stop-color="#BAE0FF"/>
<stop offset="0.3191" stop-color="#EBEBEB"/>
<stop offset="1" stop-color="#E1DFDB"/>
</linearGradient>
<linearGradient id="paint31_linear_0_3133" x1="89.7897" y1="75.3899" x2="85.4419" y2="80.4911" gradientUnits="userSpaceOnUse">
<stop stop-color="#BAE0FF"/>
<stop offset="0.3191" stop-color="#EBEBEB"/>
<stop offset="1" stop-color="#E1DFDB"/>
</linearGradient>
<linearGradient id="paint32_linear_0_3133" x1="90.2061" y1="78.185" x2="83.5601" y2="78.185" gradientUnits="userSpaceOnUse">
<stop stop-color="#5F97BC" stop-opacity="0.33"/>
<stop offset="0.708333" stop-color="#103F5F"/>
</linearGradient>
<linearGradient id="paint33_linear_0_3133" x1="75.2644" y1="69.8075" x2="75.2644" y2="86.6646" gradientUnits="userSpaceOnUse">
<stop stop-color="#BAE0FF"/>
<stop offset="0.442708" stop-color="white"/>
<stop offset="1" stop-color="#C1CCCF"/>
</linearGradient>
<linearGradient id="paint34_linear_0_3133" x1="80.6406" y1="69.8075" x2="80.6406" y2="86.6646" gradientUnits="userSpaceOnUse">
<stop stop-color="#BAE0FF"/>
<stop offset="0.447917" stop-color="white"/>
<stop offset="1" stop-color="#C1CCCF"/>
</linearGradient>
<linearGradient id="paint35_linear_0_3133" x1="93.6692" y1="73.2504" x2="85.9492" y2="80.9689" gradientUnits="userSpaceOnUse">
<stop stop-color="#BAE0FF"/>
<stop offset="0.3191" stop-color="#EBEBEB"/>
<stop offset="1" stop-color="#E1DFDB"/>
</linearGradient>
<linearGradient id="paint36_linear_0_3133" x1="93.6138" y1="73.4607" x2="86.2257" y2="80.9229" gradientUnits="userSpaceOnUse">
<stop stop-color="#BAE0FF"/>
<stop offset="0.3191" stop-color="#EBEBEB"/>
<stop offset="1" stop-color="#E1DFDB"/>
</linearGradient>
<linearGradient id="paint37_linear_0_3133" x1="91.4814" y1="75.8206" x2="87.5981" y2="79.101" gradientUnits="userSpaceOnUse">
<stop stop-color="#BAE0FF"/>
<stop offset="0.3191" stop-color="#EBEBEB"/>
<stop offset="1" stop-color="#E1DFDB"/>
</linearGradient>
<linearGradient id="paint38_linear_0_3133" x1="91.7495" y1="78.3206" x2="87.4695" y2="78.3206" gradientUnits="userSpaceOnUse">
<stop stop-color="#5F97BC" stop-opacity="0.33"/>
<stop offset="0.708333" stop-color="#103F5F"/>
</linearGradient>
<linearGradient id="paint39_linear_0_3133" x1="21.7101" y1="23.8367" x2="21.7101" y2="26.3484" gradientUnits="userSpaceOnUse">
<stop stop-color="#BAE0FF"/>
<stop offset="0.442708" stop-color="white"/>
<stop offset="1" stop-color="#C1CCCF"/>
</linearGradient>
<linearGradient id="paint40_linear_0_3133" x1="40.3329" y1="23.8367" x2="40.3329" y2="26.3907" gradientUnits="userSpaceOnUse">
<stop stop-color="#BAE0FF"/>
<stop offset="0.447917" stop-color="white"/>
<stop offset="1" stop-color="#C1CCCF"/>
</linearGradient>
<linearGradient id="paint41_linear_0_3133" x1="67.8977" y1="24.3497" x2="66.7602" y2="25.6708" gradientUnits="userSpaceOnUse">
<stop stop-color="#BAE0FF"/>
<stop offset="0.3191" stop-color="#EBEBEB"/>
<stop offset="1" stop-color="#E1DFDB"/>
</linearGradient>
<linearGradient id="paint42_linear_0_3133" x1="34.4503" y1="13.559" x2="39.1046" y2="13.559" gradientUnits="userSpaceOnUse">
<stop stop-color="#BAE0FF"/>
<stop offset="0.442708" stop-color="white"/>
<stop offset="1" stop-color="#C1CCCF"/>
</linearGradient>
<linearGradient id="paint43_linear_0_3133" x1="34.4503" y1="7.7389" x2="39.1046" y2="7.7389" gradientUnits="userSpaceOnUse">
<stop stop-color="#BAE0FF"/>
<stop offset="0.447917" stop-color="white"/>
<stop offset="1" stop-color="#C1CCCF"/>
</linearGradient>
<linearGradient id="paint44_linear_0_3133" x1="35.4009" y1="3.56021" x2="37.849" y2="5.66808" gradientUnits="userSpaceOnUse">
<stop stop-color="#BAE0FF"/>
<stop offset="0.3191" stop-color="#EBEBEB"/>
<stop offset="1" stop-color="#E1DFDB"/>
</linearGradient>
<linearGradient id="paint45_linear_0_3133" x1="35.459" y1="3.57797" x2="37.8222" y2="5.5922" gradientUnits="userSpaceOnUse">
<stop stop-color="#BAE0FF"/>
<stop offset="0.3191" stop-color="#EBEBEB"/>
<stop offset="1" stop-color="#E1DFDB"/>
</linearGradient>
<linearGradient id="paint46_linear_0_3133" x1="36.7539" y1="3.38506" x2="36.7539" y2="6.46399" gradientUnits="userSpaceOnUse">
<stop stop-color="#5F97BC" stop-opacity="0.33"/>
<stop offset="0.708333" stop-color="#103F5F"/>
</linearGradient>
<linearGradient id="paint47_linear_0_3133" x1="32.8727" y1="10.307" x2="40.6822" y2="10.307" gradientUnits="userSpaceOnUse">
<stop stop-color="#BAE0FF"/>
<stop offset="0.442708" stop-color="white"/>
<stop offset="1" stop-color="#C1CCCF"/>
</linearGradient>
<linearGradient id="paint48_linear_0_3133" x1="32.8727" y1="7.81644" x2="40.6822" y2="7.81644" gradientUnits="userSpaceOnUse">
<stop stop-color="#BAE0FF"/>
<stop offset="0.447917" stop-color="white"/>
<stop offset="1" stop-color="#C1CCCF"/>
</linearGradient>
<linearGradient id="paint49_linear_0_3133" x1="34.4677" y1="1.78066" x2="38.0435" y2="5.3571" gradientUnits="userSpaceOnUse">
<stop stop-color="#BAE0FF"/>
<stop offset="0.3191" stop-color="#EBEBEB"/>
<stop offset="1" stop-color="#E1DFDB"/>
</linearGradient>
<linearGradient id="paint50_linear_0_3133" x1="34.5652" y1="1.80631" x2="38.0222" y2="5.22904" gradientUnits="userSpaceOnUse">
<stop stop-color="#BAE0FF"/>
<stop offset="0.3191" stop-color="#EBEBEB"/>
<stop offset="1" stop-color="#E1DFDB"/>
</linearGradient>
<linearGradient id="paint51_linear_0_3133" x1="52.4529" y1="7.97945" x2="53.3042" y2="7.97945" gradientUnits="userSpaceOnUse">
<stop stop-color="#BAE0FF"/>
<stop offset="0.447917" stop-color="white"/>
<stop offset="1" stop-color="#C1CCCF"/>
</linearGradient>
<linearGradient id="paint52_linear_0_3133" x1="52.1282" y1="3.95356" x2="53.4626" y2="5.10245" gradientUnits="userSpaceOnUse">
<stop stop-color="#BAE0FF"/>
<stop offset="0.3191" stop-color="#EBEBEB"/>
<stop offset="1" stop-color="#E1DFDB"/>
</linearGradient>
<linearGradient id="paint53_linear_0_3133" x1="52.1599" y1="3.96324" x2="53.448" y2="5.0611" gradientUnits="userSpaceOnUse">
<stop stop-color="#BAE0FF"/>
<stop offset="0.3191" stop-color="#EBEBEB"/>
<stop offset="1" stop-color="#E1DFDB"/>
</linearGradient>
<linearGradient id="paint54_linear_0_3133" x1="52.8657" y1="3.85809" x2="52.8657" y2="5.53627" gradientUnits="userSpaceOnUse">
<stop stop-color="#5F97BC" stop-opacity="0.33"/>
<stop offset="0.708333" stop-color="#103F5F"/>
</linearGradient>
<linearGradient id="paint55_linear_0_3133" x1="50.7502" y1="7.63112" x2="55.0068" y2="7.63112" gradientUnits="userSpaceOnUse">
<stop stop-color="#BAE0FF"/>
<stop offset="0.442708" stop-color="white"/>
<stop offset="1" stop-color="#C1CCCF"/>
</linearGradient>
<linearGradient id="paint56_linear_0_3133" x1="50.7502" y1="6.27357" x2="55.0068" y2="6.27357" gradientUnits="userSpaceOnUse">
<stop stop-color="#BAE0FF"/>
<stop offset="0.447917" stop-color="white"/>
<stop offset="1" stop-color="#C1CCCF"/>
</linearGradient>
<linearGradient id="paint57_linear_0_3133" x1="51.6196" y1="2.98379" x2="53.5686" y2="4.93313" gradientUnits="userSpaceOnUse">
<stop stop-color="#BAE0FF"/>
<stop offset="0.3191" stop-color="#EBEBEB"/>
<stop offset="1" stop-color="#E1DFDB"/>
</linearGradient>
<linearGradient id="paint58_linear_0_3133" x1="51.6727" y1="2.99771" x2="53.557" y2="4.86327" gradientUnits="userSpaceOnUse">
<stop stop-color="#BAE0FF"/>
<stop offset="0.3191" stop-color="#EBEBEB"/>
<stop offset="1" stop-color="#E1DFDB"/>
</linearGradient>
<linearGradient id="paint59_linear_0_3133" x1="28.1707" y1="26.3907" x2="28.1707" y2="40.0116" gradientUnits="userSpaceOnUse">
<stop stop-color="#448BBA"/>
<stop offset="1" stop-color="#C5E0F2"/>
</linearGradient>
<linearGradient id="paint60_linear_0_3133" x1="33.8527" y1="26.3907" x2="33.8527" y2="40.0116" gradientUnits="userSpaceOnUse">
<stop stop-color="#448BBA"/>
<stop offset="1" stop-color="#C5E0F2"/>
</linearGradient>
<linearGradient id="paint61_linear_0_3133" x1="39.5347" y1="26.3907" x2="39.5347" y2="40.0116" gradientUnits="userSpaceOnUse">
<stop stop-color="#448BBA"/>
<stop offset="1" stop-color="#C5E0F2"/>
</linearGradient>
<linearGradient id="paint62_linear_0_3133" x1="45.2167" y1="26.3907" x2="45.2167" y2="40.0116" gradientUnits="userSpaceOnUse">
<stop stop-color="#448BBA"/>
<stop offset="1" stop-color="#C5E0F2"/>
</linearGradient>
<linearGradient id="paint63_linear_0_3133" x1="50.8987" y1="26.3907" x2="50.8987" y2="40.0116" gradientUnits="userSpaceOnUse">
<stop stop-color="#448BBA"/>
<stop offset="1" stop-color="#C5E0F2"/>
</linearGradient>
<linearGradient id="paint64_linear_0_3133" x1="56.5807" y1="26.3907" x2="56.5807" y2="40.0116" gradientUnits="userSpaceOnUse">
<stop stop-color="#448BBA"/>
<stop offset="1" stop-color="#C5E0F2"/>
</linearGradient>
<linearGradient id="paint65_linear_0_3133" x1="62.2627" y1="26.3907" x2="62.2627" y2="40.0116" gradientUnits="userSpaceOnUse">
<stop stop-color="#448BBA"/>
<stop offset="1" stop-color="#C5E0F2"/>
</linearGradient>
</defs>
</svg>
