<svg width="59" height="126" viewBox="0 0 59 126" fill="none" xmlns="http://www.w3.org/2000/svg">
<path d="M29.1621 125.736C25.4929 125.736 0 126.692 0 117.349V112.628C0 109.01 2.60667 106.086 5.83242 106.086H52.4592C55.685 106.086 58.2916 109.01 58.2916 112.628V117.349C58.3995 126.664 32.7557 125.736 29.1621 125.736Z" fill="url(#paint0_linear_0_3213)"/>
<path d="M29.1926 114.135C25.7055 114.135 1.47736 115.019 1.47736 106.381V92.9221C1.47736 89.5775 3.9547 86.8748 7.02041 86.8748H51.3339C54.3996 86.8748 56.8769 89.5775 56.8769 92.9221V106.381C56.9794 114.993 32.6079 114.135 29.1926 114.135Z" fill="url(#paint1_linear_0_3213)"/>
<path d="M29.1621 97.4294C25.4929 97.4294 0 98.3859 0 89.0422V84.3215C0 80.7035 2.60667 77.7798 5.83242 77.7798H52.4592C55.685 77.7798 58.2916 80.7035 58.2916 84.3215V89.0422C58.3995 98.3576 32.7557 97.4294 29.1621 97.4294Z" fill="url(#paint2_linear_0_3213)"/>
<path d="M29.1926 86.3597C25.7055 86.3597 1.47736 87.244 1.47736 78.6063V67.2903C1.47736 63.9457 3.9547 61.2429 7.02041 61.2429H51.3339C54.3996 61.2429 56.8769 63.9457 56.8769 67.2903V78.6063C56.9794 87.2178 32.6079 86.3597 29.1926 86.3597Z" fill="url(#paint3_linear_0_3213)"/>
<path d="M29.1621 71.1651C25.4929 71.1651 0 72.1217 0 62.778V58.0573C0 54.4392 2.60667 51.5156 5.83242 51.5156H52.4592C55.685 51.5156 58.2916 54.4392 58.2916 58.0573V62.778C58.3995 72.0934 32.7557 71.1651 29.1621 71.1651Z" fill="url(#paint4_linear_0_3213)"/>
<path d="M29.1621 57.18C42.4786 57.18 53.2738 54.7257 53.2738 51.6981C53.2738 48.6706 42.4786 46.2162 29.1621 46.2162C15.8456 46.2162 5.05042 48.6706 5.05042 51.6981C5.05042 54.7257 15.8456 57.18 29.1621 57.18Z" fill="url(#paint5_linear_0_3213)"/>
<path d="M29.1621 53.4889C33.0311 53.4889 36.1675 52.5235 36.1675 51.3327C36.1675 50.1418 33.0311 49.1765 29.1621 49.1765C25.2931 49.1765 22.1567 50.1418 22.1567 51.3327C22.1567 52.5235 25.2931 53.4889 29.1621 53.4889Z" fill="url(#paint6_linear_0_3213)"/>
<path d="M36.1675 42.1962H22.1567V51.3326H36.1675V42.1962Z" fill="url(#paint7_linear_0_3213)"/>
<path d="M29.1621 44.3525C33.0311 44.3525 36.1675 43.3871 36.1675 42.1962C36.1675 41.0054 33.0311 40.04 29.1621 40.04C25.2931 40.04 22.1567 41.0054 22.1567 42.1962C22.1567 43.3871 25.2931 44.3525 29.1621 44.3525Z" fill="url(#paint8_linear_0_3213)"/>
<path d="M50.2911 103.44H8.00084L8.00085 116.584H50.2911L50.2911 103.44Z" fill="url(#paint9_linear_0_3213)"/>
<path d="M29.146 106.297C40.8241 106.297 50.2911 105.018 50.2911 103.44C50.2911 101.862 40.8241 100.582 29.146 100.582C17.4678 100.582 8.00084 101.862 8.00084 103.44C8.00084 105.018 17.4678 106.297 29.146 106.297Z" fill="url(#paint10_linear_0_3213)"/>
<path d="M29.146 106.297C40.8241 106.297 50.2911 105.018 50.2911 103.44C50.2911 101.862 40.8241 100.582 29.146 100.582C17.4678 100.582 8.00084 101.862 8.00084 103.44C8.00084 105.018 17.4678 106.297 29.146 106.297Z" fill="white" fill-opacity="0.32"/>
<path d="M29.146 120.013C40.8241 120.013 50.2911 118.222 50.2911 116.012C50.2911 113.803 40.8241 112.012 29.146 112.012C17.4678 112.012 8.00084 113.803 8.00084 116.012C8.00084 118.222 17.4678 120.013 29.146 120.013Z" fill="url(#paint11_linear_0_3213)"/>
<path d="M28.1676 44.7427C34.2554 44.7427 39.1906 43.6044 39.1906 42.2002C39.1906 40.796 34.2554 39.6577 28.1676 39.6577C22.0798 39.6577 17.1447 40.796 17.1447 42.2002C17.1447 43.6044 22.0798 44.7427 28.1676 44.7427Z" fill="url(#paint12_linear_0_3213)"/>
<path d="M39.1906 36.4807H17.1447V42.2002H39.1906V36.4807Z" fill="url(#paint13_linear_0_3213)"/>
<path d="M28.1676 39.2798C34.2554 39.2798 39.1906 38.1415 39.1906 36.7373C39.1906 35.3331 34.2554 34.1948 28.1676 34.1948C22.0798 34.1948 17.1447 35.3331 17.1447 36.7373C17.1447 38.1415 22.0798 39.2798 28.1676 39.2798Z" fill="url(#paint14_linear_0_3213)"/>
<path d="M29.1461 36.5754C30.7242 36.5754 32.0035 36.3195 32.0035 36.0039C32.0035 35.6883 30.7242 35.4324 29.1461 35.4324C27.5679 35.4324 26.2886 35.6883 26.2886 36.0039C26.2886 36.3195 27.5679 36.5754 29.1461 36.5754Z" fill="url(#paint15_linear_0_3213)"/>
<path d="M32.0035 26.2886H26.2886V36.004H32.0035V26.2886Z" fill="url(#paint16_linear_0_3213)"/>
<path d="M28.0647 29.9787C32.8331 29.9787 36.6987 29.087 36.6987 27.9872C36.6987 26.8873 32.8331 25.9957 28.0647 25.9957C23.2962 25.9957 19.4306 26.8873 19.4306 27.9872C19.4306 29.087 23.2962 29.9787 28.0647 29.9787Z" fill="url(#paint17_linear_0_3213)"/>
<path d="M28.0647 29.9787C32.8331 29.9787 36.6987 29.087 36.6987 27.9872C36.6987 26.8873 32.8331 25.9957 28.0647 25.9957C23.2962 25.9957 19.4306 26.8873 19.4306 27.9872C19.4306 29.087 23.2962 29.9787 28.0647 29.9787Z" fill="#1D3F49" fill-opacity="0.5"/>
<path d="M36.6987 23.5071H19.4306V27.9871H36.6987V23.5071Z" fill="url(#paint18_linear_0_3213)"/>
<path d="M36.6987 23.5071H19.4306V27.9871H36.6987V23.5071Z" fill="#1D3F49" fill-opacity="0.5"/>
<path d="M28.0647 25.6997C32.8331 25.6997 36.6987 24.8081 36.6987 23.7082C36.6987 22.6084 32.8331 21.7167 28.0647 21.7167C23.2962 21.7167 19.4306 22.6084 19.4306 23.7082C19.4306 24.8081 23.2962 25.6997 28.0647 25.6997Z" fill="url(#paint19_linear_0_3213)"/>
<path d="M28.625 25.143C32.4405 25.143 35.5335 24.4652 35.5335 23.6292C35.5335 22.7931 32.4405 22.1154 28.625 22.1154C24.8096 22.1154 21.7166 22.7931 21.7166 23.6292C21.7166 24.4652 24.8096 25.143 28.625 25.143Z" fill="url(#paint20_linear_0_3213)"/>
<path d="M35.7007 1.14313H21.985V24.0027H35.7007V1.14313Z" fill="url(#paint21_linear_0_3213)"/>
<path d="M28.625 3.0276C32.4405 3.0276 35.5335 2.34985 35.5335 1.5138C35.5335 0.677752 32.4405 0 28.625 0C24.8096 0 21.7166 0.677752 21.7166 1.5138C21.7166 2.34985 24.8096 3.0276 28.625 3.0276Z" fill="url(#paint22_linear_0_3213)"/>
<path d="M28.8428 2.28611C30.7366 2.28611 32.2718 2.03024 32.2718 1.71462C32.2718 1.39899 30.7366 1.14313 28.8428 1.14313C26.9491 1.14313 25.4139 1.39899 25.4139 1.71462C25.4139 2.03024 26.9491 2.28611 28.8428 2.28611Z" fill="url(#paint23_linear_0_3213)"/>
<path d="M28.8428 2.28611C30.7366 2.28611 32.2718 2.03024 32.2718 1.71462C32.2718 1.39899 30.7366 1.14313 28.8428 1.14313C26.9491 1.14313 25.4139 1.39899 25.4139 1.71462C25.4139 2.03024 26.9491 2.28611 28.8428 2.28611Z" fill="black" fill-opacity="0.2"/>
<defs>
<linearGradient id="paint0_linear_0_3213" x1="0" y1="145.376" x2="58.3242" y2="145.376" gradientUnits="userSpaceOnUse">
<stop stop-color="#BAE0FF"/>
<stop offset="0.3191" stop-color="white"/>
<stop offset="1" stop-color="#C1CCCF"/>
</linearGradient>
<linearGradient id="paint1_linear_0_3213" x1="1.47736" y1="128.983" x2="56.9079" y2="128.983" gradientUnits="userSpaceOnUse">
<stop stop-color="#BAE0FF"/>
<stop offset="0.3191" stop-color="#E5E8EA"/>
<stop offset="1" stop-color="#C1CCCF"/>
</linearGradient>
<linearGradient id="paint2_linear_0_3213" x1="0" y1="117.069" x2="58.3242" y2="117.069" gradientUnits="userSpaceOnUse">
<stop stop-color="#BAE0FF"/>
<stop offset="0.3191" stop-color="white"/>
<stop offset="1" stop-color="#C1CCCF"/>
</linearGradient>
<linearGradient id="paint3_linear_0_3213" x1="1.47736" y1="97.5636" x2="56.9079" y2="97.5636" gradientUnits="userSpaceOnUse">
<stop stop-color="#BAE0FF"/>
<stop offset="0.3191" stop-color="#E5E8EA"/>
<stop offset="1" stop-color="#C1CCCF"/>
</linearGradient>
<linearGradient id="paint4_linear_0_3213" x1="0" y1="90.8052" x2="58.3242" y2="90.8052" gradientUnits="userSpaceOnUse">
<stop stop-color="#BAE0FF"/>
<stop offset="0.3191" stop-color="white"/>
<stop offset="1" stop-color="#C1CCCF"/>
</linearGradient>
<linearGradient id="paint5_linear_0_3213" x1="5.05042" y1="51.701" x2="53.2738" y2="51.701" gradientUnits="userSpaceOnUse">
<stop stop-color="#BAE0FF"/>
<stop offset="0.3191" stop-color="#EBEBEB"/>
<stop offset="1" stop-color="#E1DFDB"/>
</linearGradient>
<linearGradient id="paint6_linear_0_3213" x1="22.1567" y1="51.3355" x2="36.1675" y2="51.3355" gradientUnits="userSpaceOnUse">
<stop stop-color="#BAE0FF"/>
<stop offset="0.3191" stop-color="white"/>
<stop offset="1" stop-color="#C1CCCF"/>
</linearGradient>
<linearGradient id="paint7_linear_0_3213" x1="22.1567" y1="46.7673" x2="36.1675" y2="46.7673" gradientUnits="userSpaceOnUse">
<stop stop-color="#BAE0FF"/>
<stop offset="0.3191" stop-color="white"/>
<stop offset="1" stop-color="#C1CCCF"/>
</linearGradient>
<linearGradient id="paint8_linear_0_3213" x1="25.0476" y1="38.2176" x2="33.1926" y2="44.4828" gradientUnits="userSpaceOnUse">
<stop stop-color="#BAE0FF"/>
<stop offset="0.3191" stop-color="#EBEBEB"/>
<stop offset="1" stop-color="#E1DFDB"/>
</linearGradient>
<linearGradient id="paint9_linear_0_3213" x1="8.00084" y1="22.4882" x2="50.2911" y2="22.4882" gradientUnits="userSpaceOnUse">
<stop stop-color="#2E5DA4"/>
<stop offset="0.3191" stop-color="#69B2DB"/>
<stop offset="1" stop-color="#285A95"/>
</linearGradient>
<linearGradient id="paint10_linear_0_3213" x1="8.00084" y1="92.0402" x2="50.2911" y2="92.0402" gradientUnits="userSpaceOnUse">
<stop stop-color="#3C72B1"/>
<stop offset="0.3191" stop-color="#69B2DB"/>
<stop offset="1" stop-color="#2E629B"/>
</linearGradient>
<linearGradient id="paint11_linear_0_3213" x1="8.00084" y1="100.053" x2="50.2911" y2="100.053" gradientUnits="userSpaceOnUse">
<stop stop-color="#2E5DA4"/>
<stop offset="0.3191" stop-color="#69B2DB"/>
<stop offset="1" stop-color="#285A95"/>
</linearGradient>
<linearGradient id="paint12_linear_0_3213" x1="17.1447" y1="42.2036" x2="39.1906" y2="42.2036" gradientUnits="userSpaceOnUse">
<stop stop-color="#8BA8BF"/>
<stop offset="0.3191" stop-color="white"/>
<stop offset="0.807292" stop-color="#778083"/>
<stop offset="1" stop-color="#C1CCCF"/>
</linearGradient>
<linearGradient id="paint13_linear_0_3213" x1="17.1447" y1="41.4836" x2="39.1906" y2="41.4836" gradientUnits="userSpaceOnUse">
<stop stop-color="#8BA8BF"/>
<stop offset="0.3191" stop-color="white"/>
<stop offset="0.802083" stop-color="#778083"/>
<stop offset="1" stop-color="#C1CCCF"/>
</linearGradient>
<linearGradient id="paint14_linear_0_3213" x1="21.6934" y1="32.0458" x2="31.6269" y2="42.242" gradientUnits="userSpaceOnUse">
<stop stop-color="#68828F"/>
<stop offset="0.3191" stop-color="#AEBCC1"/>
<stop offset="1" stop-color="#74878D"/>
</linearGradient>
<linearGradient id="paint15_linear_0_3213" x1="26.2886" y1="36.0047" x2="32.0035" y2="36.0047" gradientUnits="userSpaceOnUse">
<stop stop-color="#8BA8BF"/>
<stop offset="0.3191" stop-color="white"/>
<stop offset="0.807292" stop-color="#778083"/>
<stop offset="1" stop-color="#C1CCCF"/>
</linearGradient>
<linearGradient id="paint16_linear_0_3213" x1="26.2886" y1="32.2109" x2="32.0035" y2="32.2109" gradientUnits="userSpaceOnUse">
<stop stop-color="#8BA8BF"/>
<stop offset="0.3191" stop-color="white"/>
<stop offset="0.802083" stop-color="#778083"/>
<stop offset="1" stop-color="#C1CCCF"/>
</linearGradient>
<linearGradient id="paint17_linear_0_3213" x1="19.4306" y1="27.9898" x2="36.6987" y2="27.9898" gradientUnits="userSpaceOnUse">
<stop stop-color="#8BA8BF"/>
<stop offset="0.3191" stop-color="white"/>
<stop offset="0.807292" stop-color="#778083"/>
<stop offset="1" stop-color="#C1CCCF"/>
</linearGradient>
<linearGradient id="paint18_linear_0_3213" x1="19.4306" y1="27.4258" x2="36.6987" y2="27.4258" gradientUnits="userSpaceOnUse">
<stop stop-color="#8BA8BF"/>
<stop offset="0.3191" stop-color="white"/>
<stop offset="0.802083" stop-color="#778083"/>
<stop offset="1" stop-color="#C1CCCF"/>
</linearGradient>
<linearGradient id="paint19_linear_0_3213" x1="22.9936" y1="20.0335" x2="30.7743" y2="28.0199" gradientUnits="userSpaceOnUse">
<stop stop-color="#68828F"/>
<stop offset="0.3191" stop-color="#AEBCC1"/>
<stop offset="1" stop-color="#74878D"/>
</linearGradient>
<linearGradient id="paint20_linear_0_3213" x1="21.7166" y1="23.6312" x2="35.5335" y2="23.6312" gradientUnits="userSpaceOnUse">
<stop stop-color="#8BA8BF"/>
<stop offset="0.3191" stop-color="white"/>
<stop offset="0.807292" stop-color="#778083"/>
<stop offset="1" stop-color="#C1CCCF"/>
</linearGradient>
<linearGradient id="paint21_linear_0_3213" x1="21.985" y1="15.9487" x2="35.7007" y2="15.9487" gradientUnits="userSpaceOnUse">
<stop stop-color="#8BA8BF"/>
<stop offset="0.3191" stop-color="white"/>
<stop offset="0.802083" stop-color="#778083"/>
<stop offset="1" stop-color="#C1CCCF"/>
</linearGradient>
<linearGradient id="paint22_linear_0_3213" x1="24.5674" y1="-1.27947" x2="30.4661" y2="5.09387" gradientUnits="userSpaceOnUse">
<stop stop-color="#68828F"/>
<stop offset="0.3191" stop-color="#AEBCC1"/>
<stop offset="1" stop-color="#74878D"/>
</linearGradient>
<linearGradient id="paint23_linear_0_3213" x1="26.8289" y1="0.660102" x2="28.9316" y2="3.647" gradientUnits="userSpaceOnUse">
<stop stop-color="#68828F"/>
<stop offset="0.3191" stop-color="#AEBCC1"/>
<stop offset="1" stop-color="#74878D"/>
</linearGradient>
</defs>
</svg>
