<svg width="54" height="90" viewBox="0 0 54 90" fill="none" xmlns="http://www.w3.org/2000/svg">
<path d="M26.716 89.0114C23.3546 89.0114 0 89.8877 0 81.3277V77.003C0 73.6884 2.38802 71.01 5.3432 71.01H48.0589C51.0141 71.01 53.4021 73.6884 53.4021 77.003V81.3277C53.5009 89.8617 30.0081 89.0114 26.716 89.0114Z" fill="url(#paint0_linear_0_3247)"/>
<path d="M26.7438 78.3834C23.5492 78.3834 1.3533 79.1935 1.3533 71.2804V58.9503C1.3533 55.8862 3.62285 53.4102 6.43141 53.4102H47.0279C49.8364 53.4102 52.106 55.8862 52.106 58.9503V71.2804C52.1999 79.1695 29.8726 78.3834 26.7438 78.3834Z" fill="url(#paint1_linear_0_3247)"/>
<path d="M26.716 63.0793C23.3546 63.0793 0 63.9556 0 55.3956V51.0709C0 47.7563 2.38802 45.0779 5.3432 45.0779H48.0589C51.0141 45.0779 53.4021 47.7563 53.4021 51.0709V55.3956C53.5009 63.9296 30.0081 63.0793 26.716 63.0793Z" fill="url(#paint2_linear_0_3247)"/>
<path d="M26.7438 52.9385C23.5492 52.9385 1.35327 53.7486 1.35327 45.8354V35.4686C1.35327 32.4045 3.62281 29.9285 6.43138 29.9285H47.0278C49.8364 29.9285 52.1059 32.4045 52.1059 35.4686V45.8354C52.1998 53.7246 29.8726 52.9385 26.7438 52.9385Z" fill="url(#paint3_linear_0_3247)"/>
<path d="M26.716 39.0182C23.3546 39.0182 0 39.8945 0 31.3345V27.0098C0 23.6952 2.38802 21.0168 5.3432 21.0168H48.0589C51.0141 21.0168 53.4021 23.6952 53.4021 27.0098V31.3345C53.5009 39.8685 30.0081 39.0182 26.716 39.0182Z" fill="url(#paint4_linear_0_3247)"/>
<path d="M26.716 26.2062C38.9156 26.2062 48.8052 23.9578 48.8052 21.1842C48.8052 18.4106 38.9156 16.1621 26.716 16.1621C14.5165 16.1621 4.62683 18.4106 4.62683 21.1842C4.62683 23.9578 14.5165 26.2062 26.716 26.2062Z" fill="url(#paint5_linear_0_3247)"/>
<path d="M26.7161 22.8246C30.2605 22.8246 33.1339 21.9403 33.1339 20.8493C33.1339 19.7584 30.2605 18.874 26.7161 18.874C23.1716 18.874 20.2982 19.7584 20.2982 20.8493C20.2982 21.9403 23.1716 22.8246 26.7161 22.8246Z" fill="url(#paint6_linear_0_3247)"/>
<path d="M33.1339 12.4792H20.2982V20.8493H33.1339V12.4792Z" fill="url(#paint7_linear_0_3247)"/>
<path d="M26.716 14.4546C30.2605 14.4546 33.1338 13.5702 33.1338 12.4792C33.1338 11.3883 30.2605 10.5039 26.716 10.5039C23.1716 10.5039 20.2982 11.3883 20.2982 12.4792C20.2982 13.5702 23.1716 14.4546 26.716 14.4546Z" fill="url(#paint8_linear_0_3247)"/>
<path d="M26.7012 16.7539C31.0385 16.7539 34.5545 15.5819 34.5545 14.1361C34.5545 12.6904 31.0385 11.5184 26.7012 11.5184C22.3639 11.5184 18.8479 12.6904 18.8479 14.1361C18.8479 15.5819 22.3639 16.7539 26.7012 16.7539Z" fill="url(#paint9_linear_0_3247)"/>
<path d="M34.5545 10.4712H18.8479V14.6596H34.5545V10.4712Z" fill="url(#paint10_linear_0_3247)"/>
<path d="M26.7012 12.5654C31.0385 12.5654 34.5545 11.6278 34.5545 10.4712C34.5545 9.31456 31.0385 8.37695 26.7012 8.37695C22.3639 8.37695 18.8479 9.31456 18.8479 10.4712C18.8479 11.6278 22.3639 12.5654 26.7012 12.5654Z" fill="url(#paint11_linear_0_3247)"/>
<path d="M26.7161 11.2734C30.2605 11.2734 33.1339 10.389 33.1339 9.2981C33.1339 8.20715 30.2605 7.32275 26.7161 7.32275C23.1716 7.32275 20.2982 8.20715 20.2982 9.2981C20.2982 10.389 23.1716 11.2734 26.7161 11.2734Z" fill="url(#paint12_linear_0_3247)"/>
<path d="M33.1339 5.11664H20.2982V9.29831H33.1339V5.11664Z" fill="url(#paint13_linear_0_3247)"/>
<path d="M26.716 7.09204C30.2605 7.09204 33.1338 6.20765 33.1338 5.1167C33.1338 4.02575 30.2605 3.14136 26.716 3.14136C23.1716 3.14136 20.2982 4.02575 20.2982 5.1167C20.2982 6.20765 23.1716 7.09204 26.716 7.09204Z" fill="url(#paint14_linear_0_3247)"/>
<path d="M26.7012 8.37695C31.0384 8.37695 34.5545 7.20494 34.5545 5.75918C34.5545 4.31343 31.0384 3.14142 26.7012 3.14142C22.3639 3.14142 18.8479 4.31343 18.8479 5.75918C18.8479 7.20494 22.3639 8.37695 26.7012 8.37695Z" fill="url(#paint15_linear_0_3247)"/>
<path d="M34.5545 2.09424H18.8479V6.28267H34.5545V2.09424Z" fill="url(#paint16_linear_0_3247)"/>
<path d="M26.7012 4.18843C31.0384 4.18843 34.5545 3.25082 34.5545 2.09421C34.5545 0.937612 31.0384 0 26.7012 0C22.3639 0 18.8479 0.937612 18.8479 2.09421C18.8479 3.25082 22.3639 4.18843 26.7012 4.18843Z" fill="url(#paint17_linear_0_3247)"/>
<path d="M46.0728 30.3661H7.32986L7.32987 80.6273H46.0728L46.0728 30.3661Z" fill="url(#paint18_linear_0_3247)"/>
<path d="M26.7013 34.5546C37.3999 34.5546 46.0728 32.6794 46.0728 30.3662C46.0728 28.053 37.3999 26.1777 26.7013 26.1777C16.0028 26.1777 7.32986 28.053 7.32986 30.3662C7.32986 32.6794 16.0028 34.5546 26.7013 34.5546Z" fill="url(#paint19_linear_0_3247)"/>
<path d="M26.7013 34.5546C37.3999 34.5546 46.0728 32.6794 46.0728 30.3662C46.0728 28.053 37.3999 26.1777 26.7013 26.1777C16.0028 26.1777 7.32986 28.053 7.32986 30.3662C7.32986 32.6794 16.0028 34.5546 26.7013 34.5546Z" fill="white" fill-opacity="0.32"/>
<path d="M26.7013 83.7685C37.3999 83.7685 46.0728 82.1276 46.0728 80.1036C46.0728 78.0795 37.3999 76.4387 26.7013 76.4387C16.0028 76.4387 7.32986 78.0795 7.32986 80.1036C7.32986 82.1276 16.0028 83.7685 26.7013 83.7685Z" fill="url(#paint20_linear_0_3247)"/>
<path d="M30.4632 51.4133V55.3098C30.4632 56.843 30.2825 58.176 29.9212 59.3088C29.5697 60.4416 29.0618 61.3791 28.3978 62.1213C27.7435 62.8635 26.9622 63.4152 26.054 63.7766C25.1458 64.1379 24.1448 64.3185 23.0511 64.3185C22.1722 64.3185 21.3519 64.2062 20.5902 63.9816C19.8284 63.7473 19.14 63.3957 18.5247 62.9269C17.9193 62.4484 17.3968 61.8527 16.9573 61.1398C16.5179 60.4269 16.181 59.5871 15.9466 58.6203C15.7122 57.6437 15.595 56.5402 15.595 55.3098V51.4133C15.595 49.8703 15.7708 48.5373 16.1224 47.4142C16.4837 46.2814 16.9964 45.3439 17.6605 44.6017C18.3245 43.8596 19.1107 43.3078 20.0189 42.9465C20.9271 42.5851 21.928 42.4045 23.0218 42.4045C23.9007 42.4045 24.7161 42.5217 25.4681 42.756C26.2298 42.9807 26.9183 43.3322 27.5335 43.8107C28.1488 44.2795 28.6712 44.8703 29.1009 45.5832C29.5404 46.2961 29.8773 47.1408 30.1116 48.1174C30.346 49.0842 30.4632 50.1828 30.4632 51.4133ZM25.5267 55.9103V50.7834C25.5267 50.0998 25.4876 49.5041 25.4095 48.9963C25.3411 48.4885 25.2337 48.0588 25.0872 47.7072C24.9505 47.3557 24.7796 47.0724 24.5745 46.8576C24.3695 46.633 24.1351 46.4719 23.8714 46.3742C23.6175 46.2668 23.3343 46.2131 23.0218 46.2131C22.6312 46.2131 22.2796 46.2961 21.9671 46.4621C21.6644 46.6183 21.4056 46.8723 21.1907 47.2238C20.9759 47.5754 20.8099 48.0441 20.6927 48.6301C20.5853 49.216 20.5316 49.9338 20.5316 50.7834V55.9103C20.5316 56.6037 20.5657 57.2092 20.6341 57.7267C20.7122 58.2346 20.8197 58.6691 20.9564 59.0305C21.1029 59.382 21.2786 59.6701 21.4837 59.8947C21.6888 60.1096 21.9232 60.2658 22.1868 60.3635C22.4505 60.4611 22.7386 60.5099 23.0511 60.5099C23.432 60.5099 23.7738 60.4318 24.0765 60.2756C24.3792 60.1193 24.638 59.8654 24.8529 59.5139C25.0775 59.1525 25.2435 58.6789 25.3509 58.093C25.4681 57.4973 25.5267 56.7697 25.5267 55.9103Z" fill="white"/>
<path d="M39.1017 67.7193V69.4966H32.1564V67.9927L35.3556 64.6294C35.6382 64.3059 35.866 64.0165 36.0392 63.7613C36.2124 63.5015 36.3377 63.2668 36.4152 63.0572C36.4972 62.8475 36.5382 62.6584 36.5382 62.4898C36.5382 62.2027 36.4949 61.9634 36.4083 61.772C36.3263 61.576 36.2033 61.4279 36.0392 61.3277C35.8797 61.2274 35.6814 61.1773 35.4445 61.1773C35.2075 61.1773 35.0001 61.2456 34.8224 61.3824C34.6447 61.5191 34.5057 61.7059 34.4054 61.9429C34.3097 62.1799 34.2619 62.4465 34.2619 62.7427H31.9513C31.9513 62.132 32.0994 61.5738 32.3956 61.0679C32.6964 60.562 33.1134 60.1587 33.6466 59.8579C34.1798 59.5526 34.7973 59.3999 35.4992 59.3999C36.2329 59.3999 36.8481 59.5139 37.3449 59.7417C37.8416 59.9696 38.2153 60.3 38.466 60.7329C38.7212 61.1613 38.8488 61.6786 38.8488 62.2847C38.8488 62.6311 38.7941 62.9637 38.6847 63.2827C38.5753 63.6018 38.4181 63.9185 38.213 64.2329C38.0079 64.5428 37.7573 64.8618 37.4611 65.19C37.1694 65.5181 36.8367 65.8667 36.463 66.2359L35.1779 67.7193H39.1017Z" fill="white"/>
<defs>
<linearGradient id="paint0_linear_0_3247" x1="0" y1="107.004" x2="53.432" y2="107.004" gradientUnits="userSpaceOnUse">
<stop stop-color="#BAE0FF"/>
<stop offset="0.3191" stop-color="white"/>
<stop offset="1" stop-color="#C1CCCF"/>
</linearGradient>
<linearGradient id="paint1_linear_0_3247" x1="1.3533" y1="91.9865" x2="52.1343" y2="91.9865" gradientUnits="userSpaceOnUse">
<stop stop-color="#BAE0FF"/>
<stop offset="0.3191" stop-color="#E5E8EA"/>
<stop offset="1" stop-color="#C1CCCF"/>
</linearGradient>
<linearGradient id="paint2_linear_0_3247" x1="0" y1="81.0719" x2="53.432" y2="81.0719" gradientUnits="userSpaceOnUse">
<stop stop-color="#BAE0FF"/>
<stop offset="0.3191" stop-color="white"/>
<stop offset="1" stop-color="#C1CCCF"/>
</linearGradient>
<linearGradient id="paint3_linear_0_3247" x1="1.35327" y1="63.2025" x2="52.1343" y2="63.2025" gradientUnits="userSpaceOnUse">
<stop stop-color="#BAE0FF"/>
<stop offset="0.3191" stop-color="#E5E8EA"/>
<stop offset="1" stop-color="#C1CCCF"/>
</linearGradient>
<linearGradient id="paint4_linear_0_3247" x1="0" y1="57.0108" x2="53.432" y2="57.0108" gradientUnits="userSpaceOnUse">
<stop stop-color="#BAE0FF"/>
<stop offset="0.3191" stop-color="white"/>
<stop offset="1" stop-color="#C1CCCF"/>
</linearGradient>
<linearGradient id="paint5_linear_0_3247" x1="4.62683" y1="21.1868" x2="48.8052" y2="21.1868" gradientUnits="userSpaceOnUse">
<stop stop-color="#BAE0FF"/>
<stop offset="0.3191" stop-color="#EBEBEB"/>
<stop offset="1" stop-color="#E1DFDB"/>
</linearGradient>
<linearGradient id="paint6_linear_0_3247" x1="20.2982" y1="20.8519" x2="33.1339" y2="20.8519" gradientUnits="userSpaceOnUse">
<stop stop-color="#BAE0FF"/>
<stop offset="0.3191" stop-color="white"/>
<stop offset="1" stop-color="#C1CCCF"/>
</linearGradient>
<linearGradient id="paint7_linear_0_3247" x1="20.2982" y1="16.6668" x2="33.1339" y2="16.6668" gradientUnits="userSpaceOnUse">
<stop stop-color="#BAE0FF"/>
<stop offset="0.3191" stop-color="white"/>
<stop offset="1" stop-color="#C1CCCF"/>
</linearGradient>
<linearGradient id="paint8_linear_0_3247" x1="22.9466" y1="8.83434" x2="30.4085" y2="14.574" gradientUnits="userSpaceOnUse">
<stop stop-color="#BAE0FF"/>
<stop offset="0.3191" stop-color="#EBEBEB"/>
<stop offset="1" stop-color="#E1DFDB"/>
</linearGradient>
<linearGradient id="paint9_linear_0_3247" x1="18.8479" y1="14.1396" x2="34.5545" y2="14.1396" gradientUnits="userSpaceOnUse">
<stop stop-color="#BAE0FF"/>
<stop offset="0.3191" stop-color="white"/>
<stop offset="1" stop-color="#C1CCCF"/>
</linearGradient>
<linearGradient id="paint10_linear_0_3247" x1="18.8479" y1="12.5667" x2="34.5545" y2="12.5667" gradientUnits="userSpaceOnUse">
<stop stop-color="#BAE0FF"/>
<stop offset="0.3191" stop-color="white"/>
<stop offset="1" stop-color="#C1CCCF"/>
</linearGradient>
<linearGradient id="paint11_linear_0_3247" x1="22.0887" y1="6.60692" x2="30.2159" y2="13.8225" gradientUnits="userSpaceOnUse">
<stop stop-color="#BAE0FF"/>
<stop offset="0.3191" stop-color="#EBEBEB"/>
<stop offset="1" stop-color="#E1DFDB"/>
</linearGradient>
<linearGradient id="paint12_linear_0_3247" x1="20.2982" y1="9.30071" x2="33.1339" y2="9.30071" gradientUnits="userSpaceOnUse">
<stop stop-color="#BAE0FF"/>
<stop offset="0.3191" stop-color="white"/>
<stop offset="1" stop-color="#C1CCCF"/>
</linearGradient>
<linearGradient id="paint13_linear_0_3247" x1="20.2982" y1="5.11587" x2="33.1339" y2="5.11587" gradientUnits="userSpaceOnUse">
<stop stop-color="#BAE0FF"/>
<stop offset="0.3191" stop-color="white"/>
<stop offset="1" stop-color="#C1CCCF"/>
</linearGradient>
<linearGradient id="paint14_linear_0_3247" x1="22.9466" y1="1.47179" x2="30.4085" y2="7.21149" gradientUnits="userSpaceOnUse">
<stop stop-color="#BAE0FF"/>
<stop offset="0.3191" stop-color="#EBEBEB"/>
<stop offset="1" stop-color="#E1DFDB"/>
</linearGradient>
<linearGradient id="paint15_linear_0_3247" x1="18.8479" y1="5.76265" x2="34.5545" y2="5.76265" gradientUnits="userSpaceOnUse">
<stop stop-color="#BAE0FF"/>
<stop offset="0.3191" stop-color="white"/>
<stop offset="1" stop-color="#C1CCCF"/>
</linearGradient>
<linearGradient id="paint16_linear_0_3247" x1="18.8479" y1="4.18976" x2="34.5545" y2="4.18976" gradientUnits="userSpaceOnUse">
<stop stop-color="#BAE0FF"/>
<stop offset="0.3191" stop-color="white"/>
<stop offset="1" stop-color="#C1CCCF"/>
</linearGradient>
<linearGradient id="paint17_linear_0_3247" x1="22.0887" y1="-1.77004" x2="30.2159" y2="5.44552" gradientUnits="userSpaceOnUse">
<stop stop-color="#BAE0FF"/>
<stop offset="0.3191" stop-color="#EBEBEB"/>
<stop offset="1" stop-color="#E1DFDB"/>
</linearGradient>
<linearGradient id="paint18_linear_0_3247" x1="7.32986" y1="-279.176" x2="46.0728" y2="-279.176" gradientUnits="userSpaceOnUse">
<stop stop-color="#2E5DA4"/>
<stop offset="0.3191" stop-color="#69B2DB"/>
<stop offset="1" stop-color="#285A95"/>
</linearGradient>
<linearGradient id="paint19_linear_0_3247" x1="7.32986" y1="13.6569" x2="46.0728" y2="13.6569" gradientUnits="userSpaceOnUse">
<stop stop-color="#3C72B1"/>
<stop offset="0.3191" stop-color="#69B2DB"/>
<stop offset="1" stop-color="#2E629B"/>
</linearGradient>
<linearGradient id="paint20_linear_0_3247" x1="7.32986" y1="65.483" x2="46.0728" y2="65.483" gradientUnits="userSpaceOnUse">
<stop stop-color="#2E5DA4"/>
<stop offset="0.3191" stop-color="#69B2DB"/>
<stop offset="1" stop-color="#285A95"/>
</linearGradient>
</defs>
</svg>
