<svg width="21" height="25" viewBox="0 0 21 25" fill="none" xmlns="http://www.w3.org/2000/svg">
<path d="M16.6299 9.73922C16.7177 9.73817 16.7895 9.80907 16.7895 9.8969C16.7895 9.9235 16.7605 10.0033 16.7605 10.0033C16.7605 10.0033 16.7605 10.6683 16.7605 10.7215C16.7605 10.7747 16.5935 10.8544 16.5935 10.8544V11.2268C16.5935 11.2268 16.5935 11.3332 16.5935 11.546C16.5935 11.7588 17.0282 12.2908 17.1442 12.3706C17.2891 12.4504 19.0859 13.3813 19.5497 13.6207C20.0424 13.8867 20.1583 14.2325 20.1583 14.2325C20.1583 14.2325 20.3612 14.4453 20.3612 14.5251C20.3612 14.6049 20.3612 14.8442 20.3612 14.924C20.3612 15.0038 20.2742 15.19 20.2742 15.19C20.2742 15.19 20.2742 15.9082 20.2742 16.0146C20.2742 16.121 20.3612 16.2008 20.3612 16.2008C20.3612 16.2008 20.3612 16.5998 20.3612 16.6529C20.3612 16.7061 20.3032 16.7859 20.3032 16.7859C20.3032 16.7859 20.3032 16.8657 20.3032 16.9721C20.3032 17.0785 20.0713 17.3179 20.0134 17.3445C19.9554 17.3711 19.8974 17.6105 19.8974 17.6105C19.8974 17.6105 19.8974 20.3768 19.8974 20.6693C19.8974 20.9619 20.2742 21.2545 20.2742 21.2811C20.2742 21.3077 20.2742 21.5471 20.2742 21.5471L20.3612 21.7599C20.3612 21.7599 20.3612 22.0791 20.3612 22.2121C20.3612 22.3451 20.2742 22.4515 20.2742 22.4515V23.1962L20.3612 23.4888C20.3612 23.9477 19.9891 24.3197 19.5302 24.3197H11.8309C11.372 24.3197 11 23.9477 11 23.4888L11.0869 23.1962V22.4515C11.0869 22.4515 11 22.3717 11 22.2387C11 22.1057 11 21.7865 11 21.7865L11.0869 21.5737C11.0869 21.5737 11.0869 21.3609 11.0869 21.3077C11.0869 21.2811 11.4637 20.9885 11.4637 20.6959C11.4637 20.4034 11.4637 17.6371 11.4637 17.6371C11.4637 17.6371 11.4057 17.3977 11.3478 17.3711C11.2898 17.3445 11.058 17.1051 11.058 16.9987C11.058 16.8923 11.058 16.8125 11.058 16.8125C11.058 16.8125 11 16.7593 11 16.6795C11 16.5998 11 16.2274 11 16.2274C11 16.2274 11.0869 16.1476 11.0869 16.0412C11.0869 15.9348 11.0869 15.2166 11.0869 15.2166C11.0869 15.2166 11 15.057 11 14.9772C11 14.8974 11 14.6581 11 14.5783C11 14.4985 11.2029 14.2857 11.2029 14.2857C11.2029 14.2857 11.3478 13.9133 11.8115 13.6739C12.2752 13.4345 14.1011 12.5036 14.217 12.4238C14.3329 12.344 14.7676 11.7854 14.7676 11.5992C14.7676 11.413 14.7676 11.28 14.7676 11.28V10.881C14.7676 10.881 14.6006 10.8013 14.6006 10.7481C14.6006 10.6949 14.6006 10.0299 14.6006 10.0299C14.6006 10.0299 14.5717 9.95009 14.5717 9.9235C14.5717 9.83505 14.6428 9.76305 14.7312 9.76199L16.6299 9.73922Z" fill="url(#paint0_linear_0_3372)"/>
<path d="M16.6299 9.73922C16.7177 9.73817 16.7895 9.80907 16.7895 9.8969C16.7895 9.9235 16.7605 10.0033 16.7605 10.0033C16.7605 10.0033 16.7605 10.6683 16.7605 10.7215C16.7605 10.7747 16.5935 10.8544 16.5935 10.8544V11.2268C16.5935 11.2268 16.5935 11.3332 16.5935 11.546C16.5935 11.7588 17.0282 12.2908 17.1442 12.3706C17.2891 12.4504 19.0859 13.3813 19.5497 13.6207C20.0424 13.8867 20.1583 14.2325 20.1583 14.2325C20.1583 14.2325 20.3612 14.4453 20.3612 14.5251C20.3612 14.6049 20.3612 14.8442 20.3612 14.924C20.3612 15.0038 20.2742 15.19 20.2742 15.19C20.2742 15.19 20.2742 15.9082 20.2742 16.0146C20.2742 16.121 20.3612 16.2008 20.3612 16.2008C20.3612 16.2008 20.3612 16.5998 20.3612 16.6529C20.3612 16.7061 20.3032 16.7859 20.3032 16.7859C20.3032 16.7859 20.3032 16.8657 20.3032 16.9721C20.3032 17.0785 20.0713 17.3179 20.0134 17.3445C19.9554 17.3711 19.8974 17.6105 19.8974 17.6105C19.8974 17.6105 19.8974 20.3768 19.8974 20.6693C19.8974 20.9619 20.2742 21.2545 20.2742 21.2811C20.2742 21.3077 20.2742 21.5471 20.2742 21.5471L20.3612 21.7599C20.3612 21.7599 20.3612 22.0791 20.3612 22.2121C20.3612 22.3451 20.2742 22.4515 20.2742 22.4515V23.1962L20.3612 23.4888C20.3612 23.9477 19.9891 24.3197 19.5302 24.3197H11.8309C11.372 24.3197 11 23.9477 11 23.4888L11.0869 23.1962V22.4515C11.0869 22.4515 11 22.3717 11 22.2387C11 22.1057 11 21.7865 11 21.7865L11.0869 21.5737C11.0869 21.5737 11.0869 21.3609 11.0869 21.3077C11.0869 21.2811 11.4637 20.9885 11.4637 20.6959C11.4637 20.4034 11.4637 17.6371 11.4637 17.6371C11.4637 17.6371 11.4057 17.3977 11.3478 17.3711C11.2898 17.3445 11.058 17.1051 11.058 16.9987C11.058 16.8923 11.058 16.8125 11.058 16.8125C11.058 16.8125 11 16.7593 11 16.6795C11 16.5998 11 16.2274 11 16.2274C11 16.2274 11.0869 16.1476 11.0869 16.0412C11.0869 15.9348 11.0869 15.2166 11.0869 15.2166C11.0869 15.2166 11 15.057 11 14.9772C11 14.8974 11 14.6581 11 14.5783C11 14.4985 11.2029 14.2857 11.2029 14.2857C11.2029 14.2857 11.3478 13.9133 11.8115 13.6739C12.2752 13.4345 14.1011 12.5036 14.217 12.4238C14.3329 12.344 14.7676 11.7854 14.7676 11.5992C14.7676 11.413 14.7676 11.28 14.7676 11.28V10.881C14.7676 10.881 14.6006 10.8013 14.6006 10.7481C14.6006 10.6949 14.6006 10.0299 14.6006 10.0299C14.6006 10.0299 14.5717 9.95009 14.5717 9.9235C14.5717 9.83505 14.6428 9.76305 14.7312 9.76199L16.6299 9.73922Z" fill="white"/>
<path fill-rule="evenodd" clip-rule="evenodd" d="M1 -0.000244141C0.447715 -0.000244141 0 0.447471 0 0.999755V23.2374C0 23.7897 0.447716 24.2374 1 24.2374H9.20817C9.76045 24.2374 10.2082 23.7897 10.2082 23.2374V0.999756C10.2082 0.447471 9.76045 -0.000244141 9.20817 -0.000244141H1ZM2.57049 6.97632C2.01821 6.97632 1.57049 7.42403 1.57049 7.97632V13.4361C1.57049 13.9884 2.01821 14.4361 2.57049 14.4361H7.63769C8.18997 14.4361 8.63769 13.9884 8.63769 13.4361V7.97632C8.63769 7.42403 8.18997 6.97632 7.63769 6.97632H2.57049Z" fill="white"/>
<path d="M2.35571 6.28149H3.9262V8.63723C3.9262 9.0709 3.57463 9.42247 3.14096 9.42247C2.70728 9.42247 2.35571 9.0709 2.35571 8.63723V6.28149Z" fill="white"/>
<path d="M6.28195 6.28149H7.85244V8.63723C7.85244 9.0709 7.50087 9.42247 7.0672 9.42247C6.63352 9.42247 6.28195 9.0709 6.28195 8.63723V6.28149Z" fill="white"/>
<defs>
<linearGradient id="paint0_linear_0_3372" x1="12.1701" y1="20.0788" x2="20.3612" y2="20.0788" gradientUnits="userSpaceOnUse">
<stop stop-color="white"/>
<stop offset="1" stop-color="white" stop-opacity="0"/>
</linearGradient>
</defs>
</svg>
