<svg width="23" height="17" viewBox="0 0 23 17" fill="none" xmlns="http://www.w3.org/2000/svg">
<circle cx="5.05436" cy="13.5541" r="2.55436" fill="white"/>
<circle cx="17.5671" cy="13.5541" r="2.55436" fill="white"/>
<path fill-rule="evenodd" clip-rule="evenodd" d="M5.30611 13.6717H20.0311C21.1357 13.6717 22.0311 12.7762 22.0311 11.6717V7.91804C22.0311 7.583 21.947 7.25332 21.7863 6.95928L20.301 4.24001C19.9503 3.59808 19.2772 3.19878 18.5457 3.19878H15.5C14.9477 3.19878 14.5 3.64649 14.5 4.19878V7.49976C14.5 7.7759 14.2761 7.99976 14 7.99976C13.7239 7.99976 13.5 7.7759 13.5 7.49976V1.99976C13.5 0.895186 12.6046 -0.000244141 11.5 -0.000244141H2C0.895431 -0.000244141 0 0.895186 0 1.99976V11.6717C0 12.7762 0.895431 13.6717 2 13.6717H5.30611ZM16.7788 4.93774C16.2266 4.93774 15.7788 5.38546 15.7788 5.93774V6.75967C15.7788 7.31196 16.2266 7.75968 16.7788 7.75968H18.7464C19.4898 7.75968 19.9733 6.97736 19.6409 6.31246L19.2299 5.49053C19.0605 5.15175 18.7143 4.93774 18.3355 4.93774H16.7788Z" fill="white"/>
</svg>
